<?xml version="1.0" standalone="no"?>
<!DOCTYPE svg PUBLIC "-//W3C//DTD SVG 1.1//EN" "http://www.w3.org/Graphics/SVG/1.1/DTD/svg11.dtd" >
<svg xmlns="http://www.w3.org/2000/svg">
<metadata>Generated by IcoMoon</metadata>
<defs>
<font id="icomoon" horiz-adv-x="1024">
<font-face units-per-em="1024" ascent="960" descent="-64" />
<missing-glyph horiz-adv-x="1024" />
<glyph unicode="&#x20;" horiz-adv-x="512" d="" />
<<<<<<< HEAD
<glyph unicode="&#xe900;" glyph-name="D001" horiz-adv-x="1023" d="M512.631 746.194c-164.606-0.302-297.929-133.81-297.929-298.458 0-164.834 133.625-298.459 298.459-298.459 164.828 0 298.448 133.614 298.459 298.439-0.333 164.891-134.058 298.437-298.985 298.478zM749.482 447.717c0-0.141 0-0.308 0-0.475 0-130.759-106.001-236.76-236.76-236.76s-236.76 106.001-236.76 236.76c0 130.727 105.949 236.708 236.664 236.76 0.016 0 0.029 0 0.042 0 130.603 0 236.513-105.724 236.815-236.256zM814.909 189.939c-5.598 5.644-13.356 9.138-21.931 9.138v0c-0.032 0-0.069 0-0.107 0-8.598 0-16.381-3.493-22.006-9.137-0.184-0.165-0.184-0.348-0.366-0.513-0.16-0.054-0.288-0.165-0.364-0.307-5.623-5.612-9.101-13.367-9.101-21.934s3.478-16.322 9.099-21.93l66.341-66.231c5.601-5.639 13.358-9.131 21.929-9.138 8.627 0.034 16.433 3.517 22.117 9.141 0.059 0.199 0.189 0.364 0.359 0.47 0.074 0.158 0.205 0.277 0.365 0.33 5.604 5.62 9.066 13.371 9.066 21.932s-3.462 16.312-9.063 21.932zM792.795 696.301c4.35 0.002 8.495 0.875 12.272 2.454 3.698 1.589 7.035 3.871 9.84 6.683l66.341 66.213c5.6 5.618 9.062 13.37 9.062 21.931 0 17.132-13.867 31.025-30.988 31.068h-0.004c-7.112-0.021-13.66-2.416-18.898-6.433-1.022-0.804-2.119-1.645-3.215-2.668l-66.34-66.212c-5.643-5.626-9.135-13.407-9.135-22.004 0-17.158 13.908-31.067 31.065-31.069zM238.497 207.301h-6.031c0.005-0.205 0.008-0.446 0.008-0.688 0-1.213-0.069-2.41-0.204-3.587-8.774-0.681-16.461-4.824-21.885-11.003l-66.373-67.273c-0.859-1.066-1.703-2.259-2.471-3.503-0.453-0.682-1.001-1.431-1.367-1.979-0.619-0.966-1.23-2.094-1.759-3.266-0.434-0.865-0.8-1.596-1.165-2.327-0.445-1.168-0.884-2.628-1.232-4.123-0.247-0.661-0.378-1.146-0.413-1.658-0.415-1.905-0.653-4.078-0.653-6.307 0-8.511 3.463-16.214 9.058-21.775 5.628-5.647 13.41-9.139 22.008-9.139 0.037 0 0.075 0 0.112 0h-0.006c7.98 0.022 15.238 3.096 20.672 8.115 0.466 0.272 0.886 0.605 1.258 0.985l0.001 0.001 66.34 66.212c5.627 5.609 9.116 13.36 9.138 21.927 0 0.046 0 0.096 0 0.145 0 9.952-3.443 19.099-9.203 26.316-4.321 4.429-9.803-5.202-15.834 12.964zM209.621 704.599c5.601-5.639 13.358-9.131 21.929-9.138 0.004 0 0.007 0 0.010 0 8.629 0 16.443 3.491 22.106 9.139-0.001 0.127 0.182 0.292 0.182 0.42s0.366 0.238 0.548 0.402c5.622 5.608 9.1 13.363 9.1 21.931s-3.478 16.322-9.099 21.93l-66.341 66.213c-5.719 5.45-13.479 8.804-22.022 8.804s-16.303-3.353-22.035-8.816c-0.17-0.134-0.17-0.298-0.353-0.445s-0.183-0.238-0.366-0.366c-5.622-5.608-9.1-13.363-9.1-21.931s3.478-16.322 9.099-21.93zM515.92 82.351c-15.206-0.357-27.396-12.769-27.396-28.027 0-1.071 0.060-2.129 0.177-3.169l-0.012-84.086c-0.14-1.042-0.219-2.246-0.219-3.469 0-15.211 12.331-27.541 27.541-27.541s27.541 12.331 27.541 27.541c0 1.223-0.080 2.427-0.234 3.608l0.015 84.112c0.096 0.874 0.151 1.886 0.151 2.912 0 15.343-12.27 27.821-27.533 28.156zM515.737 811.383c12.582 0.108 23.201 8.392 26.81 19.793 0.761 2.67 1.167 5.507 1.167 8.438 0 1.712-0.138 3.391-0.405 5.028l0.024 83.889c0 0.049 0 0.107 0 0.164 0 17.062-13.826 30.894-30.885 30.904-12.069-0.137-22.137-8.536-24.821-19.8-0.179-1.331-0.261-2.669-0.261-4.026 0-3.291 0.483-6.469 1.383-9.467l-0.060-83.835c-0.108-0.925-0.17-1.996-0.17-3.081 0-15.189 12.094-27.552 27.178-27.986zM137.798 420.888c5.972 6.616 9.641 15.412 9.686 25.065 0 0.072 0.001 0.146 0.001 0.22 0 17.732-13.733 32.257-31.143 33.52l-84.36 0.006c-8.807-0.188-16.695-3.974-22.28-9.943-6.044-7.241-9.703-16.623-9.703-26.86 0-0.060 0-0.119 0-0.179-0.003-0.166-0.005-0.372-0.005-0.579 0-18.015 13.478-32.882 30.9-35.068l84.607-0.018c9.174 1.756 16.947 6.776 22.23 13.779zM992.548 477.945h-84.433c-17.625-2.405-31.061-17.361-31.061-35.455s13.436-33.050 30.876-35.434l84.619-0.021c17.75 2.274 31.328 17.288 31.328 35.473s-13.579 33.199-31.15 35.454z" />
<glyph unicode="&#xe901;" glyph-name="D002" horiz-adv-x="1373" d="M809.627-64.097h-596.201c-121.792 0-213.619 88.56-213.619 205.983-0.002 0.377-0.004 0.822-0.004 1.268 0 90.378 55.707 167.744 134.657 199.637 0.12 8.919-0.652 18.631-0.682 28.517-0.001 0.296-0.002 0.61-0.002 0.924 0 98.369 79.393 178.194 177.597 178.894 0.153 0.001 0.254 0.001 0.355 0.001 35.317 0 68.189-10.464 95.686-28.461 45.777 73.757 126.49 121.745 218.412 121.745 142.738 0 258.45-115.712 258.45-258.45 0-1.334-0.010-2.667-0.030-3.996 0.002-7.532-0.771-17.469-1.737-26.69 82.831-31.958 140.56-110.853 140.737-203.255 0.001-0.288 0.002-0.602 0.002-0.917 0-118.298-95.45-214.302-213.536-215.198zM311.44 492.164c-66.077-0.438-119.473-54.105-119.473-120.243 0-0.198 0-0.396 0.001-0.594 0-0.049 0-0.142 0-0.236 0-13.701 2.336-26.856 6.633-39.089 0.663-1.916 1.192-5.073 1.192-8.354 0-5.331-1.396-10.337-3.842-14.67-3.807-7.042-10.493-12.299-18.481-14.195-69.072-17.262-119.285-78.606-119.285-151.678 0-0.456 0.002-0.911 0.006-1.366 0-83.735 66.695-146.854 155.236-146.854h596.201c86.104 1.079 155.489 71.132 155.489 157.39 0 74.113-51.222 136.263-120.196 152.979-14.234 3.432-23.847 15.118-23.847 29.050 0 1.595 0.126 3.16 0.368 4.686 2.207 12.317 3.865 27.262 4.587 42.453 0.044 1.667 0.051 2.669 0.051 3.673 0 110.697-89.738 200.435-200.435 200.435-81.369 0-151.414-48.487-182.817-118.144-5.132-11.511-15.259-18.514-27.021-18.514-7.988 0-15.222 3.23-20.466 8.455-21.426 21.507-51.070 34.816-83.822 34.816-0.027 0-0.055 0-0.082 0zM974.715 205.74c0.051 0 0.102 0 0.153 0 4.592 0 8.931 1.078 14.112 3.619 86.046 44.19 144.915 133.824 144.915 237.207 0 16.125-1.432 31.916-4.162 47.2-21.397 122.978-128.658 216.479-257.757 216.479-15.746 0-31.166-1.391-46.136-4.059-58.453-10.595-110.038-40.913-147.837-84.075-4.605-5.255-7.396-12.14-7.396-19.676 0-8.705 3.724-16.54 9.662-21.996 5.142-4.644 11.955-7.471 19.429-7.471 8.66 0 16.433 3.796 21.97 10.075 29.183 33.291 69.211 56.836 114.565 65.124 11.668 2.083 23.682 3.17 35.949 3.17 100.294 0 183.616-72.669 200.171-168.181 2.151-11.959 3.273-24.275 3.273-36.853 0-80.254-45.703-149.833-113.834-184.751-9.61-4.858-16.198-14.823-16.198-26.327 0-4.739 1.118-9.217 3.103-13.187 4.68-9.665 14.568-16.338 26.023-16.375zM873.229 809.945c-16.046 0.142-28.998 13.183-28.998 29.248 0 0.028 0 0.055 0 0.083l-0.58 91.185c-0.002 0.138-0.004 0.301-0.004 0.465 0 16.059 12.959 29.092 28.991 29.21h0.011c16.134-0.055 29.191-13.147 29.191-29.288 0-0.014 0-0.027 0-0.041l0.58-91.187c0.001-0.098 0.002-0.214 0.002-0.331 0-16.086-12.942-29.149-28.981-29.344h-0.212zM1253.298 381.005c-16.010 0.365-28.848 13.43-28.848 29.494 0 15.995 12.73 29.018 28.612 29.488l90.324 0.581c16.010-0.365 28.848-13.43 28.848-29.494 0-15.995-12.73-29.018-28.612-29.488l-90.324-0.581zM1160.504 693.797c-8.001 0.028-15.239 3.272-20.493 8.507-5.343 5.368-8.647 12.771-8.647 20.947 0 8.079 3.226 15.404 8.46 20.757l63.21 64.854c5.29 5.403 12.659 8.753 20.81 8.753 8.027 0 15.295-3.248 20.561-8.502 5.304-5.39 8.58-12.791 8.58-20.958 0-8.069-3.198-15.391-8.395-20.769l-63.401-64.851c-5.195-5.345-12.452-8.661-20.484-8.661-0.071 0-0.141 0-0.212 0.001zM563.723 693.797c-0.002 0-0.005 0-0.007 0-8.171 0-15.56 3.351-20.867 8.753l-63.22 64.863c-5.229 5.348-8.455 12.673-8.455 20.752 0 8.175 3.304 15.579 8.649 20.949 5.224 5.255 12.46 8.508 20.455 8.508 8.128 0 15.471-3.362 20.714-8.772l63.416-64.867c5.175-5.332 8.366-12.616 8.366-20.644 0-8.222-3.346-15.663-8.751-21.034-5.151-5.207-12.296-8.43-20.193-8.43-0.038 0-0.075 0-0.113 0zM1188.535 51.006c-0.031 0-0.069 0-0.106 0-8.083 0-15.381 3.364-20.57 8.767l-63.418 64.888c-5.172 5.337-8.359 12.623-8.359 20.654 0 8.224 3.343 15.667 8.745 21.045 5.225 5.262 12.461 8.518 20.457 8.518 8.13 0 15.473-3.366 20.714-8.78l63.223-64.906c5.232-5.343 8.461-12.665 8.461-20.742 0-8.173-3.307-15.574-8.655-20.939-5.24-5.208-12.464-8.428-20.439-8.428-0.018 0-0.037 0-0.055 0z" />
<glyph unicode="&#xe902;" glyph-name="D003" horiz-adv-x="1523" d="M1608.73 117.301c22.172 0 40.146 17.974 40.146 40.146s-17.974 40.146-40.146 40.146h-1475.61c-22.172 0-40.146-17.974-40.146-40.146s17.974-40.146 40.146-40.146h1475.61zM1693.066 298.208c21.687 0.572 39.092 18.333 39.092 40.158s-17.405 39.586-39.145 40.159l-1653.157-0.001c-21.687-0.572-39.092-18.333-39.092-40.158s17.405-39.586 39.145-40.159h1653.104zM1491.942-59.614c21.687 0.572 39.092 18.333 39.092 40.158s-17.405 39.586-39.145 40.159l-1212.837-0.001c-21.687-0.572-39.092-18.333-39.092-40.158s17.405-39.586 39.145-40.159h1212.784zM569.756 716.839c0.052 0 0.104 0 0.156 0 10.953 0 20.852 4.513 27.949 11.792 7.298 7.245 11.817 17.285 11.817 28.381s-4.519 21.136-11.82 28.383l-159.382 160.957c-7.145 7.269-17.091 11.777-28.089 11.777s-20.944-4.508-28.089-11.777c-7.188-7.311-11.623-17.339-11.623-28.402s4.434-21.091 11.617-28.396l159.379-160.928c7.178-7.228 17.104-11.723 28.092-11.787zM410.388 713.19c-0.006 0-0.013 0-0.020 0-10.988 0-20.926 4.5-28.070 11.758-7.188 7.311-11.622 17.338-11.622 28.401s4.434 21.091 11.623 28.402l161.209 162.784c7.151 7.275 17.096 11.783 28.094 11.783s20.944-4.508 28.089-11.777c7.306-7.253 11.825-17.293 11.825-28.389s-4.519-21.136-11.817-28.381l-161.217-162.792c-7.090-7.276-16.986-11.789-27.935-11.789-0.056 0-0.112 0-0.168 0zM1386.591 718.73c0.065 0 0.13 0 0.195 0 10.937 0 20.822 4.503 27.904 11.758 7.188 7.311 11.623 17.339 11.623 28.402s-4.434 21.091-11.617 28.396l-159.382 160.905c-7.145 7.269-17.091 11.777-28.089 11.777s-20.944-4.508-28.089-11.777c-7.188-7.311-11.623-17.339-11.623-28.402s4.434-21.091 11.617-28.396l159.381-160.904c7.144-7.258 17.081-11.758 28.070-11.758 0.007 0 0.014 0 0.020 0zM1227.225 715.028c-0.055 0-0.12 0-0.185 0-10.937 0-20.822 4.503-27.902 11.756-7.189 7.309-11.622 17.332-11.622 28.391s4.434 21.082 11.62 28.389l161.209 162.784c7.151 7.275 17.096 11.783 28.094 11.783s20.944-4.508 28.089-11.777c7.188-7.311 11.623-17.339 11.623-28.402s-4.434-21.091-11.623-28.402l-161.209-162.784c-7.086-7.245-16.96-11.737-27.884-11.737-0.074 0-0.148 0-0.222 0.001zM969.123 546.146c0.007 0 0.014 0 0.021 0 10.988 0 20.926 4.5 28.069 11.757 7.188 7.311 11.623 17.339 11.623 28.402s-4.434 21.091-11.617 28.396l-159.382 160.879c-7.145 7.269-17.091 11.777-28.089 11.777s-20.944-4.508-28.097-11.785c-7.298-7.245-11.817-17.285-11.817-28.381s4.519-21.136 11.82-28.383l159.384-160.907c7.081-7.253 16.965-11.756 27.902-11.756 0.065 0 0.13 0 0.185 0zM809.748 542.471c-0.055 0-0.12 0-0.185 0-10.937 0-20.822 4.503-27.902 11.756-7.308 7.255-11.827 17.295-11.827 28.391s4.519 21.136 11.817 28.381l161.217 162.792c7.151 7.275 17.096 11.783 28.094 11.783s20.944-4.508 28.089-11.777c7.188-7.311 11.623-17.339 11.623-28.402s-4.434-21.091-11.623-28.402l-161.209-162.784c-7.186-7.213-17.113-11.69-28.086-11.737z" />
<glyph unicode="&#xe903;" glyph-name="D004" horiz-adv-x="1536" d="M1425.92 92.113h-1307.927c-19.155 0.507-34.49 16.156-34.49 35.386s15.335 34.879 34.443 35.385l1307.974 0.001c19.155-0.507 34.49-16.156 34.49-35.386s-15.335-34.879-34.443-35.385zM1500.625 251.578h-1465.251c-19.155 0.507-34.49 16.156-34.49 35.386s15.335 34.879 34.443 35.385l1465.298 0.001c19.155-0.507 34.49-16.156 34.49-35.386s-15.335-34.879-34.443-35.385zM1457.338 410.973h-1368.902c-19.537 0-35.375 15.838-35.375 35.375s15.838 35.375 35.375 35.375h1368.902c19.537 0 35.375-15.838 35.375-35.375s-15.838-35.375-35.375-35.375zM1344.233 570.415h-1125.236c-19.155 0.507-34.49 16.156-34.49 35.386s15.335 34.879 34.443 35.385l1125.283 0.001c19.155-0.507 34.49-16.156 34.49-35.386s-15.335-34.879-34.443-35.385zM1184.116 889.251h-402.618c-19.155 0.507-34.49 16.156-34.49 35.386s15.335 34.879 34.443 35.385l402.665 0.001c19.55 0 35.398-15.848 35.398-35.398s-15.848-35.398-35.398-35.398zM547.375 736.861h-224.116c-19.55 0-35.398 15.848-35.398 35.398s15.848 35.398 35.398 35.398h224.116c19.556 0 35.409-15.853 35.409-35.409s-15.853-35.409-35.409-35.409zM1261.615 733.347h-557.847c-19.55 0-35.398 15.848-35.398 35.398s15.848 35.398 35.398 35.398h557.847c19.556 0 35.409-15.853 35.409-35.409s-15.853-35.409-35.409-35.409zM1322.356-63.791h-1074.967c-19.55 0-35.398 15.848-35.398 35.398s15.848 35.398 35.398 35.398h1074.967c19.556 0 35.409-15.853 35.409-35.409s-15.853-35.409-35.409-35.409z" />
<glyph unicode="&#xe904;" glyph-name="D005" horiz-adv-x="1425" d="M1390.859 892.394h-1357.023c-0.258-0.007-0.562-0.011-0.867-0.011-18.663 0-33.792 15.129-33.792 33.792s15.129 33.792 33.792 33.792c0.305 0 0.609-0.004 0.912-0.012l1356.978 0.001c0.258 0.007 0.562 0.011 0.867 0.011 18.663 0 33.792-15.129 33.792-33.792s-15.129-33.792-33.792-33.792c-0.305 0-0.609 0.004-0.912 0.012zM1257.294 693.159h-1000.849c-18.286 0.484-32.925 15.423-32.925 33.781s14.639 33.297 32.88 33.78l1000.893 0.001c0.258 0.007 0.562 0.011 0.867 0.011 18.663 0 33.792-15.129 33.792-33.792s-15.129-33.792-33.792-33.792c-0.305 0-0.609 0.004-0.912 0.012zM1190.511 493.924h-733.496c-0.258-0.007-0.562-0.011-0.867-0.011-18.663 0-33.792 15.129-33.792 33.792s15.129 33.792 33.792 33.792c0.305 0 0.609-0.004 0.912-0.012l733.451 0.001c18.286-0.484 32.925-15.423 32.925-33.781s-14.639-33.297-32.88-33.78zM1101.468 294.689h-488.626c-18.663 0-33.792 15.129-33.792 33.792s15.129 33.792 33.792 33.792h488.626c18.663 0 33.792-15.129 33.792-33.792s-15.129-33.792-33.792-33.792zM945.419 95.455h-265.795c-18.663 0-33.792 15.129-33.792 33.792s15.129 33.792 33.792 33.792h265.795c18.663 0 33.792-15.129 33.792-33.792s-15.129-33.792-33.792-33.792zM789.593-63.933h-87.708c-18.663 0-33.792 15.129-33.792 33.792s15.129 33.792 33.792 33.792h87.708c18.681 0 33.825-15.144 33.825-33.825s-15.144-33.825-33.825-33.825z" />
<glyph unicode="&#xe905;" glyph-name="D006" horiz-adv-x="1042" d="M899.291 667.977c1.041 7.696 1.702 16.713 1.827 25.86 0.005 0.645 0.007 1.217 0.007 1.79 0 146.010-118.365 264.375-264.375 264.375-93.028 0-174.834-48.049-221.953-120.683-27.855 16.341-61.050 26.656-96.655 26.656-0.118 0-0.236 0-0.355 0-100.643-0.353-182.108-82.036-182.108-182.746 0-0.039 0-0.078 0-0.117 0.029-9.625 0.759-19.060 2.142-28.282-81.677-32.679-138.006-111.611-138.006-203.699 0-0.175 0-0.35 0.001-0.525 0-119.287 93.989-210.259 218.514-210.259h211.383l-107.886-115.95c-0.966-1.191-1.551-2.725-1.551-4.396 0-1.058 0.235-2.062 0.655-2.962 1.22-2.342 3.671-3.944 6.495-3.944 0.024 0 0.049 0 0.073 0l100.202-1.115-123.794-164.059c-0.958-1.203-1.536-2.745-1.536-4.422 0-1.875 0.723-3.58 1.906-4.853 1.29-1.564 3.234-2.556 5.41-2.556 0.025 0 0.051 0 0.076 0 0.013 0 0.032 0 0.052 0 1.263 0 2.443 0.354 3.448 0.968l393.845 219.046c2.469 1.21 4.139 3.704 4.139 6.589 0 4.040-3.275 7.314-7.314 7.314-0.105 0-0.21-0.002-0.314-0.007l-124.328-0.365 61.257 70.674h183.223c120.8 1.025 218.332 99.19 218.332 220.134 0 0.17 0 0.339-0.001 0.509-0.659 93.816-58.996 173.867-141.298 206.494zM204.434 644.754c-3.942 11.289-6.218 24.303-6.218 37.848 0 0.194 0 0.388 0.001 0.582 0 0.025 0 0.089 0 0.154 0 66.124 53.495 119.754 119.568 119.972 0.064 0 0.115 0 0.166 0 32.727 0 62.353-13.278 83.784-34.741 5.593-5.619 13.331-9.096 21.881-9.096 2.027 0 4.008 0.195 5.926 0.568 10.049 1.909 18.399 8.612 22.582 17.64 32.481 71.173 102.841 119.613 184.514 119.613 111.633 0 202.13-90.497 202.13-202.13 0-0.403-0.001-0.806-0.004-1.209-0.829-16.073-2.526-31.050-5.076-45.735 0.086 0.794-0.049-0.874-0.049-2.573 0-14.905 10.374-27.387 24.296-30.619 70.061-14.824 121.721-75.963 121.721-149.168 0-84.094-68.171-152.265-152.265-152.265-1.273 0-2.543 0.016-3.808 0.047l-605.252-0.004c-89.051 0-156.16 58.715-156.16 142.263-0.001 0.149-0.001 0.326-0.001 0.502 0 72.878 50.688 133.917 118.733 149.785 14.816 2.823 25.091 14.77 25.091 29.116 0 3.383-0.571 6.633-1.623 9.658z" />
<glyph unicode="&#xe906;" glyph-name="D007" horiz-adv-x="1042" d="M899.291 668.544c1.036 7.71 1.696 16.753 1.827 25.924 0.003 0.502 0.004 0.894 0.004 1.287 0 146.030-118.381 264.411-264.411 264.411-92.995 0-174.778-48.008-221.915-120.593-28 16.358-61.346 26.678-97.101 26.678-100.424 0-181.833-81.409-181.833-181.833 0-0.239 0-0.477 0.001-0.715-0.003-0.334-0.005-0.773-0.005-1.213 0-9.19 0.733-18.208 2.144-27-81.702-32.115-138.185-110.721-138.185-202.519 0-0.121 0-0.243 0-0.364 0-119.058 93.806-208.804 218.331-208.804h605.623c120.744 0.291 218.514 98.241 218.514 219.026 0 0.026 0 0.052 0 0.078-0.72 93.497-59.197 173.158-141.482 205.12zM204.069 645.376c-3.905 11.457-6.178 24.657-6.217 38.381-0.001 0.143-0.001 0.289-0.001 0.436 0 66.128 53.607 119.735 119.735 119.735 32.9 0 62.7-13.269 84.342-34.747 5.543-5.547 13.212-8.982 21.684-8.982 2.029 0 4.012 0.197 5.931 0.573 9.976 1.896 18.262 8.56 22.401 17.531 32.562 71.146 102.948 119.551 184.639 119.551 111.765 0 202.368-90.603 202.368-202.368 0-0.285-0.001-0.571-0.002-0.856-0.858-16.151-2.489-31.092-4.894-45.772 0.121 0.924-0.011-0.798-0.042-2.545-0.001-0.090-0.001-0.148-0.001-0.207 0-15.008 10.68-27.522 24.854-30.356 70.321-18.869 121.119-81.809 121.249-156.635 0.001-0.212 0.001-0.445 0.001-0.678 0-87.076-69.567-157.904-156.155-159.937l-605.812-0.004c-1.473-0.051-3.203-0.081-4.941-0.081-83.262 0-150.826 67.208-151.402 150.334-0.002 0.315-0.003 0.622-0.003 0.93 0 73.869 50.608 135.918 119.044 153.366 9.809 2.75 16.862 8.575 20.942 16.226 2.532 4.665 3.971 10.009 3.971 15.689 0 3.726-0.619 7.307-1.76 10.647zM277.029 189.769c-1.296 0.192-2.793 0.301-4.315 0.301-15.668 0-28.629-11.592-30.774-26.668l-16.294-78.465c-0.189-1.292-0.298-2.784-0.298-4.301 0-15.69 11.569-28.677 26.642-30.897 1.454-0.219 2.936-0.332 4.444-0.332 0.040 0 0.081 0 0.121 0 15.593 0.118 28.466 11.64 30.693 26.636l16.112 78.452c0.221 1.387 0.348 2.985 0.348 4.614 0 6.987-2.33 13.43-6.255 18.594-4.806 6.369-12.003 10.829-20.256 12.045zM444.526 189.769c-1.298 0.192-2.796 0.302-4.32 0.302-15.656 0-28.608-11.573-30.769-26.631l-32.385-191.856c-0.181-1.267-0.284-2.73-0.284-4.218 0-15.721 11.548-28.745 26.624-31.052 1.435-0.197 2.891-0.297 4.37-0.297 0.068 0 0.136 0 0.204 0.001 15.584 0.099 28.46 11.612 30.689 26.599l32.204 191.878c0.209 1.354 0.328 2.915 0.328 4.504 0 15.607-11.501 28.527-26.49 30.748zM617.874 189.769c-1.244 0.176-2.68 0.277-4.141 0.277-15.647 0-28.594-11.56-30.765-26.606l-32.385-191.856c-0.196-1.322-0.309-2.847-0.309-4.399 0-7.045 2.312-13.55 6.22-18.798 5.674-7.46 14.652-12.281 24.757-12.281 15.615 0 28.541 11.513 30.752 26.513l32.386 191.877c0.188 1.29 0.296 2.778 0.296 4.292 0 15.703-11.562 28.706-26.638 30.96zM785.554 189.769c-1.336 0.206-2.877 0.324-4.446 0.324-7.025 0-13.498-2.364-18.666-6.339-6.431-4.781-10.895-12.042-11.98-20.366l-16.291-78.452c-0.189-1.292-0.298-2.784-0.298-4.301 0-15.69 11.569-28.677 26.642-30.897 1.486-0.215 3.007-0.328 4.554-0.331 15.604 0.118 28.477 11.64 30.703 26.636l16.112 78.47c0.193 1.306 0.304 2.814 0.304 4.347 0 15.63-11.475 28.581-26.461 30.886z" />
<glyph unicode="&#xe907;" glyph-name="D008" horiz-adv-x="1263" d="M1185.208 500.069c-38.393 26.914-86.083 43.009-137.533 43.009-2.586 0-5.163-0.041-7.729-0.121-3.415 0.009-6.785 0.199-10.154 0.199-0.482 0.002-1.053 0.004-1.624 0.004-32.452 0-63.879-4.39-93.719-12.609-56.558-15.474-124.333-24.698-194.264-24.698-1.244 0-2.486 0.003-3.728 0.009-5.915-0.001-12.233 0.231-18.55 0.463l-6.95 0.253c-78.129 2.506-161.102 13.183-241.548 23.481l-18.321 2.317-39.17 0.99c-10.070 1.148-21.741 1.803-33.565 1.803-4.712 0-9.399-0.104-14.060-0.31-4.391 0.023-9.445-0.166-14.71-0.166-134.467-1.688-255.604-57.386-342.982-146.351-3.742-3.708-6.015-8.749-6.015-14.321 0-0.485 0.017-0.966 0.051-1.442 0.264-5.672 3.076-10.7 7.322-13.949l20.683-17.133c3.581-3.042 8.257-4.893 13.365-4.893 5.825 0 11.088 2.406 14.849 6.278 75.103 76.159 178.59 124.149 293.285 126.793 0.633 0.009 0.796 0.009 0.96 0.009 18.401 0 36.508-1.255 54.241-3.685l37.322-4.697c92.45-11.793 179.845-22.933 266.187-25.734q14.531-0.442 29.062-0.442c0.733-0.002 1.599-0.004 2.466-0.004 75.945 0 149.522 10.138 219.452 29.135 17.532 4.819 44.379 8.364 72.053 8.364 0.893 0 1.786-0.004 2.678-0.011l4.707 0.001c2.268 0.104 4.927 0.163 7.599 0.163 36.56 0 70.535-11.073 98.752-30.048 29.97-25.039 49.311-63.119 49.311-105.716 0-2.896-0.089-5.772-0.266-8.624 0.022 0.051 0.023-0.351 0.023-0.754 0-58.429-27.257-110.491-69.749-144.166-24.042-16.161-53.161-25.619-84.49-25.619-1.452 0-2.899 0.020-4.342 0.061-22.953 0.143-138.568 5.934-152.256 108.345-1.040 7.51-7.418 13.23-15.131 13.23-1.206 0-2.379-0.14-3.504-0.404l-27.063 2.758c-1.026 0.157-2.209 0.247-3.413 0.247-5.295 0-10.184-1.737-14.129-4.672-3.115-2.448-5.138-6.289-5.138-10.603 0-0.701 0.054-1.39 0.157-2.063 15.995-140.516 151.195-177.664 220.48-177.664 1.12-0.020 2.441-0.032 3.765-0.032 45.965 0 88.649 14.052 123.989 38.094 60.124 46.838 98.955 120.059 99.053 202.354 0.176 3.205 0.276 6.938 0.276 10.693 0 65.35-30.281 123.627-77.577 161.566zM862.792 258.415v0 0zM26.745 557.455c3.74-3.66 8.865-5.918 14.517-5.918 0.005 0 0.010 0 0.015 0 5.55 0.032 10.587 2.207 14.33 5.738 69.302 62.879 161.746 101.376 263.182 101.376 2.608 0 5.21-0.025 7.807-0.076 15.405 0.006 31.831-0.815 48.047-2.437 46.541-4.212 94.766-12.172 142.781-20.069 48.857-8.087 99.61-16.426 148.256-20.575l11.372-1.011c24.85-2.211 50.331-4.465 77.076-4.465 2.448-0.080 5.325-0.126 8.214-0.126 37.652 0 73.484 7.792 105.971 21.852 55.971 23.261 95.816 79.141 95.816 144.327 0 10.775-1.089 21.296-3.162 31.458-13.606 80.798-79.877 143.635-162.257 152.049-5.358 0.497-10.68 0.743-16.059 0.743-38.109 0-73.329-12.364-101.87-33.299-4.28-3.308-7.454-8.822-7.937-15.089-0.046-0.57-0.070-1.149-0.070-1.733 0-5.837 2.358-11.122 6.173-14.957l19.795-20.132c3.752-3.844 8.984-6.227 14.773-6.227 4.4 0 8.478 1.377 11.827 3.723 15.893 10.773 35.577 17.225 56.768 17.225 0.157 0 0.314 0 0.47-0.001 4.398 0 7.346-0.295 9.242-0.442 51.422-5.437 92.316-44.447 100.573-94.464 1.246-5.97 1.908-12.068 1.908-18.321 0-36.748-22.862-68.156-55.14-80.777-23.371-9.803-49.855-15.382-77.641-15.382-2.675 0-5.338 0.052-7.988 0.154-22.784-0.012-46.791 2.094-70.377 4.2l-11.583 0.99c-48.436 4.212-99.188 12.509-148.256 20.596-46.751 7.75-95.187 15.773-142.149 20.090-19.164 1.853-37.906 2.822-56.017 2.822-2.166 0.037-4.721 0.058-7.281 0.058-120.233 0-229.658-46.277-311.434-121.991-3.726-3.621-6.225-9.073-6.225-15.109s2.499-11.488 6.52-15.378zM433.186 353.329c-1.442 0.013-3.147 0.021-4.853 0.021-130.427 0-250.417-44.682-345.499-119.574-3.595-3.075-6.62-9.032-6.62-15.695 0-5.963 2.423-11.36 6.338-15.261l19.375-18.954c3.717-3.688 8.837-5.968 14.49-5.968 4.896 0 9.393 1.71 12.926 4.566 82.063 63.804 186.613 102.31 300.158 102.31 1.296 0 2.591-0.005 3.885-0.015 36.866 0.001 161.746-5.706 214.394-79.076 13.746-20.587 21.935-45.9 21.935-73.127 0-31.627-11.051-60.674-29.502-83.488-23.793-27.112-58.818-44.294-97.856-44.294-0.918 0-1.834 0.010-2.747 0.028-15.666 0.022-30.874 2.531-45.13 7.155-34.398 15.243-58.706 50.017-58.706 90.468 0 13.448 2.686 26.268 7.552 37.953 0.741 1.733 1.312 4.503 1.312 7.406 0 7.976-4.305 14.946-10.717 18.714l-26.636 14.797c-2.894 1.663-6.363 2.643-10.061 2.643-2.354 0-4.615-0.397-6.719-1.128-5.452-1.864-9.881-5.929-12.228-11.134-8.257-19.311-13.027-41.629-13.027-65.060 0-15.049 1.968-29.639 5.659-43.526 10.906-54.351 50.321-98.588 102.036-116.423 21.031-6.941 43.982-10.788 67.82-10.859 0.67-0.007 1.421-0.012 2.173-0.012 60.32 0 114.352 26.922 150.736 69.406 28.496 34.555 45.64 78.931 45.64 127.312 0 42.071-12.964 81.115-35.116 113.353-69.686 96.951-212.888 107.48-271.011 107.48z" />
<glyph unicode="&#xe908;" glyph-name="D009" horiz-adv-x="910" d="M866.855 722.905c26.669 25.076 43.279 60.587 43.279 99.978 0 75.728-61.39 137.118-137.118 137.118-0.102 0-0.205 0-0.307 0-0.126 0.001-0.295 0.001-0.464 0.001-36.493 0-69.635-14.344-94.096-37.702-6.73-6.034-10.977-14.826-10.977-24.61 0-0.116 0.001-0.232 0.002-0.347 0.833-8.825 5.417-16.454 12.124-21.349 4.933-4.034 11.197-6.444 18.025-6.444 8.234 0 15.65 3.505 20.837 9.104 13.817 13.825 32.884 22.364 53.946 22.364 33.018 0 61.135-20.987 71.737-50.349 3.3-8.283 5.117-17.272 5.117-26.686 0-21.35-9.347-40.517-24.172-53.632q-52.064-52.132-104.248-104.1l-35.249-35.151c-0.985-1.044-2.166-1.969-3.742-3.486l-0.788-0.866-125.637 122.821c-6.056 6.7-14.574 11.075-24.117 11.692-11.905-0.691-21.936-7.632-26.999-17.535l-131.038-205.317q-152.123-237.962-304.049-475.983l-1.575-2.462c-16.254-27.895-35.26-51.892-57.183-72.865-3.845-3.617-6.693-8.009-8.329-12.952-1.074-3.004-1.658-6.219-1.658-9.57 0-13.545 9.55-24.86 22.285-27.578 2.541-0.521 5.259-0.813 8.040-0.84 0.099-0.001 0.19-0.001 0.281-0.001 8.918 0 16.982 3.654 22.776 9.547 2.761 2.584 5.518 5.243 9.457 9.22 9.543 10.031 19.98 19.037 31.241 26.952 183.602 116.861 369.498 234.779 549.879 349.171l165.612 105.019c9.42 4.976 16.251 13.779 18.47 24.284 0.053 0.562 0.059 0.949 0.059 1.338 0 10.687-4.893 20.231-12.56 26.515l-85.722 85.651c-1.575 1.556-2.954 3.151-4.726 5.12l-1.575 1.654 2.56 2.284c0.985 0.827 1.969 1.615 2.757 2.402l3.742 3.348-0.197 0.236 34.068 33.831q50.215 49.959 100.234 100.175zM711.877 507.077l37.415-37.415-274.314-174.119-5.908 5.908zM422.006 262.459l-261.317-166.735 166.794 261.022zM361.945 409.521l172.505 273.093 37.218-37.415-204.012-241.684zM410.585 361.728l204.012 240.463 54.351-54.174-241.822-202.575z" />
<glyph unicode="&#xe909;" glyph-name="D010" horiz-adv-x="1515" d="M1205.12-64h-895.36c-176.427 0-309.547 125.867-309.547 292.949 0 0.162 0 0.354 0 0.547 0 133.295 84.983 246.741 203.724 289.111-0.842 15.074-2.551 31.63-2.551 48.586 0 0.261 0 0.522 0.001 0.783 0.876 140.573 115.068 254.223 255.803 254.223 54.772 0 105.524-17.214 147.14-46.527 66.47 111.344 186.486 184.237 323.527 184.237 208.094 0 376.932-168.074 378.169-375.876-0.453-17.284-1.834-33.643-4.103-49.717 124.634-39.163 212.714-154.515 212.714-290.438 0-170.039-137.844-307.883-307.883-307.883-0.575 0-1.149 0.002-1.723 0.005zM456.747 757.504c-0.058 0-0.125 0-0.193 0-104.845 0-189.889-84.782-190.313-189.528 0-0.069 0-0.103 0-0.137 0-21.611 3.672-42.365 10.426-61.672 0.687-1.785 1.314-5.352 1.314-9.066 0-15.233-10.553-28.002-24.746-31.394-108.598-25.853-187.954-121.848-187.954-236.378 0-0.164 0-0.328 0-0.492 0-130.108 104.96-228.241 244.48-228.241h895.36c0.45-0.003 0.983-0.005 1.516-0.005 134.316 0 243.2 108.884 243.2 243.2 0 115.264-80.187 211.8-187.819 236.866-16.987 3.023-28.499 16.239-28.523 32.149 0.039 1.899 0.193 3.721 0.455 5.508 3.323 18.607 5.838 41.21 6.961 64.18-0.968 173.419-140.74 312.563-313.011 312.563-125.682 0-234.066-74.060-283.892-180.92-6.105-13.215-17.378-20.893-30.444-20.893-8.895 0-16.96 3.558-22.847 9.33-34.26 33.974-81.445 54.971-133.534 54.971-0.152 0-0.305 0-0.457-0.001z" />
<glyph unicode="&#xe90a;" glyph-name="D011" horiz-adv-x="1157" d="M989.297 613.139l-14.61 4.952 1.897 15.483c0.759 5.692 1.328 11.897 1.897 17.93 0.569 6.375 0.759 11.707 0.759 15.862 0.018 1.155 0.028 2.517 0.028 3.883 0 148.99-120.78 269.77-269.77 269.77-98.536 0-184.733-52.829-231.813-131.709l-11.118-18.747-16.507 11.688c-28.206 19.933-63.303 31.861-101.187 31.861-97.538 0-176.609-79.070-176.609-176.609 0-0.889 0.007-1.776 0.020-2.661-0.003-0.156-0.004-0.499-0.004-0.842 0-5.623 0.277-11.181 0.817-16.661 0.514-4.885 1.273-10.482 2.222-15.946l3.036-16.071-15.179-5.502c-22.559-8.255-42.081-19.158-59.515-32.632-12.776-9.936-24.418-21.301-34.67-33.847-3.91-4.654-7.136-9.113-10.361-13.667-24.933-35.459-39.846-79.533-39.846-127.090 0-0.246 0-0.491 0.001-0.737 0-7.381 0.379-14.818 0.949-22.047 1.696-15.553 4.633-29.659 8.781-43.237 18.767-58.143 63.1-105.025 119.803-127.276 26.879-10.642 56.421-16.535 87.34-16.535 0.466 0 0.932 0.001 1.398 0.004 3.753 0 6.854 3.1 6.854 6.925s-3.101 6.925-6.925 6.925c-116.689 0-204.538 83.959-204.538 195.279-0.004 0.473-0.006 1.032-0.006 1.592 0 96.342 66.259 177.209 155.694 199.517 3.323 0.771 4.877 2.009 5.762 3.659 0.495 0.751 0.78 1.63 0.78 2.575 0 0.061-0.001 0.122-0.004 0.183 0.041 0.28 0.064 0.613 0.064 0.952 0 0.678-0.092 1.333-0.265 1.956-5.401 15.545-8.527 33.52-8.527 52.225 0 0.145 0 0.291 0.001 0.436 0.026 11.759 1.199 23.251 3.413 34.367 3.557 16.072 9.25 31.283 16.785 45.361 2.001 3.716 4.847 8.289 7.694 12.672 6.164 9.15 12.719 17.144 19.943 24.478 29.28 29.893 70.089 48.438 115.229 48.438 0.039 0 0.078 0 0.117 0 25.46-2.060 48.595-10.543 68.233-23.81 2.533-1.312 5.379-2.944 8.226-4.48 12.195-6.295 22.435-14.727 30.595-24.899 1.074 0.073 2.173 0.268 3.301 0.362l1.965 1.503 3.415 0.209c0.949 0.285 1.897 0.55 2.846 0.74 0.692 0.236 1.523 0.441 2.377 0.576 0.816 0.188 1.448 0.416 2.047 0.702 1.337 0.704 2.407 1.897 2.961 3.346 13.52 29.609 31.107 54.902 52.413 76.52 46.308 46.68 110.406 75.714 181.287 76.091 0.185 0 0.318 0.001 0.452 0.001 53.473 0 103.065-16.615 143.895-44.965 33.427-23.177 61.183-53.887 80.829-89.679 7.932-14.578 14.5-30.003 19.542-46.104 5.238-16.497 8.852-33.69 10.653-51.418 0.936-8.754 1.419-17.651 1.419-26.662 0-0.345-0.001-0.69-0.002-1.035-1.002-19.977-2.967-38.514-5.891-56.73l0.388 2.613c-0.066-0.333-0.103-0.717-0.103-1.109 0-1.381 0.467-2.654 1.252-3.667 0.91-1.46 2.39-2.51 4.125-2.845 18.647-4.319 35.038-10.583 50.257-18.748 3.858-2.129 8.981-5.165 13.724-8.182 19.586-12.712 36.258-27.917 50.143-45.432 3.932-4.905 7.158-9.573 10.383-14.298 12.198-17.952 21.892-38.808 27.937-61.163 3.001-11.397 5.081-23.212 6.157-35.315 0.628-6.74 0.818-12.755 0.818-18.712 0.002-0.317 0.003-0.692 0.003-1.067 0-113.25-91.404-205.151-204.464-205.956-3.901 0-7.002-3.101-7.002-6.926s3.101-6.925 6.925-6.925c120.791 0.827 218.391 98.938 218.391 219.845 0 0.362-0.001 0.724-0.003 1.085-0.626 96.233-62.042 178.016-147.766 208.887zM920.232 163.667c-14.377 0-26.032 11.655-26.032 26.032s11.655 26.032 26.032 26.032c102.746 0.73 185.756 84.191 185.756 187.040 0 0.282-0.001 0.563-0.002 0.845 0.002 0.224 0.003 0.541 0.003 0.858 0 5.396-0.277 10.726-0.816 15.979-0.936 10.987-2.884 21.686-5.742 32.007-2.701 10.258-6.268 20.13-10.612 29.571-4.334 9.387-9.399 18.331-15.132 26.786-2.423 3.664-5.459 7.876-8.684 11.937-12.843 16.358-27.955 30.201-45.013 41.307-5.268 3.282-9.632 5.938-14.375 8.329-12.781 6.948-27.591 12.632-43.182 16.286-7.801 1.788-13.295 5.662-16.907 10.929-2.791 4.216-4.419 9.282-4.419 14.729 0 1.113 0.068 2.21 0.2 3.287 2.487 14.539 4.45 32.376 5.435 50.473 0.054 9.469-0.515 17.741-1.274 25.919-1.714 17.391-5.062 33.312-9.942 48.547-16.289 51.615-49.384 95.694-92.858 125.868-37.952 26.262-83.986 41.64-133.612 41.64-0.068 0-0.135 0-0.203 0-95.976-0.621-178.463-57.782-215.871-139.823-3.062-7.004-7.228-11.384-12.419-14.045-2.118-1.115-4.407-1.931-6.82-2.395l-6.985-2.928-5.882-0.417-11.764-2.998-7.59 9.487c-6.683 8.289-14.894 15.052-24.245 19.931l-9.528 5.114c-16.54 11.398-36.522 18.998-58.114 21.115-0.592 0.041-0.682 0.041-0.772 0.041-39.83 0-75.829-16.408-101.604-42.833-6.465-6.48-12.275-13.561-17.355-21.171-2.975-4.302-5.442-8.439-7.719-12.556-4.067-7.439-7.74-16.119-10.543-25.181-1.539-4.736-2.785-9.424-3.748-14.214-1.998-9.597-3.101-19.76-3.165-30.17 0.029-16.721 2.804-32.734 7.898-47.674 0.507-1.364 0.978-4.138 0.978-7.021 0-0.975-0.054-1.938-0.159-2.886-0.262-3.475-1.284-6.775-2.898-9.703-3.405-6.353-9.339-11.128-16.452-12.984-82.69-20.548-142.87-93.979-142.87-181.466 0-0.481 0.002-0.962 0.005-1.442 0-100.355 79.879-176.118 185.754-176.118 14.377 0 26.032-11.655 26.032-26.032s-11.655-26.032-26.032-26.032c-0.402-0.002-0.878-0.004-1.354-0.004-33.368 0-65.248 6.367-94.493 17.953-47.79 18.965-87.686 54.052-112.851 98.568-7.226 12.866-13.151 26.507-17.627 40.789-4.609 14.595-7.882 29.984-9.614 45.837-0.854 8.965-1.234 17.048-1.234 25.112 0 0.124 0 0.271 0 0.418 0 26.242 4.164 51.511 11.868 75.183 7.466 23.039 18.363 44.567 32.083 63.957 2.915 4.112 6.52 8.95 10.315 13.599 11.521 14.050 24.221 26.406 38.171 37.226 9.374 7.323 19.3 13.925 29.723 19.741 10.504 5.83 21.576 10.943 33.054 15.223l1.7 0.556c-1.138 6.034-1.897 12.257-2.467 18.405s-0.949 12.485-0.949 18.746c-0.001 0.272-0.002 0.594-0.002 0.917 0 108.448 87.485 196.464 195.731 197.322 0.2 0.001 0.341 0.001 0.482 0.001 26.111 0 51.016-5.165 73.748-14.53 13.576-5.586 26.383-12.705 38.188-21.136l-0.58 0.394c51.115 85.675 143.32 142.166 248.719 142.166 159.417 0 288.649-129.233 288.649-288.649 0-1.433-0.010-2.863-0.031-4.29 0.002-4.357-0.377-10.239-0.946-17.278-0.379-6.242-1.138-12.712-1.897-18.613v0c94.82-34.113 161.502-123.043 162.036-227.621 0.002-0.411 0.003-0.819 0.003-1.228 0-131.308-105.995-237.86-237.090-238.761zM812.46 215.143h-64.132l38.327 34.836c3.148 2.752 5.126 6.776 5.126 11.261s-1.978 8.509-5.108 11.246c-3.17 4.095-8.064 6.698-13.567 6.698-3.997 0-7.674-1.373-10.584-3.674l-62.768-60.366h-79.69l136.043 133.595c3.077 2.789 5.001 6.8 5.001 11.261s-1.924 8.472-4.988 11.25c-3.246 2.862-7.518 4.603-12.197 4.603-5.192 0-9.883-2.143-13.237-5.593l-137.185-138.684v80.753l63.942 63.43c3.238 3.169 5.246 7.584 5.246 12.467 0 4.694-1.855 8.956-4.872 12.090-3.227 3.138-7.646 5.077-12.517 5.077s-9.29-1.939-12.527-5.087l-39.272-38.892v64.834c-0.995 9.632-9.067 17.079-18.879 17.079s-17.884-7.447-18.872-16.998l-0.007-64.877-35.481 38.858c-2.812 3.125-6.87 5.082-11.384 5.082s-8.573-1.956-11.372-5.068c-3.833-3.264-6.241-8.076-6.241-13.451 0-4.23 1.491-8.111 3.977-11.147l60.502-63.379v-80.734l-133.007 137.617c-2.844 3.134-6.933 5.093-11.479 5.093s-8.635-1.96-11.468-5.080c-2.834-2.422-4.612-5.983-4.612-9.96 0-4.316 2.095-8.143 5.323-10.52l136.838-133.62h-79.88l-62.614 59.369c-2.974 2.577-6.882 4.148-11.156 4.148-5.267 0-9.976-2.384-13.109-6.132-3.076-2.636-4.999-6.491-4.999-10.795s1.924-8.159 4.958-10.751l38.347-35.839h-63.942c-9.752-1.002-17.295-9.173-17.295-19.107s7.543-18.105 17.213-19.1l64.024-0.007-38.327-41.173c-3.105-3.368-5.009-7.884-5.009-12.845s1.904-9.478 5.021-12.858c3.051-3.276 7.319-5.408 12.084-5.677 4.98 0.856 9.199 3.425 12.162 7.058l62.642 65.458h79.88l-136.043-139.951c-3.17-3.337-5.119-7.858-5.119-12.836s1.95-9.499 5.127-12.844c3.004-3.354 7.302-5.511 12.106-5.683 0.062-0.001 0.1-0.001 0.138-0.001 3.79 0 7.14 1.883 9.165 4.765l133.030 137.368v-80.734l-59.768-63.411c-2.677-3.057-4.309-7.087-4.309-11.498 0-5.171 2.244-9.818 5.811-13.021 2.681-3.138 6.621-5.106 11.021-5.106s8.34 1.968 10.988 5.071l36.257 38.879v-64.834c0.995-9.632 9.067-17.079 18.879-17.079s17.884 7.447 18.872 16.998l0.007 64.934 39.655-38.877c3.21-3.146 7.611-5.087 12.465-5.087 0.087 0 0.174 0.001 0.26 0.002 0.059-0.001 0.144-0.002 0.229-0.002 9.337 0 16.906 7.569 16.906 16.906 0 5.059-2.223 9.6-5.745 12.698l-63.771 63.446v80.753l137.181-137.655c3.302-3.149 7.779-5.091 12.71-5.104 0.023 0 0.047 0 0.072 0 4.794 0 9.132 1.951 12.263 5.103 3.194 3.575 5.145 8.316 5.145 13.514 0 5.096-1.876 9.755-4.976 13.322l-135.832 139.926h79.69l62.803-65.706c2.987-3.494 7.26-5.813 12.078-6.219 0.315-0.018 0.607-0.026 0.9-0.026 4.326 0 8.25 1.724 11.122 4.522 3.176 3.492 5.122 8.158 5.122 13.278s-1.947 9.786-5.14 13.298l-38.313 40.854h64.132c9.855 0.905 17.514 9.13 17.514 19.145s-7.659 18.24-17.439 19.139z" />
<glyph unicode="&#xe90b;" glyph-name="D012" horiz-adv-x="1103" d="M870.794 224.020h-639.015c-126.425 0-221.735 89.502-221.735 208.167 0 0.014 0 0.030 0 0.046 0 94.857 60.592 175.563 145.183 205.524-0.58 10.637-1.797 22.33-1.823 34.302 1.714 100.236 83.357 180.82 183.822 180.82 38.816 0 74.822-12.029 104.494-32.563 48.036 78.699 133.574 130.054 231.107 130.054 0.090 0 0.181 0 0.271 0 0.404 0.002 0.898 0.004 1.393 0.004 147.887 0 267.918-119.261 269.164-266.854-0.327-12.066-1.318-23.444-2.944-34.616 88.877-27.587 151.781-109.658 151.781-206.422 0-120.667-97.82-218.486-218.486-218.486-1.129 0-2.257 0.009-3.382 0.026zM336.738 805.376c-0.485 0.006-1.059 0.010-1.633 0.010-73.705 0-133.455-59.75-133.455-133.455 0-15.144 2.522-29.699 7.17-43.268 0.538-1.371 1.010-4.036 1.010-6.81 0-4.159-1.061-8.070-2.927-11.477-3.31-5.633-8.807-9.837-15.326-11.439-77.009-17.871-133.412-85.713-133.486-166.742 0-91.617 74.634-160.678 173.686-160.678h639.015c0.748-0.012 1.63-0.018 2.514-0.018 94.521 0 171.146 76.625 171.146 171.146 0 81.88-57.5 150.331-134.324 167.175-11.949 2.585-19.924 12.086-19.924 23.45 0 1.284 0.102 2.545 0.298 3.774 2.295 13.145 4.053 29.142 4.867 45.387-1.857 122.606-100.905 220.482-222.813 220.482-88.993 0-165.804-52.158-201.531-127.573-3.875-8.364-10.274-13.443-17.956-14.86-1.455-0.272-2.958-0.414-4.495-0.414-6.579 0-12.548 2.613-16.926 6.857-24.341 23.78-57.679 38.454-94.445 38.454-0.164 0-0.328 0-0.491-0.001zM870.794 214.213h-639.015c-132.135 0-231.778 93.696-231.778 217.974 0.342 96.093 59.852 178.2 143.983 211.818 0.289 8.599-0.428 17.89-0.428 27.348 0 0.269 0.001 0.538 0.002 0.807 1.715 105.592 87.749 190.566 193.63 190.566 37.263 0 72.067-10.524 101.603-28.763 50.699 76.63 136.705 126.067 234.267 126.234 0.467 0.003 0.989 0.004 1.511 0.004 153.288 0 277.697-123.646 278.932-276.642-0.153-9.571-0.793-18.692-1.896-27.668 88.787-31.436 150.872-115.192 150.872-213.45 0-126.061-102.193-228.254-228.254-228.254-1.206 0-2.409 0.009-3.61 0.028zM336.738 843.067c-0.588 0.007-1.282 0.011-1.977 0.011-94.619 0-171.323-76.704-171.323-171.323 0-11.216 1.078-22.18 3.135-32.794l1.401-7.153-7.877-2.816c-82.106-29.321-139.872-106.273-140.209-196.764 0-113.134 90.978-198.402 211.889-198.402h639.015c0.832-0.012 1.815-0.019 2.8-0.019 115.283 0 208.738 93.455 208.738 208.738 0 92.356-59.979 170.703-143.11 198.213l-9.155 2.943 0.985 7.877c1.401 9.338 2.323 20.317 2.555 31.465-1.098 142.543-116.68 257.444-259.1 257.444-0.501 0-1.002-0.001-1.502-0.004-93.944-0.080-176.4-49.52-222.786-123.801l-6.158-10.087-8.665 5.908c-27.451 19.129-61.505 30.563-98.229 30.563-0.151 0-0.302 0-0.453-0.001zM870.794 261.711h-639.015c-104.763 0-183.729 73.295-183.729 170.476 0.202 85.645 59.799 157.312 139.772 176.005 5.205 1.173 8.482 3.658 10.444 7.007 1.082 2.041 1.696 4.381 1.696 6.864 0 1.574-0.247 3.091-0.703 4.513-4.838 13.405-7.651 28.993-7.651 45.239 0 0.093 0 0.186 0 0.279 1.31 79.296 65.91 143.086 145.409 143.086 39.516 0 75.351-15.761 101.562-41.339 2.596-2.458 6.152-3.988 10.064-3.988 0.887 0 1.755 0.079 2.599 0.229 4.496 0.785 8.248 3.756 10.116 7.779 37.995 80.259 118.24 134.723 211.205 134.723 127.358 0 230.842-102.217 232.89-229.087-0.943-18.076-2.77-34.597-5.475-50.82 0.251 1.949 0.189 1.202 0.189 0.44 0-6.65 4.669-12.209 10.907-13.579 82.273-18.236 142.82-90.49 142.82-176.886 0-99.937-81.015-180.953-180.953-180.953-0.754 0-1.508 0.005-2.26 0.014zM336.738 795.569c-0.229 0.002-0.5 0.002-0.772 0.002-68.4 0-123.915-55.171-124.471-123.44-0.001-0.141-0.001-0.246-0.001-0.35 0-13.995 2.38-27.433 6.757-39.934 0.855-2.365 1.497-6.067 1.497-9.919 0-5.936-1.526-11.515-4.207-16.367-4.663-8.005-12.471-13.965-21.733-16.182-72.623-16.944-125.742-80.866-125.871-157.217 0-86.011 70.498-150.877 163.84-150.877h639.015c0.682-0.010 1.487-0.016 2.293-0.016 89.116 0 161.359 72.243 161.359 161.359 0 77.164-54.164 141.677-126.546 157.594-16.366 3.567-27.643 17.008-27.643 33.082 0 1.787 0.139 3.541 0.408 5.252 2.304 12.699 4.062 28.172 4.862 43.898-1.813 117.109-96.444 210.597-212.91 210.597-85.024 0-158.411-49.823-192.557-121.867-6.139-13.015-17.894-20.971-31.506-20.971-9.251 0-17.644 3.675-23.798 9.644-22.581 22.083-53.525 35.714-87.653 35.714-0.128 0-0.255 0-0.383-0.001zM369.428 111.872l-51.003 50.412-51.003-50.412 51.003-50.412zM615.778 111.872l-51.003 50.412-51.2-50.412 51.2-50.412zM862.129 111.872l-51.2 50.412-51.003-50.412 51.003-50.412zM738.855-13.588l-51.003 50.412-51.003-50.412 51.003-50.412zM492.702-13.588l-51.2 50.412-51.003-50.412 51.003-50.412z" />
<glyph unicode="&#xe90c;" glyph-name="D013" horiz-adv-x="1489" d="M1489.455 521.123c-0.383 82.219-49.763 152.812-120.425 184.112-1.058 5.421-0.826 10.215-0.826 14.311 0 0.142 0 0.31 0 0.478 0 132.529-107.436 239.965-239.965 239.965-79.063 0-149.196-38.236-192.915-97.226-9.768 2.727-19.542 5.845-31.412 9.034-5.12 1.466-10.473 2.909-17.92 4.515-1.396 0.326-3.025 0.675-3.956 0.838-1.396 0.279-2.793 0.442-6.284 0.954-17.803 3.432-38.313 5.436-59.278 5.515-119.030-0.397-223.607-61.625-284.362-154.191-35.677 20.917-78.184 34.105-123.772 34.105-0.212 0-0.424 0-0.636-0.001-128.815-0.132-233.234-104.535-233.393-233.363 0-0.016 0-0.018 0-0.019 0-12.325 1.016-24.412 2.968-36.184-103.273-40.077-177.281-154.649-177.281-275.132-0.001-0.32-0.002-0.698-0.002-1.076 0-154.984 125.131-280.742 279.877-281.757h777.173c148.945 0.14 279.738 138.38 279.738 296.006 0 0.064 0 0.14 0 0.215 0 30.831-4.593 60.589-13.131 88.627 95.49 17.816 165.742 100.833 165.8 200.268zM1290.938 378.647c-44.684 62.161-90.764 102.912-137.542 121.297 1.396 12.753 2.327 28.742 2.327 38.772-0.263 117.383-59.057 220.978-148.735 283.178 28.417 35.884 72.408 58.057 121.577 58.057 88.391 0 160.047-71.655 160.047-160.047 0-0.184 0-0.367-0.001-0.551-0.655-13.002-1.985-25.092-3.98-36.956-0.054-0.026-0.232-2.179-0.232-4.374 0-18.865 13.103-34.669 30.705-38.809 55.458-17.527 94.759-68.283 94.759-128.219 0-0.228-0.001-0.456-0.002-0.684 0.008-0.49 0.012-1.11 0.012-1.73 0-67.991-52.018-123.832-118.427-129.898zM79.593 225.559c-0.001 0.29-0.002 0.634-0.002 0.977 0 95.061 64.663 175.019 152.404 198.287 12.741 3.944 21.846 11.701 27.149 21.773 3.236 5.991 5.070 12.832 5.070 20.102 0 4.775-0.791 9.365-2.25 13.646-4.922 14.502-7.817 31.548-7.825 49.27 0 0.13-0.001 0.281-0.001 0.431 0 84.831 68.769 153.6 153.6 153.6 42.105 0 80.254-16.942 108-44.38 7.092-7.078 16.902-11.463 27.735-11.463 2.615 0 5.17 0.255 7.642 0.743 12.806 2.402 23.447 10.954 28.74 22.473 29.643 63.814 82.072 112.581 146.543 136.64 28.138 10.489 58.572 16.219 90.343 16.219 18.754 0 37.041-1.996 54.661-5.788-0.071-0.066 1.791-0.554 3.653-1.066l3.956-1.047c113.926-29.184 196.839-130.811 197.12-251.849-1.050-20.606-3.127-39.656-6.223-58.361 0.097 1.331-0.080-0.546-0.080-2.464 0-0.383 0.007-0.764 0.021-1.143-0.005-0.15-0.007-0.392-0.007-0.634 0-20.008 13.596-36.84 32.053-41.761 42.739-9.28 78.62-32.706 103.561-65.008 13.332-16.371 25.092-34.326 34.882-53.456 10.998-25.557 16.93-53.302 16.93-82.431 0-112.62-88.656-204.533-199.984-209.756l-777.313-0.018c-1.184-0.026-2.58-0.040-3.98-0.040-108.468 0-196.399 87.931-196.399 196.399 0 0.039 0 0.077 0 0.116zM1288.844 355.328v0zM1056.815 5.818v0z" />
<glyph unicode="&#xe90d;" glyph-name="D999" horiz-adv-x="1214" d="M409.6 277.333h-141.084c-13.775 2.4-24.114 14.267-24.114 28.549s10.339 26.149 23.941 28.524l141.258 0.025c13.689-2.494 23.93-14.325 23.93-28.549s-10.242-26.055-23.753-28.522zM662.566 277.333h-141.274c-13.689 2.494-23.93 14.325-23.93 28.549s10.242 26.055 23.753 28.522l141.452 0.027c13.689-2.494 23.93-14.325 23.93-28.549s-10.242-26.055-23.753-28.522zM915.342 277.333h-141.084c-13.689 2.494-23.93 14.325-23.93 28.549s10.242 26.055 23.753 28.522l141.262 0.027c13.775-2.4 24.114-14.267 24.114-28.549s-10.339-26.149-23.941-28.524zM1168.308 277.333h-141.084c-13.775 2.4-24.114 14.267-24.114 28.549s10.339 26.149 23.941 28.524l141.258 0.025c13.689-2.494 23.93-14.325 23.93-28.549s-10.242-26.055-23.753-28.522z" />
<glyph unicode="&#xe90e;" glyph-name="home" horiz-adv-x="1092" d="M0 413.935h136.533v-477.935h273.067v204.8h273.067v-204.8h273.067v477.935h136.533l-546.133 546.065-546.133-546.065z" />
<glyph unicode="&#xe90f;" glyph-name="icon_hamberg" horiz-adv-x="1434" d="M1361.613-64h-1289.626c0 39.834-32.256 71.987-71.987 71.987v60.826c39.731 0 71.987 32.256 71.987 71.987h1289.626c0-39.731 32.256-71.987 71.987-71.987v-60.826c-39.731 0-71.987-32.154-71.987-71.987zM1361.613 345.6h-1289.626c0 39.731-32.256 71.987-71.987 71.987v60.826c39.731 0 71.987 32.256 71.987 71.987h1289.626c0-39.731 32.256-71.987 71.987-71.987v-60.826c-39.731 0-71.987-32.256-71.987-71.987zM1361.613 755.2h-1289.626c0 39.731-32.256 71.987-71.987 71.987v60.826c39.731 0 71.987 32.256 71.987 71.987h1289.626c0-39.731 32.256-71.987 71.987-71.987v-60.826c-39.731 0-71.987-32.256-71.987-71.987z" />
<glyph unicode="&#xe910;" glyph-name="icon_arrow_left_pager" horiz-adv-x="1071" d="M517.885-64l-517.885 506.115 517.885 517.885 82.391-82.391-435.494-435.494 435.494-423.724zM988.69-64l-517.885 506.115 517.885 517.885 82.391-82.391-435.494-435.494 435.494-423.724z" />
<glyph unicode="&#xe911;" glyph-name="icon_arrow_right_pager" horiz-adv-x="1073" d="M555.181-64l-86.361 86.361 431.807 431.807-431.807 419.47 86.361 86.361 518.169-505.831zM86.361-64l-86.361 86.361 419.47 431.807-419.47 419.47 86.361 86.361 505.831-505.831z" />
<glyph unicode="&#xe914;" glyph-name="icon_location_arrow" horiz-adv-x="564" d="M48.762-70.966l-48.762 55.728 459.755 459.755-459.755 459.755 48.762 55.728 515.483-515.483z" />
<glyph unicode="&#xe916;" glyph-name="icon_info" horiz-adv-x="954" d="M674.467 408.017c0-43.543-36.259-78.848-80.943-78.848-44.707 0-80.943 35.305-80.943 78.848 0 43.567 36.236 78.871 80.943 78.871 44.684 0 80.943-35.305 80.943-78.871zM188.812 408.017c0 43.567 36.236 78.871 80.943 78.871 44.684 0 80.943-35.305 80.943-78.871 0-43.543-36.259-78.848-80.943-78.848-44.707 0-80.943 35.305-80.943 78.848zM871.447 256.047c-21.132-103.773-94.604-209.571-98.234-214.737-1.955-2.769-4.561-5.073-7.61-6.656-2.816-1.466-62.604-31.884-189.952-39.936-19.223-34.49-63.441-58.671-115.014-58.671-69.283 0-125.393 43.473-125.393 97.117 0 53.62 56.111 97.117 125.393 97.117 67.165 0 121.53-41.053 124.719-92.486 89.903 7.145 140.777 25.647 155.392 31.884 13.335 20.015 65.28 101.19 85.341 180.643h-39.936c-16.105-11.055-33.047-19.456-49.385-23.459-11.869-41.379-33.117-79.569-63.255-113.757-9.705-11.055-26.74-12.335-38.051-2.839-11.311 9.472-12.614 26.065-2.886 37.073 28.509 32.349 47.337 68.841 55.971 108.428 2.63 12.148 13.638 20.829 26.391 20.829 11.311 0 26.019 6.47 40.471 16.477v167.517c-14.336 0-26.135 10.915-26.95 24.832-1.187 20.643-3.84 41.914-8.145 63.092-142.569 85.876-344.041-50.269-410.089 139.846-52.55-150.784-103.377-101.469-165.865-133.143-5.19-23.389-8.215-46.988-9.565-69.818-0.815-13.917-12.637-24.809-26.927-24.809-30.278 0-53.969-37.632-53.969-85.667 0-49.455 73.891-98.164 94.441-98.164 12.753 0 23.738-8.704 26.391-20.852 15.965-73.542 64.721-122.95 102.842-151.459 11.823-8.844 14.033-25.344 4.957-36.864-5.306-6.726-13.312-10.263-21.411-10.263-5.748 0-11.52 1.769-16.431 5.446-59.648 44.637-100.305 101.399-118.435 165.073-51.735 15.29-126.324 76.986-126.324 147.084 0 44.032 14.662 81.78 38.191 106.729-47.569 336.943 163.956 478.348 393.519 478.348 209.385 0 398.359-118.435 398.22-394.263h6.493c67.025 0 117.62-52.945 117.62-118.295v-78.848c0-53.178-33.839-97.676-82.525-112.547z" />
<glyph unicode="&#xe917;" glyph-name="icon_info_notice" horiz-adv-x="1302" d="M768.366 909.763c-78.719 33.202-164.328 49.803-256.882 49.803-92.499 0-178.108-16.601-256.827-49.803-78.719-33.148-140.837-78.339-186.354-135.466-45.571-57.181-68.303-119.408-68.303-186.734 0-57.67 17.198-111.921 51.593-162.755 34.396-50.888 81.594-93.747 141.651-128.631-4.828-11.61-9.765-22.297-14.865-31.954-5.1-9.711-11.176-19.042-18.174-27.994-7.053-8.952-12.478-15.95-16.33-21.050-3.906-5.1-10.199-12.261-18.934-21.429-8.68-9.223-14.268-15.245-16.71-18.174-0.488-0.488-1.411-1.573-2.875-3.255-1.465-1.736-2.55-2.93-3.255-3.635-0.76-0.76-1.736-1.953-2.93-3.635-1.194-1.736-2.062-3.038-2.55-4.015s-1.085-2.17-1.79-3.635c-0.76-1.465-1.248-2.875-1.465-4.34-0.271-1.465-0.38-3.038-0.38-4.72 0-1.736 0.271-3.309 0.76-4.72 0.922-6.293 3.743-11.393 8.355-15.299 4.557-3.852 9.548-5.805 14.865-5.805h2.17c24.25 3.418 45.083 7.27 62.498 11.664 74.596 19.368 141.922 50.346 201.979 92.987 43.618-7.758 86.206-11.61 127.871-11.61 92.553 0 178.162 16.547 256.882 49.749 78.719 33.148 140.837 78.339 186.354 135.521 45.517 57.127 68.303 119.408 68.303 186.734s-22.786 129.553-68.303 186.734c-45.517 57.127-107.635 102.319-186.354 135.466zM1247.517 568.683c-36.294 51.81-85.718 94.886-148.216 129.282 11.176-36.294 16.71-73.131 16.71-110.402 0-64.939-16.221-126.461-48.664-184.564s-78.936-109.48-139.481-154.020c-56.205-40.689-120.167-71.938-191.834-93.747-71.721-21.809-146.534-32.714-224.548-32.714-14.485 0-35.806 0.977-63.908 2.93 97.327-63.963 211.69-95.917 342.925-95.917 41.665 0 84.307 3.852 127.871 11.61 60.057-42.588 127.437-73.619 202.033-92.987 17.415-4.34 38.247-8.246 62.444-11.61 5.859-0.488 11.176 1.194 16.004 5.1 4.828 3.852 7.975 9.169 9.44 15.95 0.488 1.465 0.76 3.038 0.76 4.72 0 1.736-0.163 3.255-0.38 4.72-0.271 1.465-0.76 2.93-1.465 4.394-0.705 1.411-1.356 2.658-1.79 3.635-0.488 0.977-1.356 2.279-2.55 3.96-1.248 1.736-2.17 2.93-2.93 3.635-0.705 0.76-1.79 1.953-3.255 3.635-1.465 1.736-2.441 2.821-2.93 3.255-2.387 2.93-7.975 9.006-16.71 18.174-8.68 9.223-15.028 16.384-18.88 21.429-3.852 5.1-9.331 12.098-16.33 21.104-7.053 8.952-13.075 18.283-18.174 27.94-5.1 9.711-10.037 20.344-14.919 32.008 60.057 34.83 107.31 77.58 141.705 128.251 34.396 50.563 51.593 104.977 51.593 163.080 0 59.568-18.174 115.285-54.523 167.149z" />
<glyph unicode="&#xe918;" glyph-name="icon_info_notice_on" horiz-adv-x="1302" d="M768.366 909.763c-78.719 33.202-164.328 49.803-256.882 49.803-92.499 0-178.108-16.601-256.827-49.803-78.719-33.148-140.837-78.339-186.354-135.466-45.571-57.181-68.303-119.408-68.303-186.734 0-57.67 17.198-111.921 51.593-162.755 34.396-50.888 81.594-93.747 141.651-128.631-4.828-11.61-9.765-22.297-14.865-31.954-5.1-9.711-11.176-19.042-18.174-27.994-7.053-8.952-12.478-15.95-16.33-21.050-3.906-5.1-10.199-12.261-18.934-21.429-8.68-9.223-14.268-15.245-16.71-18.174-0.488-0.488-1.411-1.573-2.875-3.255-1.465-1.736-2.55-2.93-3.255-3.635-0.76-0.76-1.736-1.953-2.93-3.635-1.194-1.736-2.062-3.038-2.55-4.015s-1.085-2.17-1.79-3.635c-0.76-1.465-1.248-2.875-1.465-4.34-0.271-1.465-0.38-3.038-0.38-4.72 0-1.736 0.271-3.309 0.76-4.72 0.922-6.293 3.743-11.393 8.355-15.299 4.557-3.852 9.548-5.805 14.865-5.805h2.17c24.25 3.418 45.083 7.27 62.498 11.664 74.596 19.368 141.922 50.346 201.979 92.987 43.618-7.758 86.206-11.61 127.871-11.61 92.553 0 178.162 16.547 256.882 49.749 78.719 33.148 140.837 78.339 186.354 135.521 45.517 57.127 68.303 119.408 68.303 186.734s-22.786 129.553-68.303 186.734c-45.517 57.127-107.635 102.319-186.354 135.466zM1247.517 568.683c-36.294 51.81-85.718 94.886-148.216 129.282 11.176-36.294 16.71-73.131 16.71-110.402 0-64.939-16.221-126.461-48.664-184.564s-78.936-109.48-139.481-154.020c-56.205-40.689-120.167-71.938-191.834-93.747-71.721-21.809-146.534-32.714-224.548-32.714-14.485 0-35.806 0.977-63.908 2.93 97.327-63.963 211.69-95.917 342.925-95.917 41.665 0 84.307 3.852 127.871 11.61 60.057-42.588 127.437-73.619 202.033-92.987 17.415-4.34 38.247-8.246 62.444-11.61 5.859-0.488 11.176 1.194 16.004 5.1 4.828 3.852 7.975 9.169 9.44 15.95 0.488 1.465 0.76 3.038 0.76 4.72 0 1.736-0.163 3.255-0.38 4.72-0.271 1.465-0.76 2.93-1.465 4.394-0.705 1.411-1.356 2.658-1.79 3.635-0.488 0.977-1.356 2.279-2.55 3.96-1.248 1.736-2.17 2.93-2.93 3.635-0.705 0.76-1.79 1.953-3.255 3.635-1.465 1.736-2.441 2.821-2.93 3.255-2.387 2.93-7.975 9.006-16.71 18.174-8.68 9.223-15.028 16.384-18.88 21.429-3.852 5.1-9.331 12.098-16.33 21.104-7.053 8.952-13.075 18.283-18.174 27.94-5.1 9.711-10.037 20.344-14.919 32.008 60.057 34.83 107.31 77.58 141.705 128.251 34.396 50.563 51.593 104.977 51.593 163.080 0 59.568-18.174 115.285-54.523 167.149z" />
<glyph unicode="&#xe919;" glyph-name="icon_map" d="M787.69-64l-275.69 118.14-236.31-118.14-275.69 118.14v905.86l275.69-118.14 101.317 50.644c-18.578-31.305-30.515-66.853-33.792-104.975l-32.3-16.15c-11.059-5.53-23.142-8.309-35.226-8.309-10.533 0-21.124 2.136-31.042 6.407l-165.888 71.066v-351.759c48.128-1.434 131.189-14.424 196.93-80.165 110.914-6.203 88.883-112.318 157.55-150.967 40.638-22.879 57.373 1.96 78.76 1.96 85.168 0 192.922-32.944 225.894-216.561l47.25-20.246 160.095 80.048v729.673l-106.496-53.248c-1.463 27.911-7.431 54.652-17.408 79.404l202.664 101.317v-905.86l-236.31-118.14zM566.506 334.073c0 140.815-165.274 327.475-165.274 432.157 0 104.653 84.846 189.528 189.528 189.528 104.711 0 189.557-84.875 189.557-189.528 0-96.139-165.274-291.84-165.274-432.157h-48.538zM674.085 766.23c0 45.992-37.303 83.295-83.324 83.295-45.992 0-83.295-37.303-83.295-83.295s37.303-83.295 83.295-83.295c46.021 0 83.324 37.303 83.324 83.295z" />
<glyph unicode="&#xe91a;" glyph-name="icon_new_notice" horiz-adv-x="1200" d="M540.462 872.353c-9.147 9.093-19.961 13.666-32.444 13.666s-23.297-4.573-32.444-13.666l-239.966-239.966h-188.799c-12.483 0-23.297-4.573-32.39-13.666-9.147-9.147-13.72-19.961-13.72-32.444v-276.715c0-12.483 4.573-23.297 13.72-32.444 9.093-9.093 19.908-13.666 32.39-13.666h188.799l239.966-239.966c9.147-9.147 19.961-13.666 32.444-13.666s23.297 4.52 32.444 13.666c9.093 9.147 13.666 19.908 13.666 32.444v783.98c0 12.483-4.573 23.297-13.666 32.444zM719.146 617.268c-4.789 2.367-10.815 3.605-18.024 3.605-12.483 0-23.297-4.466-32.444-13.343-9.093-8.878-13.666-19.8-13.666-32.767 0-10.115 2.905-18.67 8.662-25.611s12.698-12.967 20.876-18.024c8.178-5.004 16.356-10.546 24.481-16.572 8.178-5.972 15.173-14.527 20.93-25.557 5.757-11.084 8.662-24.75 8.662-41.106 0-16.303-2.905-30.023-8.662-41.053s-12.752-19.585-20.93-25.557c-8.124-6.026-16.303-11.568-24.481-16.572-8.178-5.058-15.119-11.084-20.876-18.024-5.757-6.995-8.662-15.496-8.662-25.611 0-12.967 4.573-23.889 13.666-32.767 9.147-8.878 19.961-13.343 32.444-13.343 7.21 0 13.236 1.184 18.024 3.605 33.628 13.451 60.637 35.941 81.083 67.363 20.392 31.475 30.615 65.48 30.615 101.959 0 36.533-10.223 70.645-30.615 102.335-20.446 31.744-47.455 54.073-81.083 67.040v0zM791.943 787.289c-6.295 2.421-12.536 3.605-18.778 3.605-12.483 0-23.297-4.573-32.39-13.666-9.147-9.147-13.72-19.961-13.72-32.444 0-18.724 9.362-32.874 28.14-42.505 26.902-13.935 45.142-24.481 54.719-31.691 35.565-25.934 63.327-58.485 83.235-97.654 19.961-39.169 29.915-80.814 29.915-125.041 0-44.173-9.954-85.871-29.915-124.987-19.908-39.169-47.67-71.721-83.235-97.654-9.577-7.21-27.817-17.755-54.719-31.691-18.778-9.631-28.14-23.781-28.14-42.505 0-12.536 4.573-23.351 13.72-32.444 9.093-9.147 20.177-13.72 33.143-13.72 5.757 0 11.729 1.237 18.024 3.605 67.255 28.355 121.274 73.658 162.112 135.855s61.229 130.045 61.229 203.541c0 73.496-20.392 141.397-61.229 203.595s-94.857 107.501-162.112 135.802v0zM864.686 956.664c-6.241 2.367-12.483 3.605-18.724 3.605-12.483 0-23.297-4.573-32.444-13.72-9.093-9.093-13.666-19.908-13.666-32.39 0-17.325 9.362-31.475 28.086-42.559 3.39-1.883 8.77-4.412 16.249-7.533 7.425-3.121 12.805-5.649 16.195-7.586 22.113-11.998 41.806-24.266 59.077-36.748 59.077-43.689 105.241-98.246 138.384-163.565s49.715-134.779 49.715-208.276c0-73.496-16.572-142.904-49.715-208.222s-79.307-119.876-138.384-163.565c-17.271-12.536-36.963-24.75-59.077-36.748-3.39-1.937-8.77-4.466-16.195-7.586-7.479-3.121-12.859-5.649-16.249-7.586-18.724-11.030-28.086-25.18-28.086-42.505 0-12.483 4.573-23.297 13.666-32.39 9.147-9.147 19.961-13.72 32.444-13.72 6.241 0 12.483 1.184 18.724 3.605 101.367 43.743 182.557 111.805 243.571 204.294s91.521 193.964 91.521 304.424c0 110.514-30.507 211.988-91.521 304.478s-142.204 160.551-243.571 204.294v0z" />
<glyph unicode="&#xe91b;" glyph-name="icon_new_notice_on" horiz-adv-x="1200" d="M540.462 872.353c-9.147 9.093-19.961 13.666-32.444 13.666s-23.297-4.573-32.444-13.666l-239.966-239.966h-188.799c-12.483 0-23.297-4.573-32.39-13.666-9.147-9.147-13.72-19.961-13.72-32.444v-276.715c0-12.483 4.573-23.297 13.72-32.444 9.093-9.093 19.908-13.666 32.39-13.666h188.799l239.966-239.966c9.147-9.147 19.961-13.666 32.444-13.666s23.297 4.52 32.444 13.666c9.093 9.147 13.666 19.908 13.666 32.444v783.98c0 12.483-4.573 23.297-13.666 32.444zM719.146 617.268c-4.789 2.367-10.815 3.605-18.024 3.605-12.483 0-23.297-4.466-32.444-13.343-9.093-8.878-13.666-19.8-13.666-32.767 0-10.115 2.905-18.67 8.662-25.611s12.698-12.967 20.876-18.024c8.178-5.004 16.356-10.546 24.481-16.572 8.178-5.972 15.173-14.527 20.93-25.557 5.757-11.084 8.662-24.75 8.662-41.106 0-16.303-2.905-30.023-8.662-41.053s-12.752-19.585-20.93-25.557c-8.124-6.026-16.303-11.568-24.481-16.572-8.178-5.058-15.119-11.084-20.876-18.024-5.757-6.995-8.662-15.496-8.662-25.611 0-12.967 4.573-23.889 13.666-32.767 9.147-8.878 19.961-13.343 32.444-13.343 7.21 0 13.236 1.184 18.024 3.605 33.628 13.451 60.637 35.941 81.083 67.363 20.392 31.475 30.615 65.48 30.615 101.959 0 36.533-10.223 70.645-30.615 102.335-20.446 31.744-47.455 54.073-81.083 67.040v0zM791.943 787.289c-6.295 2.421-12.536 3.605-18.778 3.605-12.483 0-23.297-4.573-32.39-13.666-9.147-9.147-13.72-19.961-13.72-32.444 0-18.724 9.362-32.874 28.14-42.505 26.902-13.935 45.142-24.481 54.719-31.691 35.565-25.934 63.327-58.485 83.235-97.654 19.961-39.169 29.915-80.814 29.915-125.041 0-44.173-9.954-85.871-29.915-124.987-19.908-39.169-47.67-71.721-83.235-97.654-9.577-7.21-27.817-17.755-54.719-31.691-18.778-9.631-28.14-23.781-28.14-42.505 0-12.536 4.573-23.351 13.72-32.444 9.093-9.147 20.177-13.72 33.143-13.72 5.757 0 11.729 1.237 18.024 3.605 67.255 28.355 121.274 73.658 162.112 135.855s61.229 130.045 61.229 203.541c0 73.496-20.392 141.397-61.229 203.595s-94.857 107.501-162.112 135.802v0zM864.686 956.664c-6.241 2.367-12.483 3.605-18.724 3.605-12.483 0-23.297-4.573-32.444-13.72-9.093-9.093-13.666-19.908-13.666-32.39 0-17.325 9.362-31.475 28.086-42.559 3.39-1.883 8.77-4.412 16.249-7.533 7.425-3.121 12.805-5.649 16.195-7.586 22.113-11.998 41.806-24.266 59.077-36.748 59.077-43.689 105.241-98.246 138.384-163.565s49.715-134.779 49.715-208.276c0-73.496-16.572-142.904-49.715-208.222s-79.307-119.876-138.384-163.565c-17.271-12.536-36.963-24.75-59.077-36.748-3.39-1.937-8.77-4.466-16.195-7.586-7.479-3.121-12.859-5.649-16.249-7.586-18.724-11.030-28.086-25.18-28.086-42.505 0-12.483 4.573-23.297 13.666-32.39 9.147-9.147 19.961-13.72 32.444-13.72 6.241 0 12.483 1.184 18.724 3.605 101.367 43.743 182.557 111.805 243.571 204.294s91.521 193.964 91.521 304.424c0 110.514-30.507 211.988-91.521 304.478s-142.204 160.551-243.571 204.294v0z" />
<glyph unicode="&#xe91c;" glyph-name="icon_search" horiz-adv-x="1022" d="M731.077 316.226h-46.46l-16.15 16.033c57.051 66.531 91.692 152.722 91.692 247.223 0 210.066-170.277 380.401-380.284 380.401-210.066 0-380.343-170.335-380.343-380.401 0-210.008 170.277-380.284 380.343-380.284 94.442 0 180.692 34.64 247.223 91.633l16.15-16.091v-46.343l292.454-292.045 87.245 87.303-291.869 292.571zM379.875 316.226c-145.467 0-263.314 117.848-263.314 263.256 0 145.467 117.848 263.314 263.314 263.314 145.408 0 263.256-117.848 263.256-263.314 0-145.408-117.848-263.256-263.256-263.256z" />
<glyph unicode="&#xe91d;" glyph-name="icon_w_emoticon_0" d="M512 879.405c238.051-0.274 430.923-193.316 430.923-431.405 0-238.258-193.147-431.405-431.405-431.405s-431.405 193.147-431.405 431.405c0 0 0 0 0 0 0.206 238.303 193.436 431.405 431.766 431.405 0.042 0 0.085 0 0.127 0zM512 959.217c-0.125 0-0.273 0-0.422 0-282.337 0-511.217-228.88-511.217-511.217s228.88-511.217 511.217-511.217c282.337 0 511.216 228.879 511.217 511.216 0 282.19-228.64 510.978-510.773 511.218h-0.023zM790.889 527.812c0-24.937-75.294 0-119.266 0s-80.113-28.070-80.113 0c5.724 41.673 38.399 74.246 79.637 79.76 51.907-6.316 95.15-36.515 119.332-78.978zM232.508 527.812c0-24.937 75.896 0 119.868 0s79.511-28.070 79.511 0c-5.439 41.607-37.944 74.215-79.036 79.759-52.072-6.333-95.488-36.508-119.932-78.984zM784.866 368.188c0-150.866-122.301-273.167-273.167-273.167s-273.167 122.301-273.167 273.167c81.389-29.277 175.301-46.202 273.167-46.202s191.778 16.925 278.971 48.007z" />
<glyph unicode="&#xe91e;" glyph-name="icon_w_emoticon_1" horiz-adv-x="1026" d="M512.966 880.279c238.5-0.275 431.736-193.68 431.736-432.218 0-238.708-193.511-432.219-432.219-432.219s-432.219 193.511-432.219 432.219c0 0 0 0 0 0 0.206 238.752 193.8 432.219 432.581 432.219 0.042 0 0.085 0 0.127 0zM512.966 960.241c-0.125 0-0.274 0-0.422 0-282.87 0-512.181-229.311-512.181-512.181s229.311-512.181 512.181-512.181c282.869 0 512.181 229.311 512.181 512.18-0.034 282.708-229.084 511.907-511.732 512.182h-0.026zM512.966 231.106c-0.143 0-0.312 0-0.482 0-108.647 0-209.090 35.124-290.593 94.636 66.17-92.66 171.716-151.802 291.075-151.802s224.905 59.142 288.932 149.72c-79.559-57.353-180.136-92.455-288.908-92.554zM432.702 528.023c0-44.162-35.801-79.962-79.962-79.962s-79.962 35.8-79.962 79.962c0 44.162 35.8 79.962 79.962 79.962 0.106 0 0.212 0 0.318-0.001 43.994-0.069 79.644-35.761 79.644-79.781 0-0.064 0-0.127 0-0.191zM752.551 528.023c0-44.162-35.801-79.962-79.962-79.962s-79.962 35.8-79.962 79.962c0 44.162 35.8 79.962 79.962 79.962 0.106 0 0.212 0 0.318-0.001 43.994-0.069 79.644-35.761 79.644-79.781 0-0.064 0-0.127 0-0.191z" />
<glyph unicode="&#xe91f;" glyph-name="icon_w_emoticon_2" d="M512.332 880.404c0.054 0 0.117 0 0.181 0 238.727 0 432.254-193.527 432.254-432.254s-193.527-432.254-432.254-432.254c-238.727 0-432.254 193.527-432.254 432.254 0.171 238.594 193.492 431.979 432.046 432.254zM512.332 960.302c-282.775-0.103-511.97-229.362-511.97-512.151 0-282.853 229.298-512.151 512.151-512.151s512.151 229.298 512.151 512.151c0 282.853-229.298 512.151-512.151 512.151-0.064 0-0.128 0-0.191 0h0.010zM512.332 267.779c0.050 0 0.11 0 0.169 0 108.743 0 209.283-35.12 290.897-94.635-66.175 92.659-171.714 151.798-291.066 151.798s-224.892-59.138-288.915-149.711c79.463 57.429 180.003 92.548 288.745 92.548 0.060 0 0.119 0 0.179 0zM432.676 528.108c0-44.159-35.798-79.957-79.958-79.957s-79.958 35.798-79.958 79.958c0 44.053 35.626 79.786 79.639 79.957 44.223-0.034 80.070-35.775 80.276-79.938zM752.506 528.108c0-44.159-35.798-79.957-79.958-79.957s-79.958 35.798-79.958 79.958c0 44.053 35.626 79.786 79.639 79.957 44.223-0.034 80.070-35.775 80.276-79.938z" />
<glyph unicode="&#xe920;" glyph-name="icon_w_emoticon_3" d="M512.362 880.4c0.054 0 0.117 0 0.181 0 238.741 0 432.279-193.538 432.279-432.279s-193.538-432.279-432.279-432.279c-238.741 0-432.279 193.538-432.279 432.279 0.172 238.608 193.503 432.004 432.071 432.279zM512.362 960.302c-282.792-0.103-512-229.375-512-512.181 0-282.87 229.311-512.181 512.181-512.181s512.181 229.311 512.181 512.181c0 282.87-229.311 512.181-512.181 512.181-0.064 0-0.128 0-0.191 0h0.010zM412.183 531.825h-57.331v57.452c0.077 0.738 0.121 1.595 0.121 2.462 0 13.899-11.267 25.165-25.165 25.165s-25.165-11.267-25.165-25.165c0-0.867 0.044-1.724 0.129-2.568l-0.009-57.346h-57.331c-0.737 0.077-1.593 0.121-2.459 0.121-13.865 0-25.105-11.24-25.105-25.105s11.24-25.105 25.105-25.105c0.866 0 1.722 0.044 2.565 0.129l57.225-0.009v-57.452c-0.077-0.738-0.121-1.595-0.121-2.462 0-13.899 11.267-25.165 25.165-25.165s25.165 11.267 25.165 25.165c0 0.867-0.044 1.724-0.129 2.568l0.009 57.346h57.331c0.737-0.077 1.593-0.121 2.459-0.121 13.865 0 25.105 11.24 25.105 25.105s-11.24 25.105-25.105 25.105c-0.866 0-1.722-0.044-2.565-0.129zM762.206 531.825h-57.331v57.452c0.035 0.506 0.056 1.098 0.056 1.693 0 14.115-11.322 25.585-25.38 25.825-13.8-0.286-24.859-11.522-24.859-25.341 0-0.767 0.034-1.525 0.101-2.275l-0.007-57.355h-57.331c-0.737 0.077-1.593 0.121-2.459 0.121-13.865 0-25.105-11.24-25.105-25.105s11.24-25.105 25.105-25.105c0.866 0 1.722 0.044 2.565 0.129l57.225-0.009v-57.452c-0.060-0.652-0.094-1.41-0.094-2.177 0-13.807 11.066-25.030 24.813-25.282 14.097 0.206 25.426 11.663 25.426 25.766 0 0.595-0.020 1.186-0.060 1.772l0.004 57.373h57.331c0.52-0.038 1.126-0.060 1.738-0.060 13.832 0 25.045 11.213 25.045 25.045s-11.213 25.045-25.045 25.045c-0.611 0-1.218-0.022-1.818-0.065zM710.91 232.011h-362.697c-13.799 0-24.984 11.186-24.984 24.984s11.186 24.984 24.984 24.984h362.697c13.799 0 24.984-11.186 24.984-24.984s-11.186-24.984-24.984-24.984z" />
<glyph unicode="&#xe921;" glyph-name="icon_water" horiz-adv-x="866" d="M833.332 728.917h-46.642v-601.461c0-97.83-47.194-145.103-86.768-167.544-41.413-23.439-81.906-24.149-86.505-24.149h-339.897c-0.079 0-0.263 0-0.526 0-7.673 0-85.638 1.393-140.478 55.13-34.686 34.003-52.266 80.303-52.266 137.667v600.357h-46.642c-18.42 0-33.346 14.794-33.346 33.057 0 18.236 14.926 33.031 33.346 33.031h79.962c18.42 0 33.32-14.794 33.32-33.031v-633.414c0-38.838 10.8-69.241 32.111-90.289 36.42-36.052 93.468-36.42 94.283-36.42h340.133c10.721 0.158 106.633 4.94 106.633 125.605v634.518c0 18.236 14.899 33.031 33.32 33.031h79.962c18.42 0 33.346-14.794 33.346-33.031 0-18.263-14.926-33.057-33.346-33.057zM428.845 524.060c-74.181 1.918-132.569 63.039-130.598 136.537 1.892 73.366 103.822 237.126 143.29 299.666 72.184-121.086 131.754-241.909 124.738-306.84-7.857-72.893-63.565-131.308-137.43-129.363zM193.559 233.196h279.906c14.715 0 26.645-11.825 26.645-26.435s-11.93-26.435-26.645-26.435h-279.906c-14.742 0-26.671 11.825-26.671 26.435s11.93 26.435 26.671 26.435zM500.11 325.745c0-14.636-11.93-26.461-26.645-26.461h-279.906c-14.742 0-26.671 11.825-26.671 26.461 0 14.61 11.93 26.435 26.671 26.435h279.906c14.715 0 26.645-11.825 26.645-26.435z" />
<glyph unicode="&#xe922;" glyph-name="bul_00" d="M1024-64h-1024v1024h1024v-1024zM236.308 172.308h551.385v551.385h-551.385v-551.385z" />
=======
<glyph unicode="&#xe900;" glyph-name="icon_hamberg" horiz-adv-x="1434" d="M1361.613-64h-1289.626c0 39.834-32.256 71.987-71.987 71.987v60.826c39.731 0 71.987 32.256 71.987 71.987h1289.626c0-39.731 32.256-71.987 71.987-71.987v-60.826c-39.731 0-71.987-32.154-71.987-71.987zM1361.613 345.6h-1289.626c0 39.731-32.256 71.987-71.987 71.987v60.826c39.731 0 71.987 32.256 71.987 71.987h1289.626c0-39.731 32.256-71.987 71.987-71.987v-60.826c-39.731 0-71.987-32.256-71.987-71.987zM1361.613 755.2h-1289.626c0 39.731-32.256 71.987-71.987 71.987v60.826c39.731 0 71.987 32.256 71.987 71.987h1289.626c0-39.731 32.256-71.987 71.987-71.987v-60.826c-39.731 0-71.987-32.256-71.987-71.987z" />
<glyph unicode="&#xe901;" glyph-name="icon_info_notice" horiz-adv-x="1302" d="M768.366 909.763c-78.719 33.202-164.328 49.803-256.882 49.803-92.499 0-178.108-16.601-256.827-49.803-78.719-33.148-140.837-78.339-186.354-135.466-45.571-57.181-68.303-119.408-68.303-186.734 0-57.67 17.198-111.921 51.593-162.755 34.396-50.888 81.594-93.747 141.651-128.631-4.828-11.61-9.765-22.297-14.865-31.954-5.1-9.711-11.176-19.042-18.174-27.994-7.053-8.952-12.478-15.95-16.33-21.050-3.906-5.1-10.199-12.261-18.934-21.429-8.68-9.223-14.268-15.245-16.71-18.174-0.488-0.488-1.411-1.573-2.875-3.255-1.465-1.736-2.55-2.93-3.255-3.635-0.76-0.76-1.736-1.953-2.93-3.635-1.194-1.736-2.062-3.038-2.55-4.015s-1.085-2.17-1.79-3.635c-0.76-1.465-1.248-2.875-1.465-4.34-0.271-1.465-0.38-3.038-0.38-4.72 0-1.736 0.271-3.309 0.76-4.72 0.922-6.293 3.743-11.393 8.355-15.299 4.557-3.852 9.548-5.805 14.865-5.805h2.17c24.25 3.418 45.083 7.27 62.498 11.664 74.596 19.368 141.922 50.346 201.979 92.987 43.618-7.758 86.206-11.61 127.871-11.61 92.553 0 178.162 16.547 256.882 49.749 78.719 33.148 140.837 78.339 186.354 135.521 45.517 57.127 68.303 119.408 68.303 186.734s-22.786 129.553-68.303 186.734c-45.517 57.127-107.635 102.319-186.354 135.466zM1247.517 568.683c-36.294 51.81-85.718 94.886-148.216 129.282 11.176-36.294 16.71-73.131 16.71-110.402 0-64.939-16.221-126.461-48.664-184.564s-78.936-109.48-139.481-154.020c-56.205-40.689-120.167-71.938-191.834-93.747-71.721-21.809-146.534-32.714-224.548-32.714-14.485 0-35.806 0.977-63.908 2.93 97.327-63.963 211.69-95.917 342.925-95.917 41.665 0 84.307 3.852 127.871 11.61 60.057-42.588 127.437-73.619 202.033-92.987 17.415-4.34 38.247-8.246 62.444-11.61 5.859-0.488 11.176 1.194 16.004 5.1 4.828 3.852 7.975 9.169 9.44 15.95 0.488 1.465 0.76 3.038 0.76 4.72 0 1.736-0.163 3.255-0.38 4.72-0.271 1.465-0.76 2.93-1.465 4.394-0.705 1.411-1.356 2.658-1.79 3.635-0.488 0.977-1.356 2.279-2.55 3.96-1.248 1.736-2.17 2.93-2.93 3.635-0.705 0.76-1.79 1.953-3.255 3.635-1.465 1.736-2.441 2.821-2.93 3.255-2.387 2.93-7.975 9.006-16.71 18.174-8.68 9.223-15.028 16.384-18.88 21.429-3.852 5.1-9.331 12.098-16.33 21.104-7.053 8.952-13.075 18.283-18.174 27.94-5.1 9.711-10.037 20.344-14.919 32.008 60.057 34.83 107.31 77.58 141.705 128.251 34.396 50.563 51.593 104.977 51.593 163.080 0 59.568-18.174 115.285-54.523 167.149z" />
<glyph unicode="&#xe902;" glyph-name="icon_new_notice" horiz-adv-x="1200" d="M540.462 872.353c-9.147 9.093-19.961 13.666-32.444 13.666s-23.297-4.573-32.444-13.666l-239.966-239.966h-188.799c-12.483 0-23.297-4.573-32.39-13.666-9.147-9.147-13.72-19.961-13.72-32.444v-276.715c0-12.483 4.573-23.297 13.72-32.444 9.093-9.093 19.908-13.666 32.39-13.666h188.799l239.966-239.966c9.147-9.147 19.961-13.666 32.444-13.666s23.297 4.52 32.444 13.666c9.093 9.147 13.666 19.908 13.666 32.444v783.98c0 12.483-4.573 23.297-13.666 32.444zM719.146 617.268c-4.789 2.367-10.815 3.605-18.024 3.605-12.483 0-23.297-4.466-32.444-13.343-9.093-8.878-13.666-19.8-13.666-32.767 0-10.115 2.905-18.67 8.662-25.611s12.698-12.967 20.876-18.024c8.178-5.004 16.356-10.546 24.481-16.572 8.178-5.972 15.173-14.527 20.93-25.557 5.757-11.084 8.662-24.75 8.662-41.106 0-16.303-2.905-30.023-8.662-41.053s-12.752-19.585-20.93-25.557c-8.124-6.026-16.303-11.568-24.481-16.572-8.178-5.058-15.119-11.084-20.876-18.024-5.757-6.995-8.662-15.496-8.662-25.611 0-12.967 4.573-23.889 13.666-32.767 9.147-8.878 19.961-13.343 32.444-13.343 7.21 0 13.236 1.184 18.024 3.605 33.628 13.451 60.637 35.941 81.083 67.363 20.392 31.475 30.615 65.48 30.615 101.959 0 36.533-10.223 70.645-30.615 102.335-20.446 31.744-47.455 54.073-81.083 67.040v0zM791.943 787.289c-6.295 2.421-12.536 3.605-18.778 3.605-12.483 0-23.297-4.573-32.39-13.666-9.147-9.147-13.72-19.961-13.72-32.444 0-18.724 9.362-32.874 28.14-42.505 26.902-13.935 45.142-24.481 54.719-31.691 35.565-25.934 63.327-58.485 83.235-97.654 19.961-39.169 29.915-80.814 29.915-125.041 0-44.173-9.954-85.871-29.915-124.987-19.908-39.169-47.67-71.721-83.235-97.654-9.577-7.21-27.817-17.755-54.719-31.691-18.778-9.631-28.14-23.781-28.14-42.505 0-12.536 4.573-23.351 13.72-32.444 9.093-9.147 20.177-13.72 33.143-13.72 5.757 0 11.729 1.237 18.024 3.605 67.255 28.355 121.274 73.658 162.112 135.855s61.229 130.045 61.229 203.541c0 73.496-20.392 141.397-61.229 203.595s-94.857 107.501-162.112 135.802v0zM864.686 956.664c-6.241 2.367-12.483 3.605-18.724 3.605-12.483 0-23.297-4.573-32.444-13.72-9.093-9.093-13.666-19.908-13.666-32.39 0-17.325 9.362-31.475 28.086-42.559 3.39-1.883 8.77-4.412 16.249-7.533 7.425-3.121 12.805-5.649 16.195-7.586 22.113-11.998 41.806-24.266 59.077-36.748 59.077-43.689 105.241-98.246 138.384-163.565s49.715-134.779 49.715-208.276c0-73.496-16.572-142.904-49.715-208.222s-79.307-119.876-138.384-163.565c-17.271-12.536-36.963-24.75-59.077-36.748-3.39-1.937-8.77-4.466-16.195-7.586-7.479-3.121-12.859-5.649-16.249-7.586-18.724-11.030-28.086-25.18-28.086-42.505 0-12.483 4.573-23.297 13.666-32.39 9.147-9.147 19.961-13.72 32.444-13.72 6.241 0 12.483 1.184 18.724 3.605 101.367 43.743 182.557 111.805 243.571 204.294s91.521 193.964 91.521 304.424c0 110.514-30.507 211.988-91.521 304.478s-142.204 160.551-243.571 204.294v0z" />
<glyph unicode="&#xe903;" glyph-name="bul_00" d="M1024-64h-1024v1024h1024v-1024zM236.308 172.308h551.385v551.385h-551.385v-551.385z" />
<glyph unicode="&#xe904;" glyph-name="home" horiz-adv-x="1092" d="M0 413.935h136.533v-477.935h273.067v204.8h273.067v-204.8h273.067v477.935h136.533l-546.133 546.065-546.133-546.065z" />
<glyph unicode="&#xe905;" glyph-name="icon_arrow_left_pager" horiz-adv-x="1071" d="M517.885-64l-517.885 506.115 517.885 517.885 82.391-82.391-435.494-435.494 435.494-423.724zM988.69-64l-517.885 506.115 517.885 517.885 82.391-82.391-435.494-435.494 435.494-423.724z" />
<glyph unicode="&#xe906;" glyph-name="icon_arrow_right_pager" horiz-adv-x="1073" d="M555.181-64l-86.361 86.361 431.807 431.807-431.807 419.47 86.361 86.361 518.169-505.831zM86.361-64l-86.361 86.361 419.47 431.807-419.47 419.47 86.361 86.361 505.831-505.831z" />
<glyph unicode="&#xe907;" glyph-name="icon_location_arrow" horiz-adv-x="564" d="M48.762-70.966l-48.762 55.728 459.755 459.755-459.755 459.755 48.762 55.728 515.483-515.483z" />
<glyph unicode="&#xe908;" glyph-name="icon_minus" d="M0 541.091h1024v-186.182h-1024v186.182z" />
<glyph unicode="&#xe909;" glyph-name="icon_plus" d="M409.6 960h204.8v-1024h-204.8v1024zM0 550.4h1024v-204.8h-1024v204.8z" />
>>>>>>> origin/master
</font>
</defs>
</svg>
