<svg xmlns="http://www.w3.org/2000/svg" xmlns:xlink="http://www.w3.org/1999/xlink" height="35" width="35" preserveAspectRatio="xMidYMid" viewBox="0 0 35 35"><defs><style>.cls-1 {        fill: #fff;        fill-rule: evenodd;      }</style></defs><path d="m26.923 35l-1.382-0.592-8.041-3.446-8.077 4.038-9.423-4.038v-30.962l9.423 4.038 3.463-1.731c-0.635 1.07-1.043 2.285-1.155 3.588l-1.104 0.552c-0.378 0.189-0.791 0.284-1.204 0.284-0.36 0-0.722-0.073-1.061-0.219l-5.67-2.429v12.023c1.645 0.049 4.484 0.493 6.731 2.74 3.791 0.212 3.038 3.839 5.385 5.16 1.389 0.782 1.961-0.067 2.692-0.067 2.911 0 6.594 1.126 7.721 7.402l1.615 0.692 5.472-2.736v-24.94l-3.64 1.82c-0.05-0.954-0.254-1.868-0.595-2.714l6.927-3.463v30.962l-8.077 4.038zm-7.56-13.606c0-4.813-5.649-11.193-5.649-14.771 0-3.577 2.9-6.478 6.478-6.478 3.579 0 6.479 2.901 6.479 6.478 0 3.286-5.649 9.975-5.649 14.771h-1.659zm3.677-14.771c0-1.572-1.275-2.847-2.848-2.847-1.572 0-2.847 1.275-2.847 2.847s1.275 2.847 2.847 2.847c1.573 0 2.848-1.275 2.848-2.847z" class="cls-1"/></svg>