<svg xmlns="http://www.w3.org/2000/svg" xmlns:xlink="http://www.w3.org/1999/xlink" height="20" width="20" preserveAspectRatio="xMidYMid" viewBox="0 0 20 20"><defs><style>.cls-1 {        fill: #2460ce;        fill-rule: evenodd;      }</style></defs><path d="m10.003 20.011c-5.52 0-9.994-4.481-9.994-10.008 0-5.528 4.474-10.009 9.994-10.009 5.519 0 9.993 4.481 9.993 10.009 0 5.527-4.474 10.008-9.993 10.008zm0-18.455c-4.65 0-8.434 3.789-8.434 8.447 0 4.657 3.784 8.446 8.434 8.446s8.434-3.789 8.434-8.446c0-4.658-3.784-8.447-8.434-8.447zm3.12 6.884c-0.861 0-1.56 0.55-1.56 0 0-0.549 0.699-1.562 1.56-1.562 0.86 0 2.34 1.074 2.34 1.562s-1.48 0-2.34 0zm-3.12 8.469c-3.541 0-5.337-2.824-5.337-5.344 0 0 1.717 0.905 5.337 0.905 3.619 0 5.336-0.905 5.336-0.905 0 2.52-1.796 5.344-5.336 5.344zm-3.12-8.469c-0.861 0-2.34 0.488-2.34 0s1.479-1.562 2.34-1.562 1.56 1.013 1.56 1.562c0 0.55-0.699 0-1.56 0z" class="cls-1"/></svg>