<svg xmlns="http://www.w3.org/2000/svg" xmlns:xlink="http://www.w3.org/1999/xlink" height="10" width="14" preserveAspectRatio="xMidYMid" viewBox="0 0 14 10"><defs><style>.cls-1 {        fill: #444;        fill-rule: evenodd;      }</style></defs><path d="m13.297 10h-12.594c0-0.389-0.315-0.703-0.703-0.703v-0.594c0.388 0 0.703-0.315 0.703-0.703h12.594c0 0.388 0.315 0.703 0.703 0.703v0.594c-0.388 0-0.703 0.314-0.703 0.703zm0-4h-12.594c0-0.388-0.315-0.703-0.703-0.703v-0.594c0.388 0 0.703-0.315 0.703-0.703h12.594c0 0.388 0.315 0.703 0.703 0.703v0.594c-0.388 0-0.703 0.315-0.703 0.703zm0-4h-12.594c0-0.388-0.315-0.703-0.703-0.703v-0.594c0.388 0 0.703-0.315 0.703-0.703h12.594c0 0.388 0.315 0.703 0.703 0.703v0.594c-0.388 0-0.703 0.315-0.703 0.703z" class="cls-1"/></svg>