<svg xmlns="http://www.w3.org/2000/svg" xmlns:xlink="http://www.w3.org/1999/xlink" height="19" width="22" preserveAspectRatio="xMidYMid" viewBox="0 0 22.312 19.032"><defs><style>.cls-1 {        fill: #008488;        fill-rule: evenodd;      }</style></defs><path d="m10.045 1.629c-0.17-0.169-0.371-0.254-0.603-0.254s-0.433 0.085-0.603 0.254l-4.46 4.46h-3.509c-0.232 0-0.433 0.085-0.602 0.254-0.17 0.17-0.255 0.371-0.255 0.603v5.143c0 0.232 0.085 0.433 0.255 0.603 0.169 0.169 0.37 0.254 0.602 0.254h3.509l4.46 4.46c0.17 0.17 0.371 0.254 0.603 0.254s0.433-0.084 0.603-0.254c0.169-0.17 0.254-0.37 0.254-0.603v-14.571c0-0.232-0.085-0.433-0.254-0.603zm3.321 4.741c-0.089-0.044-0.201-0.067-0.335-0.067-0.232 0-0.433 0.083-0.603 0.248-0.169 0.165-0.254 0.368-0.254 0.609 0 0.188 0.054 0.347 0.161 0.476s0.236 0.241 0.388 0.335c0.152 0.093 0.304 0.196 0.455 0.308 0.152 0.111 0.282 0.27 0.389 0.475 0.107 0.206 0.161 0.46 0.161 0.764 0 0.303-0.054 0.558-0.161 0.763s-0.237 0.364-0.389 0.475c-0.151 0.112-0.303 0.215-0.455 0.308-0.152 0.094-0.281 0.206-0.388 0.335-0.107 0.13-0.161 0.288-0.161 0.476 0 0.241 0.085 0.444 0.254 0.609 0.17 0.165 0.371 0.248 0.603 0.248 0.134 0 0.246-0.022 0.335-0.067 0.625-0.25 1.127-0.668 1.507-1.252 0.379-0.585 0.569-1.217 0.569-1.895 0-0.679-0.19-1.313-0.569-1.902-0.38-0.59-0.882-1.005-1.507-1.246zm1.353-3.16c-0.117-0.045-0.233-0.067-0.349-0.067-0.232 0-0.433 0.085-0.602 0.254-0.17 0.17-0.255 0.371-0.255 0.603 0 0.348 0.174 0.611 0.523 0.79 0.5 0.259 0.839 0.455 1.017 0.589 0.661 0.482 1.177 1.087 1.547 1.815 0.371 0.728 0.556 1.502 0.556 2.324 0 0.821-0.185 1.596-0.556 2.323-0.37 0.728-0.886 1.333-1.547 1.815-0.178 0.134-0.517 0.33-1.017 0.589-0.349 0.179-0.523 0.442-0.523 0.79 0 0.233 0.085 0.434 0.255 0.603 0.169 0.17 0.375 0.255 0.616 0.255 0.107 0 0.218-0.023 0.335-0.067 1.25-0.527 2.254-1.369 3.013-2.525s1.138-2.417 1.138-3.783-0.379-2.628-1.138-3.784-1.763-1.998-3.013-2.524zm1.352-3.148c-0.116-0.044-0.232-0.067-0.348-0.067-0.232 0-0.433 0.085-0.603 0.255-0.169 0.169-0.254 0.37-0.254 0.602 0 0.322 0.174 0.585 0.522 0.791 0.063 0.035 0.163 0.082 0.302 0.14 0.138 0.058 0.238 0.105 0.301 0.141 0.411 0.223 0.777 0.451 1.098 0.683 1.098 0.812 1.956 1.826 2.572 3.04s0.924 2.505 0.924 3.871-0.308 2.656-0.924 3.87-1.474 2.228-2.572 3.04c-0.321 0.233-0.687 0.46-1.098 0.683-0.063 0.036-0.163 0.083-0.301 0.141-0.139 0.058-0.239 0.105-0.302 0.141-0.348 0.205-0.522 0.468-0.522 0.79 0 0.232 0.085 0.433 0.254 0.602 0.17 0.17 0.371 0.255 0.603 0.255 0.116 0 0.232-0.022 0.348-0.067 1.884-0.813 3.393-2.078 4.527-3.797s1.701-3.605 1.701-5.658c0-2.054-0.567-3.94-1.701-5.659s-2.643-2.984-4.527-3.797z" class="cls-1"/></svg>