<svg xmlns="http://www.w3.org/2000/svg" xmlns:xlink="http://www.w3.org/1999/xlink" height="20" width="20" preserveAspectRatio="xMidYMid" viewBox="0 0 20 20"><defs><style>.cls-1 {        fill: #5bac12;        fill-rule: evenodd;      }</style></defs><path d="m10.002 20.01c-5.52 0-9.994-4.481-9.994-10.008 0-5.528 4.474-10.009 9.994-10.009 5.519 0 9.993 4.481 9.993 10.009 0 5.527-4.474 10.008-9.993 10.008zm0-18.455c-4.651 0-8.434 3.789-8.434 8.447 0 4.657 3.783 8.446 8.434 8.446 4.65 0 8.433-3.789 8.433-8.446 0-4.658-3.783-8.447-8.433-8.447zm0 13.802c-2.339 0-4.402-1.166-5.652-2.946 1.593 1.147 3.54 1.83 5.652 1.83 2.111 0 4.059-0.683 5.652-1.83-1.25 1.78-3.314 2.946-5.652 2.946zm3.12-5.355c-0.861 0-1.56-0.7-1.56-1.563s0.699-1.562 1.56-1.562c0.86 0 1.56 0.699 1.56 1.562s-0.7 1.563-1.56 1.563zm-6.24 0c-0.861 0-1.56-0.7-1.56-1.563s0.699-1.562 1.56-1.562c0.86 0 1.56 0.699 1.56 1.562s-0.7 1.563-1.56 1.563z" class="cls-1"/></svg>