<svg xmlns="http://www.w3.org/2000/svg" xmlns:xlink="http://www.w3.org/1999/xlink" height="19" width="24" preserveAspectRatio="xMidYMid" viewBox="0 0 24 18.875"><defs><style>.cls-1 {        fill: #008488;        fill-rule: evenodd;      }</style></defs><path d="m14.163 0.926c-1.451-0.612-3.029-0.918-4.735-0.918-1.705 0-3.283 0.306-4.734 0.918-1.451 0.611-2.596 1.444-3.435 2.497-0.84 1.054-1.259 2.201-1.259 3.442 0 1.063 0.317 2.063 0.951 3 0.634 0.938 1.504 1.728 2.611 2.371-0.089 0.214-0.18 0.411-0.274 0.589-0.094 0.179-0.206 0.351-0.335 0.516-0.13 0.165-0.23 0.294-0.301 0.388-0.072 0.094-0.188 0.226-0.349 0.395-0.16 0.17-0.263 0.281-0.308 0.335-0.009 0.009-0.026 0.029-0.053 0.06-0.027 0.032-0.047 0.054-0.06 0.067-0.014 0.014-0.032 0.036-0.054 0.067-0.022 0.032-0.038 0.056-0.047 0.074s-0.02 0.04-0.033 0.067c-0.014 0.027-0.023 0.053-0.027 0.08-0.005 0.027-0.007 0.056-0.007 0.087 0 0.032 0.005 0.061 0.014 0.087 0.017 0.116 0.069 0.21 0.154 0.282 0.084 0.071 0.176 0.107 0.274 0.107h0.04c0.447-0.063 0.831-0.134 1.152-0.215 1.375-0.357 2.616-0.928 3.723-1.714 0.804 0.143 1.589 0.214 2.357 0.214 1.706 0 3.284-0.305 4.735-0.917 1.451-0.611 2.596-1.444 3.435-2.498 0.839-1.053 1.259-2.201 1.259-3.442s-0.42-2.388-1.259-3.442c-0.839-1.053-1.984-1.886-3.435-2.497zm8.832 6.287c-0.669-0.955-1.58-1.749-2.732-2.383 0.206 0.669 0.308 1.348 0.308 2.035 0 1.197-0.299 2.331-0.897 3.402s-1.455 2.018-2.571 2.839c-1.036 0.75-2.215 1.326-3.536 1.728-1.322 0.402-2.701 0.603-4.139 0.603-0.267 0-0.66-0.018-1.178-0.054 1.794 1.179 3.902 1.768 6.321 1.768 0.768 0 1.554-0.071 2.357-0.214 1.107 0.785 2.349 1.357 3.724 1.714 0.321 0.08 0.705 0.152 1.151 0.214 0.108 0.009 0.206-0.022 0.295-0.094 0.089-0.071 0.147-0.169 0.174-0.294 0.009-0.027 0.014-0.056 0.014-0.087 0-0.032-0.003-0.06-0.007-0.087-0.005-0.027-0.014-0.054-0.027-0.081-0.013-0.026-0.025-0.049-0.033-0.067-0.009-0.018-0.025-0.042-0.047-0.073-0.023-0.032-0.04-0.054-0.054-0.067-0.013-0.014-0.033-0.036-0.06-0.067-0.027-0.032-0.045-0.052-0.054-0.06-0.044-0.054-0.147-0.166-0.308-0.335-0.16-0.17-0.277-0.302-0.348-0.395-0.071-0.094-0.172-0.223-0.301-0.389-0.13-0.165-0.241-0.337-0.335-0.515-0.094-0.179-0.185-0.375-0.275-0.59 1.107-0.642 1.978-1.43 2.612-2.364 0.634-0.932 0.951-1.935 0.951-3.006 0-1.098-0.335-2.125-1.005-3.081z" class="cls-1"/></svg>