<?xml version="1.0"?>
<!--Icons from directory ""-->
<svg xmlns="http://www.w3.org/2000/svg" width="193" height="384" viewBox="0 0 193 384"><svg xmlns:xlink="http://www.w3.org/1999/xlink" height="20" width="12" preserveAspectRatio="xMidYMid" viewBox="0 0 10 17" id="icon_chevron_left" y="0"><defs><style>.cls-1 {        stroke: #1b1b1b;        stroke-width: 3px;        fill: none;        fill-rule: evenodd;      }</style></defs><path d="m12.75 3.62l-7 7 7 7" class="cls-1"/></svg><svg xmlns:xlink="http://www.w3.org/1999/xlink" height="20" width="12" preserveAspectRatio="xMidYMid" viewBox="0 0 9.844 16.82" id="icon_chevron_right" y="20"><defs><style>.cls-1 {        stroke: #1b1b1b;        stroke-width: 3px;        fill: none;        fill-rule: evenodd;      }</style></defs><path d="m1.5 17.437l6.849-6.907-6.849-6.907" class="cls-1"/></svg><svg xmlns:xlink="http://www.w3.org/1999/xlink" height="10" width="14" preserveAspectRatio="xMidYMid" viewBox="0 0 14 10" id="icon_hamberg" y="40"><defs><style>.cls-1 {        fill: #444;        fill-rule: evenodd;      }</style></defs><path d="m13.297 10h-12.594c0-0.389-0.315-0.703-0.703-0.703v-0.594c0.388 0 0.703-0.315 0.703-0.703h12.594c0 0.388 0.315 0.703 0.703 0.703v0.594c-0.388 0-0.703 0.314-0.703 0.703zm0-4h-12.594c0-0.388-0.315-0.703-0.703-0.703v-0.594c0.388 0 0.703-0.315 0.703-0.703h12.594c0 0.388 0.315 0.703 0.703 0.703v0.594c-0.388 0-0.703 0.315-0.703 0.703zm0-4h-12.594c0-0.388-0.315-0.703-0.703-0.703v-0.594c0.388 0 0.703-0.315 0.703-0.703h12.594c0 0.388 0.315 0.703 0.703 0.703v0.594c-0.388 0-0.703 0.315-0.703 0.703z" class="cls-1"/></svg><svg xmlns:xlink="http://www.w3.org/1999/xlink" height="44" width="41" preserveAspectRatio="xMidYMid" viewBox="0 0 41 44" id="icon_info" y="50"><defs><style>.cls-1 {        fill: #8897aa;        fill-rule: evenodd;      }</style></defs><path d="m28.981 23.718c0 1.871-1.558 3.388-3.478 3.388-1.921 0-3.478-1.517-3.478-3.388 0-1.872 1.557-3.389 3.478-3.389 1.92 0 3.478 1.517 3.478 3.389zm-20.868 0c0-1.872 1.557-3.389 3.478-3.389 1.92 0 3.478 1.517 3.478 3.389 0 1.871-1.558 3.388-3.478 3.388-1.921 0-3.478-1.517-3.478-3.388zm29.332 6.53c-0.908 4.459-4.065 9.005-4.221 9.227-0.084 0.119-0.196 0.218-0.327 0.286-0.121 0.063-2.69 1.37-8.162 1.716-0.826 1.482-2.726 2.521-4.942 2.521-2.977 0-5.388-1.868-5.388-4.173 0-2.304 2.411-4.173 5.388-4.173 2.886 0 5.222 1.764 5.359 3.974 3.863-0.307 6.049-1.102 6.677-1.37 0.573-0.86 2.805-4.348 3.667-7.762h-1.716c-0.692 0.475-1.42 0.836-2.122 1.008-0.51 1.778-1.423 3.419-2.718 4.888-0.417 0.475-1.149 0.53-1.635 0.122-0.486-0.407-0.542-1.12-0.124-1.593 1.225-1.39 2.034-2.958 2.405-4.659 0.113-0.522 0.586-0.895 1.134-0.895 0.486 0 1.118-0.278 1.739-0.708v-6.633-0.565c-0.616 0-1.123-0.469-1.158-1.067-0.051-0.887-0.165-1.801-0.35-2.711-6.126-3.69-14.783 2.16-17.621-6.009-2.258 6.479-4.442 4.36-7.127 5.721-0.223 1.005-0.353 2.019-0.411 3-0.035 0.598-0.543 1.066-1.157 1.066-1.301 0-2.319 1.617-2.319 3.681 0 2.125 3.175 4.218 4.058 4.218 0.548 0 1.02 0.374 1.134 0.896 0.686 3.16 2.781 5.283 4.419 6.508 0.508 0.38 0.603 1.089 0.213 1.584-0.228 0.289-0.572 0.441-0.92 0.441-0.247 0-0.495-0.076-0.706-0.234-2.563-1.918-4.31-4.357-5.089-7.093-2.223-0.657-5.428-3.308-5.428-6.32 0-1.892 0.63-3.514 1.641-4.586-2.044-14.478 7.045-20.554 16.909-20.554 8.997 0 17.117 5.089 17.111 16.941h0.279c2.88 0 5.054 2.275 5.054 5.083v3.388c0 2.285-1.454 4.197-3.546 4.836z" class="cls-1"/></svg><svg xmlns:xlink="http://www.w3.org/1999/xlink" height="19" width="24" preserveAspectRatio="xMidYMid" viewBox="0 0 24 18.875" id="icon_info_notice" y="94"><defs><style>.cls-1 {        fill: #8897aa;        fill-rule: evenodd;      }</style></defs><path d="m14.163 0.926c-1.451-0.612-3.029-0.918-4.735-0.918-1.705 0-3.283 0.306-4.734 0.918-1.451 0.611-2.596 1.444-3.435 2.497-0.84 1.054-1.259 2.201-1.259 3.442 0 1.063 0.317 2.063 0.951 3 0.634 0.938 1.504 1.728 2.611 2.371-0.089 0.214-0.18 0.411-0.274 0.589-0.094 0.179-0.206 0.351-0.335 0.516-0.13 0.165-0.23 0.294-0.301 0.388-0.072 0.094-0.188 0.226-0.349 0.395-0.16 0.17-0.263 0.281-0.308 0.335-0.009 0.009-0.026 0.029-0.053 0.06-0.027 0.032-0.047 0.054-0.06 0.067-0.014 0.014-0.032 0.036-0.054 0.067-0.022 0.032-0.038 0.056-0.047 0.074s-0.02 0.04-0.033 0.067c-0.014 0.027-0.023 0.053-0.027 0.08-0.005 0.027-0.007 0.056-0.007 0.087 0 0.032 0.005 0.061 0.014 0.087 0.017 0.116 0.069 0.21 0.154 0.282 0.084 0.071 0.176 0.107 0.274 0.107h0.04c0.447-0.063 0.831-0.134 1.152-0.215 1.375-0.357 2.616-0.928 3.723-1.714 0.804 0.143 1.589 0.214 2.357 0.214 1.706 0 3.284-0.305 4.735-0.917 1.451-0.611 2.596-1.444 3.435-2.498 0.839-1.053 1.259-2.201 1.259-3.442s-0.42-2.388-1.259-3.442c-0.839-1.053-1.984-1.886-3.435-2.497zm8.832 6.287c-0.669-0.955-1.58-1.749-2.732-2.383 0.206 0.669 0.308 1.348 0.308 2.035 0 1.197-0.299 2.331-0.897 3.402s-1.455 2.018-2.571 2.839c-1.036 0.75-2.215 1.326-3.536 1.728-1.322 0.402-2.701 0.603-4.139 0.603-0.267 0-0.66-0.018-1.178-0.054 1.794 1.179 3.902 1.768 6.321 1.768 0.768 0 1.554-0.071 2.357-0.214 1.107 0.785 2.349 1.357 3.724 1.714 0.321 0.08 0.705 0.152 1.151 0.214 0.108 0.009 0.206-0.022 0.295-0.094 0.089-0.071 0.147-0.169 0.174-0.294 0.009-0.027 0.014-0.056 0.014-0.087 0-0.032-0.003-0.06-0.007-0.087-0.005-0.027-0.014-0.054-0.027-0.081-0.013-0.026-0.025-0.049-0.033-0.067-0.009-0.018-0.025-0.042-0.047-0.073-0.023-0.032-0.04-0.054-0.054-0.067-0.013-0.014-0.033-0.036-0.06-0.067-0.027-0.032-0.045-0.052-0.054-0.06-0.044-0.054-0.147-0.166-0.308-0.335-0.16-0.17-0.277-0.302-0.348-0.395-0.071-0.094-0.172-0.223-0.301-0.389-0.13-0.165-0.241-0.337-0.335-0.515-0.094-0.179-0.185-0.375-0.275-0.59 1.107-0.642 1.978-1.43 2.612-2.364 0.634-0.932 0.951-1.935 0.951-3.006 0-1.098-0.335-2.125-1.005-3.081z" class="cls-1"/></svg><svg xmlns:xlink="http://www.w3.org/1999/xlink" height="19" width="24" preserveAspectRatio="xMidYMid" viewBox="0 0 24 18.875" id="icon_info_notice_on" y="113"><defs><style>.cls-1 {        fill: #008488;        fill-rule: evenodd;      }</style></defs><path d="m14.163 0.926c-1.451-0.612-3.029-0.918-4.735-0.918-1.705 0-3.283 0.306-4.734 0.918-1.451 0.611-2.596 1.444-3.435 2.497-0.84 1.054-1.259 2.201-1.259 3.442 0 1.063 0.317 2.063 0.951 3 0.634 0.938 1.504 1.728 2.611 2.371-0.089 0.214-0.18 0.411-0.274 0.589-0.094 0.179-0.206 0.351-0.335 0.516-0.13 0.165-0.23 0.294-0.301 0.388-0.072 0.094-0.188 0.226-0.349 0.395-0.16 0.17-0.263 0.281-0.308 0.335-0.009 0.009-0.026 0.029-0.053 0.06-0.027 0.032-0.047 0.054-0.06 0.067-0.014 0.014-0.032 0.036-0.054 0.067-0.022 0.032-0.038 0.056-0.047 0.074s-0.02 0.04-0.033 0.067c-0.014 0.027-0.023 0.053-0.027 0.08-0.005 0.027-0.007 0.056-0.007 0.087 0 0.032 0.005 0.061 0.014 0.087 0.017 0.116 0.069 0.21 0.154 0.282 0.084 0.071 0.176 0.107 0.274 0.107h0.04c0.447-0.063 0.831-0.134 1.152-0.215 1.375-0.357 2.616-0.928 3.723-1.714 0.804 0.143 1.589 0.214 2.357 0.214 1.706 0 3.284-0.305 4.735-0.917 1.451-0.611 2.596-1.444 3.435-2.498 0.839-1.053 1.259-2.201 1.259-3.442s-0.42-2.388-1.259-3.442c-0.839-1.053-1.984-1.886-3.435-2.497zm8.832 6.287c-0.669-0.955-1.58-1.749-2.732-2.383 0.206 0.669 0.308 1.348 0.308 2.035 0 1.197-0.299 2.331-0.897 3.402s-1.455 2.018-2.571 2.839c-1.036 0.75-2.215 1.326-3.536 1.728-1.322 0.402-2.701 0.603-4.139 0.603-0.267 0-0.66-0.018-1.178-0.054 1.794 1.179 3.902 1.768 6.321 1.768 0.768 0 1.554-0.071 2.357-0.214 1.107 0.785 2.349 1.357 3.724 1.714 0.321 0.08 0.705 0.152 1.151 0.214 0.108 0.009 0.206-0.022 0.295-0.094 0.089-0.071 0.147-0.169 0.174-0.294 0.009-0.027 0.014-0.056 0.014-0.087 0-0.032-0.003-0.06-0.007-0.087-0.005-0.027-0.014-0.054-0.027-0.081-0.013-0.026-0.025-0.049-0.033-0.067-0.009-0.018-0.025-0.042-0.047-0.073-0.023-0.032-0.04-0.054-0.054-0.067-0.013-0.014-0.033-0.036-0.06-0.067-0.027-0.032-0.045-0.052-0.054-0.06-0.044-0.054-0.147-0.166-0.308-0.335-0.16-0.17-0.277-0.302-0.348-0.395-0.071-0.094-0.172-0.223-0.301-0.389-0.13-0.165-0.241-0.337-0.335-0.515-0.094-0.179-0.185-0.375-0.275-0.59 1.107-0.642 1.978-1.43 2.612-2.364 0.634-0.932 0.951-1.935 0.951-3.006 0-1.098-0.335-2.125-1.005-3.081z" class="cls-1"/></svg><svg xmlns:xlink="http://www.w3.org/1999/xlink" height="35" width="35" preserveAspectRatio="xMidYMid" viewBox="0 0 35 35" id="icon_map" y="132"><defs><style>.cls-1 {        fill: #fff;        fill-rule: evenodd;      }</style></defs><path d="m26.923 35l-1.382-0.592-8.041-3.446-8.077 4.038-9.423-4.038v-30.962l9.423 4.038 3.463-1.731c-0.635 1.07-1.043 2.285-1.155 3.588l-1.104 0.552c-0.378 0.189-0.791 0.284-1.204 0.284-0.36 0-0.722-0.073-1.061-0.219l-5.67-2.429v12.023c1.645 0.049 4.484 0.493 6.731 2.74 3.791 0.212 3.038 3.839 5.385 5.16 1.389 0.782 1.961-0.067 2.692-0.067 2.911 0 6.594 1.126 7.721 7.402l1.615 0.692 5.472-2.736v-24.94l-3.64 1.82c-0.05-0.954-0.254-1.868-0.595-2.714l6.927-3.463v30.962l-8.077 4.038zm-7.56-13.606c0-4.813-5.649-11.193-5.649-14.771 0-3.577 2.9-6.478 6.478-6.478 3.579 0 6.479 2.901 6.479 6.478 0 3.286-5.649 9.975-5.649 14.771h-1.659zm3.677-14.771c0-1.572-1.275-2.847-2.848-2.847-1.572 0-2.847 1.275-2.847 2.847s1.275 2.847 2.847 2.847c1.573 0 2.848-1.275 2.848-2.847z" class="cls-1"/></svg><svg xmlns:xlink="http://www.w3.org/1999/xlink" height="19" width="22" preserveAspectRatio="xMidYMid" viewBox="0 0 22.312 19.032" id="icon_new_notice" y="167"><defs><style>.cls-1 {        fill: #8897aa;        fill-rule: evenodd;      }</style></defs><path d="m10.045 1.629c-0.17-0.169-0.371-0.254-0.603-0.254s-0.433 0.085-0.603 0.254l-4.46 4.46h-3.509c-0.232 0-0.433 0.085-0.602 0.254-0.17 0.17-0.255 0.371-0.255 0.603v5.143c0 0.232 0.085 0.433 0.255 0.603 0.169 0.169 0.37 0.254 0.602 0.254h3.509l4.46 4.46c0.17 0.17 0.371 0.254 0.603 0.254s0.433-0.084 0.603-0.254c0.169-0.17 0.254-0.37 0.254-0.603v-14.571c0-0.232-0.085-0.433-0.254-0.603zm3.321 4.741c-0.089-0.044-0.201-0.067-0.335-0.067-0.232 0-0.433 0.083-0.603 0.248-0.169 0.165-0.254 0.368-0.254 0.609 0 0.188 0.054 0.347 0.161 0.476s0.236 0.241 0.388 0.335c0.152 0.093 0.304 0.196 0.455 0.308 0.152 0.111 0.282 0.27 0.389 0.475 0.107 0.206 0.161 0.46 0.161 0.764 0 0.303-0.054 0.558-0.161 0.763s-0.237 0.364-0.389 0.475c-0.151 0.112-0.303 0.215-0.455 0.308-0.152 0.094-0.281 0.206-0.388 0.335-0.107 0.13-0.161 0.288-0.161 0.476 0 0.241 0.085 0.444 0.254 0.609 0.17 0.165 0.371 0.248 0.603 0.248 0.134 0 0.246-0.022 0.335-0.067 0.625-0.25 1.127-0.668 1.507-1.252 0.379-0.585 0.569-1.217 0.569-1.895 0-0.679-0.19-1.313-0.569-1.902-0.38-0.59-0.882-1.005-1.507-1.246zm1.353-3.16c-0.117-0.045-0.233-0.067-0.349-0.067-0.232 0-0.433 0.085-0.602 0.254-0.17 0.17-0.255 0.371-0.255 0.603 0 0.348 0.174 0.611 0.523 0.79 0.5 0.259 0.839 0.455 1.017 0.589 0.661 0.482 1.177 1.087 1.547 1.815 0.371 0.728 0.556 1.502 0.556 2.324 0 0.821-0.185 1.596-0.556 2.323-0.37 0.728-0.886 1.333-1.547 1.815-0.178 0.134-0.517 0.33-1.017 0.589-0.349 0.179-0.523 0.442-0.523 0.79 0 0.233 0.085 0.434 0.255 0.603 0.169 0.17 0.375 0.255 0.616 0.255 0.107 0 0.218-0.023 0.335-0.067 1.25-0.527 2.254-1.369 3.013-2.525s1.138-2.417 1.138-3.783-0.379-2.628-1.138-3.784-1.763-1.998-3.013-2.524zm1.352-3.148c-0.116-0.044-0.232-0.067-0.348-0.067-0.232 0-0.433 0.085-0.603 0.255-0.169 0.169-0.254 0.37-0.254 0.602 0 0.322 0.174 0.585 0.522 0.791 0.063 0.035 0.163 0.082 0.302 0.14 0.138 0.058 0.238 0.105 0.301 0.141 0.411 0.223 0.777 0.451 1.098 0.683 1.098 0.812 1.956 1.826 2.572 3.04s0.924 2.505 0.924 3.871-0.308 2.656-0.924 3.87-1.474 2.228-2.572 3.04c-0.321 0.233-0.687 0.46-1.098 0.683-0.063 0.036-0.163 0.083-0.301 0.141-0.139 0.058-0.239 0.105-0.302 0.141-0.348 0.205-0.522 0.468-0.522 0.79 0 0.232 0.085 0.433 0.254 0.602 0.17 0.17 0.371 0.255 0.603 0.255 0.116 0 0.232-0.022 0.348-0.067 1.884-0.813 3.393-2.078 4.527-3.797s1.701-3.605 1.701-5.658c0-2.054-0.567-3.94-1.701-5.659s-2.643-2.984-4.527-3.797z" class="cls-1"/></svg><svg xmlns:xlink="http://www.w3.org/1999/xlink" height="19" width="22" preserveAspectRatio="xMidYMid" viewBox="0 0 22.312 19.032" id="icon_new_notice_on" y="186"><defs><style>.cls-1 {        fill: #008488;        fill-rule: evenodd;      }</style></defs><path d="m10.045 1.629c-0.17-0.169-0.371-0.254-0.603-0.254s-0.433 0.085-0.603 0.254l-4.46 4.46h-3.509c-0.232 0-0.433 0.085-0.602 0.254-0.17 0.17-0.255 0.371-0.255 0.603v5.143c0 0.232 0.085 0.433 0.255 0.603 0.169 0.169 0.37 0.254 0.602 0.254h3.509l4.46 4.46c0.17 0.17 0.371 0.254 0.603 0.254s0.433-0.084 0.603-0.254c0.169-0.17 0.254-0.37 0.254-0.603v-14.571c0-0.232-0.085-0.433-0.254-0.603zm3.321 4.741c-0.089-0.044-0.201-0.067-0.335-0.067-0.232 0-0.433 0.083-0.603 0.248-0.169 0.165-0.254 0.368-0.254 0.609 0 0.188 0.054 0.347 0.161 0.476s0.236 0.241 0.388 0.335c0.152 0.093 0.304 0.196 0.455 0.308 0.152 0.111 0.282 0.27 0.389 0.475 0.107 0.206 0.161 0.46 0.161 0.764 0 0.303-0.054 0.558-0.161 0.763s-0.237 0.364-0.389 0.475c-0.151 0.112-0.303 0.215-0.455 0.308-0.152 0.094-0.281 0.206-0.388 0.335-0.107 0.13-0.161 0.288-0.161 0.476 0 0.241 0.085 0.444 0.254 0.609 0.17 0.165 0.371 0.248 0.603 0.248 0.134 0 0.246-0.022 0.335-0.067 0.625-0.25 1.127-0.668 1.507-1.252 0.379-0.585 0.569-1.217 0.569-1.895 0-0.679-0.19-1.313-0.569-1.902-0.38-0.59-0.882-1.005-1.507-1.246zm1.353-3.16c-0.117-0.045-0.233-0.067-0.349-0.067-0.232 0-0.433 0.085-0.602 0.254-0.17 0.17-0.255 0.371-0.255 0.603 0 0.348 0.174 0.611 0.523 0.79 0.5 0.259 0.839 0.455 1.017 0.589 0.661 0.482 1.177 1.087 1.547 1.815 0.371 0.728 0.556 1.502 0.556 2.324 0 0.821-0.185 1.596-0.556 2.323-0.37 0.728-0.886 1.333-1.547 1.815-0.178 0.134-0.517 0.33-1.017 0.589-0.349 0.179-0.523 0.442-0.523 0.79 0 0.233 0.085 0.434 0.255 0.603 0.169 0.17 0.375 0.255 0.616 0.255 0.107 0 0.218-0.023 0.335-0.067 1.25-0.527 2.254-1.369 3.013-2.525s1.138-2.417 1.138-3.783-0.379-2.628-1.138-3.784-1.763-1.998-3.013-2.524zm1.352-3.148c-0.116-0.044-0.232-0.067-0.348-0.067-0.232 0-0.433 0.085-0.603 0.255-0.169 0.169-0.254 0.37-0.254 0.602 0 0.322 0.174 0.585 0.522 0.791 0.063 0.035 0.163 0.082 0.302 0.14 0.138 0.058 0.238 0.105 0.301 0.141 0.411 0.223 0.777 0.451 1.098 0.683 1.098 0.812 1.956 1.826 2.572 3.04s0.924 2.505 0.924 3.871-0.308 2.656-0.924 3.87-1.474 2.228-2.572 3.04c-0.321 0.233-0.687 0.46-1.098 0.683-0.063 0.036-0.163 0.083-0.301 0.141-0.139 0.058-0.239 0.105-0.302 0.141-0.348 0.205-0.522 0.468-0.522 0.79 0 0.232 0.085 0.433 0.254 0.602 0.17 0.17 0.371 0.255 0.603 0.255 0.116 0 0.232-0.022 0.348-0.067 1.884-0.813 3.393-2.078 4.527-3.797s1.701-3.605 1.701-5.658c0-2.054-0.567-3.94-1.701-5.659s-2.643-2.984-4.527-3.797z" class="cls-1"/></svg><svg xmlns:xlink="http://www.w3.org/1999/xlink" height="18" width="17" preserveAspectRatio="xMidYMid" viewBox="0 0 17.47 17.5" id="icon_search" y="205"><defs><style>.cls-1 {        fill: #fff;        fill-rule: evenodd;      }</style></defs><path d="m12.494 11.002h-0.794l-0.276-0.274c0.975-1.137 1.567-2.61 1.567-4.225 0-3.59-2.91-6.501-6.499-6.501-3.59 0-6.5 2.911-6.5 6.501 0 3.589 2.91 6.499 6.5 6.499 1.614 0 3.088-0.592 4.225-1.566l0.276 0.275v0.792l4.998 4.991 1.491-1.492-4.988-5zm-6.002 0c-2.486 0-4.5-2.014-4.5-4.499 0-2.486 2.014-4.5 4.5-4.5 2.485 0 4.499 2.014 4.499 4.5 0 2.485-2.014 4.499-4.499 4.499z" class="cls-1"/></svg><svg xmlns:xlink="http://www.w3.org/1999/xlink" height="20" width="20" preserveAspectRatio="xMidYMid" viewBox="0 0 20 20" id="icon_w_emoticon_0" y="223"><defs><style>.cls-1 {        fill: #5bac12;        fill-rule: evenodd;      }</style></defs><path d="m10.002 20.01c-5.52 0-9.994-4.481-9.994-10.008 0-5.528 4.474-10.009 9.994-10.009 5.519 0 9.993 4.481 9.993 10.009 0 5.527-4.474 10.008-9.993 10.008zm0-18.455c-4.651 0-8.434 3.789-8.434 8.447 0 4.657 3.783 8.446 8.434 8.446 4.65 0 8.433-3.789 8.433-8.446 0-4.658-3.783-8.447-8.433-8.447zm0 13.802c-2.339 0-4.402-1.166-5.652-2.946 1.593 1.147 3.54 1.83 5.652 1.83 2.111 0 4.059-0.683 5.652-1.83-1.25 1.78-3.314 2.946-5.652 2.946zm3.12-5.355c-0.861 0-1.56-0.7-1.56-1.563s0.699-1.562 1.56-1.562c0.86 0 1.56 0.699 1.56 1.562s-0.7 1.563-1.56 1.563zm-6.24 0c-0.861 0-1.56-0.7-1.56-1.563s0.699-1.562 1.56-1.562c0.86 0 1.56 0.699 1.56 1.562s-0.7 1.563-1.56 1.563z" class="cls-1"/></svg><svg xmlns:xlink="http://www.w3.org/1999/xlink" height="20" width="20" preserveAspectRatio="xMidYMid" viewBox="0 0 20 20" id="icon_w_emoticon_1" y="243"><defs><style>.cls-1 {        fill: #2460ce;        fill-rule: evenodd;      }</style></defs><path d="m10.003 20.011c-5.52 0-9.994-4.481-9.994-10.008 0-5.528 4.474-10.009 9.994-10.009 5.519 0 9.993 4.481 9.993 10.009 0 5.527-4.474 10.008-9.993 10.008zm0-18.455c-4.65 0-8.434 3.789-8.434 8.447 0 4.657 3.784 8.446 8.434 8.446s8.434-3.789 8.434-8.446c0-4.658-3.784-8.447-8.434-8.447zm3.12 6.884c-0.861 0-1.56 0.55-1.56 0 0-0.549 0.699-1.562 1.56-1.562 0.86 0 2.34 1.074 2.34 1.562s-1.48 0-2.34 0zm-3.12 8.469c-3.541 0-5.337-2.824-5.337-5.344 0 0 1.717 0.905 5.337 0.905 3.619 0 5.336-0.905 5.336-0.905 0 2.52-1.796 5.344-5.336 5.344zm-3.12-8.469c-0.861 0-2.34 0.488-2.34 0s1.479-1.562 2.34-1.562 1.56 1.013 1.56 1.562c0 0.55-0.699 0-1.56 0z" class="cls-1"/></svg><svg xmlns:xlink="http://www.w3.org/1999/xlink" height="39" width="33" preserveAspectRatio="xMidYMid" viewBox="0 0 32.969 38.969" id="icon_water" y="263"><defs><style>.cls-1 {        fill: #fff;        fill-rule: evenodd;      }</style></defs><path d="m31.713 8.794h-1.775v22.889c0 3.723-1.796 5.522-3.302 6.376-1.576 0.892-3.117 0.919-3.292 0.919h-0.001-12.934-0.02c-0.292 0-3.259-0.053-5.346-2.098-1.32-1.294-1.989-3.056-1.989-5.239v-22.847h-1.775c-0.701 0-1.269-0.563-1.269-1.258 0-0.694 0.568-1.257 1.269-1.257h3.043c0.701 0 1.268 0.563 1.268 1.257v24.105c0 1.478 0.411 2.635 1.222 3.436 1.386 1.372 3.557 1.386 3.588 1.386h12.944c0.408-0.006 4.058-0.188 4.058-4.78v-24.147c0-0.694 0.567-1.257 1.268-1.257h3.043c0.701 0 1.269 0.563 1.269 1.257 0 0.695-0.568 1.258-1.269 1.258zm-15.393 7.796c-2.823-0.073-5.045-2.399-4.97-5.196 0.072-2.792 3.951-9.024 5.453-11.404 2.747 4.608 5.014 9.206 4.747 11.677-0.299 2.774-2.419 4.997-5.23 4.923zm-8.954 11.069h10.652c0.56 0 1.014 0.45 1.014 1.006s-0.454 1.006-1.014 1.006h-10.652c-0.561 0-1.015-0.45-1.015-1.006s0.454-1.006 1.015-1.006zm11.666-3.522c0 0.557-0.454 1.007-1.014 1.007h-10.652c-0.561 0-1.015-0.45-1.015-1.007 0-0.556 0.454-1.006 1.015-1.006h10.652c0.56 0 1.014 0.45 1.014 1.006z" class="cls-1"/></svg><svg xmlns:xlink="http://www.w3.org/1999/xlink" id="logo" style="enable-background:new 0 0 192.7 50.5" xml:space="preserve" viewBox="0 0 192.7 50.5" version="1.1" y="302" x="0px" width="32" height="32"><style type="text/css">	.st0{fill:#717171;}	.st1{fill:#ED7700;}	.st2{fill:#007BC6;}	.st3{fill:#6CB42B;}	.st4{fill:#F9BE00;}	.st5{fill:#00814C;}	.st6{fill:#0C2F8B;}	.st7{fill:#E84821;}	.st8{fill:#007BC6;stroke:#007BC6;stroke-miterlimit:10;}	.st9{fill:#6CB42B;stroke:#6CB42B;stroke-width:0.3;stroke-miterlimit:10;}</style><path class="st0" d="m73.6 10.4v-1.2h-1v1.3c0 1-0.1 1.8-0.4 2.5s-0.8 1.4-1.6 2l0.6 0.7c0.4-0.3 0.8-0.7 1.2-1.1 0.4-0.5 0.6-1 0.8-1.6 0.2 0.5 0.4 1 0.9 1.6 0.4 0.5 0.8 0.8 1.1 1.1l0.5-0.7c-1.4-1.2-2.1-2.7-2.1-4.6zm5.2 1.4h-1.3v-2.8h-0.9v7.6c0.1 0.1 0.3 0.1 0.4 0.1 0.2 0 0.3 0 0.5-0.1v-4h1.3v-0.8z"/><path class="st0" d="m94.1 9v7.6c0.1 0.1 0.3 0.1 0.5 0.1s0.4 0 0.5-0.1v-7.6h-1zm-3.6 0.1c-0.7 0-1.3 0.2-1.8 0.7-0.4 0.5-0.7 1.1-0.7 1.9s0.2 1.4 0.7 1.9c0.4 0.5 1 0.7 1.8 0.7 0.7 0 1.3-0.2 1.8-0.7 0.4-0.5 0.7-1.1 0.7-1.9s-0.2-1.4-0.7-1.9c-0.5-0.4-1.1-0.7-1.8-0.7zm1 3.9c-0.3 0.3-0.6 0.5-1.1 0.5-0.4 0-0.8-0.2-1.1-0.5s-0.4-0.8-0.4-1.3 0.1-1 0.4-1.3 0.6-0.5 1.1-0.5c0.4 0 0.8 0.2 1.1 0.5s0.4 0.8 0.4 1.3c0 0.6-0.1 1-0.4 1.3z"/><path class="st0" d="m130.8 16.7c0.1 0.1 0.3 0.1 0.4 0.1 0.2 0 0.4-0.1 0.5-0.1v-7.7h-0.9v4.3c0 0.4-0.4 0.7-1.3 0.9-0.4 0.1-1 0.1-1.8 0.1-0.5 0-0.8 0-1-0.1s-0.3-0.2-0.3-0.4v-4.6h-0.9v5.1c0 0.3 0.1 0.5 0.2 0.7s0.3 0.3 0.6 0.3 0.7 0.1 1.1 0.1c0.9 0 1.7-0.1 2.1-0.2 0.7-0.2 1.2-0.4 1.4-0.7v2.2z"/><path class="st0" d="m139.8 11.8v-2.8h-0.9v4.3c0 0.4-0.3 0.8-1 1-0.3 0.1-0.9 0.2-1.8 0.2-0.6 0-1 0-1.2-0.1-0.2 0-0.2-0.2-0.2-0.3v-4h2.7v-0.9h-3.7v4.9c0 0.4 0 0.7 0.1 0.8 0.1 0.2 0.3 0.3 0.6 0.4s0.7 0.1 1.2 0.1c0.9 0 1.7-0.1 2.2-0.2s0.9-0.3 1.1-0.5v2.1c0.1 0.1 0.3 0.1 0.5 0.1s0.3 0 0.5-0.1v-4.1h1.5v-0.8h-1.6z"/><path class="st0" d="m86 10.9v-1.9h-1v2.9c0 0.3-0.1 0.5-0.4 0.7-0.1 0.1-0.4 0.2-0.8 0.3s-1 0.1-1.9 0.1h-1c-0.3 0-0.4-0.2-0.4-0.4v-0.7h2.8s0.3 0 0.3-0.4v-1.8c0-0.4-0.1-0.5-0.5-0.5h-3.5v0.8h2.7c0.2 0 0.3 0.1 0.3 0.4v0.6h-2.6s-0.3 0-0.3 0.4v1.3c0 0.3 0.1 0.6 0.2 0.7s0.3 0.2 0.6 0.3c0.3 0 0.6 0.1 1 0.1 1.1 0 1.9-0.1 2.4-0.2 0.6-0.2 1-0.4 1.2-0.6v1c0.1 0.1 0.3 0.1 0.5 0.1s0.3 0 0.5-0.1v-2.2h1.3v-0.8h-1.4zm-0.4 3.8h-4.9v2.5c0 0.3 0 0.4 0.1 0.5s0.3 0.2 0.5 0.2h4.2s0.4 0 0.4-0.5v-2.3c0.1-0.3 0-0.4-0.3-0.4zm-0.6 2.1s0 0.3-0.2 0.3h-2.8c-0.2 0-0.3-0.1-0.3-0.3v-1.2h3c0.2 0 0.2 0.1 0.2 0.3v0.9z"/><path class="st0" d="m103.4 13.2v-4h-0.9v1.3h-2.2v-1.3h-0.9v3.8c0 0.3 0.1 0.5 0.2 0.6s0.3 0.2 0.5 0.2h3.1c-0.2-0.1 0.2-0.2 0.2-0.6zm-1-0.6s0 0.3-0.2 0.3h-1.7c-0.2 0-0.4-0.1-0.4-0.4v-1.2h2.2v1.3zm3.3-1.4v-2.1h-1v5.8c0.1 0.1 0.3 0.1 0.5 0.1s0.3 0 0.5-0.1v-2.8h1.3v-0.8h-1.3zm-4.2 5.3v-1.7h-0.9v2.2c0 0.2 0 0.4 0.1 0.5s0.2 0.1 0.4 0.1h4.9v-0.8h-4.2c-0.2 0-0.3-0.1-0.3-0.3z"/><path class="st0" d="m110.9 12.5c0.6-0.7 0.9-1.6 1-2.7 0-0.4-0.2-0.6-0.6-0.6h-3.2v0.8h2.5c0.2 0 0.3 0.1 0.3 0.4-0.2 1.3-1.2 2.3-3 2.9l0.4 0.8c1.1-0.4 2-0.9 2.6-1.6zm2.4 2.7h-3.3v-1h-1v3c0 0.3 0 0.4 0.1 0.5s0.3 0.2 0.5 0.2h4.2c0.1 0 0.3-0.1 0.3-0.5v-3.2h-1v1zm0 1.6s0 0.3-0.2 0.3h-2.7c-0.2 0-0.3-0.1-0.3-0.3v-0.8h3.3v0.8zm0.9-5.9v-1.8h-1v4.6c0.1 0.1 0.3 0.1 0.5 0.1s0.3 0 0.5-0.1v-1.9h1.3v-0.8h-1.3z"/><path class="st0" d="m118.9 11.7c0.5-0.3 0.9-0.7 1.1-1.1 0.2 0.4 0.6 0.8 1.2 1.1s1.1 0.5 1.7 0.6l0.3-0.8c-0.9-0.2-1.5-0.5-2-0.9s-0.7-0.9-0.7-1.5v-0.1h-1v0.1c0 1.2-0.9 2-2.7 2.4l0.3 0.8c0.7-0.1 1.3-0.3 1.8-0.6zm-2.7 1.4v0.8h7.7v-0.8h-7.7zm5.6 2.2h-3.7v-0.8h-0.9v2.6c0 0.3 0 0.4 0.1 0.5s0.3 0.2 0.5 0.2h4.6s0.4 0 0.4-0.5v-2.8h-0.9v0.8zm0 1.5s0 0.3-0.2 0.3h-3.1c-0.2 0-0.3-0.1-0.3-0.3v-0.6h3.7v0.6z"/><path class="st1" d="m44.5 5.7c0.8-0.3 2-0.5 1.4-1.2-0.4-0.5-1.5-0.3-1.7-1.1-0.1-0.5 0.3-1.2 0-1.7-0.4-0.7-1.4 0.7-1.7 0.9s-0.9-0.1-1.2-0.2c-0.5-0.2-1-0.2-1 0.5s0.8 1.2 0.3 2c-0.2 0.3-1.8 1.3-0.9 1.7s2-0.9 2.8-0.1c0.1 0.2 0.7 1.1 1.2 1.5 0.4 0.3 0.5 0.1 0.6-0.1 0.1-0.6 0-1.1 0-1.7-0.1-0.3 0-0.4 0.2-0.5z"/><path class="st2" d="m53.8 11.9c-0.3-0.8 3-0.1 3.5-2.6 0.2-1-0.6-2.4 0-2.2 1.3 0.4 3.5 3 1.7 5.1-1.1 1.3-3.3 1.2-4.9 0-0.1-0.1-0.2-0.1-0.2-0.2-0.1 0-0.1-0.1-0.1-0.1z"/><path class="st3" d="m10.3 6.5c-0.2 0.1-0.3 0.2-0.4 0.2-0.6 0.2-1.2 0.6-1.2 1.3s0.5 1.4 0.4 2.1c-0.1 0.6-0.5 1.3-1 1.6-0.9 0.4-1.2-1.8-1.4-2.3-0.3-0.4-0.5-0.4-0.9-0.2-0.2 0.1-1.2 1.2-1.6 0.9-0.3-0.2-0.5-0.7-0.7-0.9-0.1-0.2-0.2-0.6 0-0.8s0.7-0.2 1-0.3c0.9-0.2 1.2-0.6 0.7-1.1-0.4-0.3-0.9-0.6-1.3-0.9-0.5-0.4-0.5-0.8 0.1-1 0.8-0.2 1.4-0.1 2.1 0.3 0.3 0.2 0.5 0.6 0.9 0.7 0.7 0.2 1.2-0.3 1.8-0.4 0.5-0.2 1.1 0 1.6 0.2 0.4 0.2 0.2 0.4-0.1 0.6z"/><path class="st3" d="m13.5 26.2c-2.9 0.4-3.4-2.6-0.9-3.8 0.3-0.1 0.8-0.4 1.6-0.7 0-0.2 0.1-0.4 0.1-0.5 0.2-1.2 0.5-3.3 0.6-3.5 0.5-2.6-3.6-3.4-4.3-1.3-0.4 1.1-0.8 2.4-1.6 5.1-0.1 0.4-0.5 0.5-0.7 0.6-0.1 0-0.4 0-0.7 0.1-0.8 0-2.4 0.2-5.1 0.3-1.6 0-2.5 0.5-2.5 1.8 0 1.6 1.7 1.8 2.8 2 1.3 0.2 2.7 0.2 3.5 0.4 0.7 0.2 0.9 0.4 0.8 1 0 0.2-0.9 10.8-0.9 10.9 0 0.2-0.1 3.2-0.1 4.5 0 2.1 1.3 2.2 1.3 2.2 1.8 0.3 2-1.8 2-1.8s0-0.5 0.1-1.3h0.6c0 0.4 0.1 0.8 0.2 1.2 0.4 2.1 1.7 1.9 1.7 1.9 1.8-0.1 1.6-2.1 1.6-2.1 0-0.9-0.2-10.3-0.1-13.4 0-0.9 0.9-0.4 0.9-0.4l2 1.3c1.6 1.1 2.6 0.8 3.1 0.2 0.7-0.9 0.3-2.1-0.4-2.7-0.6-0.5-1.7-1.6-2.8-2.6-0.4 0.1-0.9 0.2-1.3 0.3-0.8 0.2-1.4 0.3-1.5 0.3z"/><path class="st4" d="m28.1 18.7c0.5 0.1 1.1 0.2 1.6 0.4l1.2 0.3c1.5-1.5 2.9-3 3.5-3.7 0.5-0.5 0.8-1 1-1.4 0.4-1.2-0.2-2-1.1-2.3-0.4-0.2-1.1-0.2-1.9 0.3-1.6 0.8-3.7 2.8-4.8 3.5-0.6 0.4-1.4 0.7-2-0.5-1.1-1.9-2.6-5-3-5.5-0.8-1.1-2.6-1-3.8-0.1 0 0-1.3 0.7-1 2.2 0.2 0.9 1.8 5.4 2 6s0.1 1.3-1 1.9c-0.5 0.3-2.3 1-3.8 1.6-0.2 0.1-0.5 0.2-0.7 0.3-0.1 0.4-0.1 0.8-0.1 0.9 0 0.7 0.1 0.9 0.4 1.1l1.9 1.9c1.6-0.3 3.1-0.6 3.1-0.6s1.4-0.2 1.4 1.7c0 4.3 0 12.5-0.2 15.5 0 0.2-0.1 0.9 0 1.4 0.1 0.7 0.5 1.7 1.8 1.8 0.8 0 2.1 0 2.5-2.4 0.1-0.5 0.1-0.9 0.2-1.4h0.8c0 0.4 0.1 0.9 0.1 1.2s0 0.8 0.1 1.1c0.2 0.7 0.6 1.6 2.1 1.5 0 0 2.1 0 1.9-2.9-0.4-9.1-0.9-14.7-1.1-17.3 0-0.6-0.1-1-0.1-1.3v-0.4c-1.1-0.5-2-0.8-2.7-1.3-1.6-1.1-0.9-4 1.7-3.5z"/><path class="st5" d="m14.4 23.8c-0.2-0.3-0.4-0.4-0.4-1.1 0-0.1 0.1-0.5 0.1-0.9-0.8 0.3-1.3 0.6-1.6 0.7-2.5 1.2-2 4.2 0.9 3.8 0.1 0 0.7-0.1 1.5-0.3 0.4-0.1 0.8-0.2 1.3-0.3-0.9-1-1.8-1.9-1.8-1.9z"/><path class="st1" d="m46.9 21.2c0-0.1-0.3-0.5-0.2-1-1.6 0.3-3.2 0.8-4.5 1-0.7 0.1-0.6-0.6-0.7-1.2 0-0.7 0.2-5.1 0.2-5.9 0-1-0.7-1.8-2.2-2-1.4-0.1-2.3 0.6-2.6 1.6-0.4 1.5-1 4-1.3 5.2-0.4 1.6-1.2 1.4-2.3 1.1-1-0.3-1.8-0.5-2.5-0.7-0.3 0.3-0.6 0.6-0.9 0.8-0.3 0.3-0.5 0.5-0.6 0.7-0.4 0.6-0.5 1.3-0.5 2.5 0.1 0.1 0.3 0.1 0.4 0.2 1 0.4 1.8 0.7 2.8 1.3 1.4 0.7 1.7 1 1.7 1.7 0 0.8-1 15.7-1 16.2-0.1 2.5 1.9 2.6 1.9 2.6 1.9 0.2 2.1-2 2.1-2s0.1-0.7 0.2-1.5h0.7c0 0.4 0.1 0.8 0.1 1.2 0.2 2.3 2 2.2 2 2.2 2.1 0 2-2.3 2-2.3-0.1-0.7-0.4-13.8-0.3-14.7 0-0.8 0-1.6 0.7-2s4-1.6 6-2.3c-0.3-1-0.9-2-1.2-2.7z"/><path class="st2" d="m60.6 19.7c-0.1-0.2-0.5-0.6-1.1-0.7-0.6 0-1.3 0.1-2.1 1.1-0.3 0.3-2.7 3.3-2.9 3.6-0.1 0.2-0.4 0.5-0.7 0.1-0.1-0.1-3-4.3-3.4-4.8-0.7-0.7-1.7-0.7-2.5-0.2-0.5 0.3-0.9 0.8-1.1 1.3v0.2h0.1c0.1 0 0.2 0 0.3-0.1 1-0.2 1.8-0.3 2.2-0.2 2.2 0.5 1.9 2.9-0.1 3.7-0.1 0-0.2 0.1-0.3 0.1-0.2 0.1-0.4 0.1-0.6 0.2h-0.1c0.1 0.2 0.3 0.5 0.4 0.7 0.5 0.9 0.8 1.5 0.8 1.5s0.2 0.4-0.4 0.5-3.2 0.2-4.4 0.4c-0.8 0.1-1.6 0.5-1.7 1.3s0.3 1.6 1.5 1.8c0.2 0 3.6 0.5 4.7 0.6 0.3 0 1 0.1 1.3 0.8 0.1 0.3 0.2 0.7 0.2 1.3 0 0.9-0.2 7.5-0.4 9.9 0 0.2-0.1 1.1 0 1.5 0.1 0.5 0.6 1.2 1.7 1.1 0.4 0 1.2-0.1 1.5-1.9 0.1-0.3 0.1-0.7 0.1-1h0.6c0 0.7 0.1 1.5 0.2 1.9s0.5 1 1.3 1.1c1.1 0.1 1.8-0.6 1.8-2.2 0-1.2-0.6-11.7-0.6-11.7v-0.5s-0.2-2.1 0.7-3.8c0.1-0.2 2.5-4.3 2.5-4.3s0.6-1 0.7-1.4c0-0.8 0.1-1.4-0.2-1.9z"/><path class="st6" d="m49 23.7c0.1 0 0.2-0.1 0.3-0.1 2-0.8 2.2-3.1 0.1-3.7-0.4-0.1-1.2 0-2.2 0.2-0.1 0-0.2 0-0.3 0.1h-0.1c-0.1 0.5 0.1 1 0.2 1 0.3 0.6 0.9 1.7 1.4 2.7h0.1c0.1-0.1 0.3-0.1 0.5-0.2z"/><path class="st7" d="m29.5 21c0.2-0.2 0.4-0.5 0.6-0.7 0.3-0.3 0.6-0.6 0.9-0.8l-1.2-0.3c-0.6-0.2-1.1-0.3-1.6-0.4-2.7-0.5-3.4 2.4-1.8 3.4 0.7 0.5 1.6 0.8 2.7 1.3-0.1-1.3 0-2 0.4-2.5z"/><path class="st4" d="m30 1.6c-0.3-0.3-0.6-0.5-0.9-0.6-1.1-0.4-2.3 0.3-3.2 0.8-0.4-0.5-0.9-1-1.7-1.3h-0.1l-0.6-0.3c-0.1-0.2-0.3-0.2-0.5-0.2-0.6 0-1 0.3-1.2 0.6-0.4 0.5-0.5 1.2-0.5 1.9 0 0.5 0.2 1 0.5 1.3 0.2 0.2 0.5 0.4 0.8 0.5 1 0.3 2.1-0.2 2.9-0.6 0.4 0.5 0.8 1 1.4 1.3 0.1 0.1 0.3 0.1 0.4 0.2 1.1 0.4 2.1 0 2.6-0.9 0-0.1 0.9-1.8 0.1-2.7zm-6.7 1.9c-0.1 0-0.2-0.1-0.2-0.2-0.1-0.1-0.1-0.3-0.2-0.6 0-0.3 0-0.7 0.1-1s0.3-0.3 0.5-0.2c0.1 0.1 0.2 0.1 0.4 0.2h0.1c0.6 0.3 1 0.6 1.4 1.1-0.8 0.5-1.6 0.9-2.1 0.7zm5.4-0.1c-0.2 0.5-0.9 0.3-1.1 0.2-0.1 0-0.2-0.1-0.3-0.1-0.4-0.2-0.8-0.6-1.1-1 0.8-0.5 1.8-1 2.4-0.7 0.4 0.1 0.5 0.4 0.4 0.7-0.1 0.2-0.2 0.6-0.3 0.9z"/>	<path class="st8" d="m141.7 37.5c0 0.9-0.1 1.8-0.3 2.7-0.2 0.8-0.5 1.6-1 2.3s-1.1 1.2-1.8 1.6-1.6 0.6-2.7 0.6-2-0.2-2.7-0.6c-0.7-0.4-1.3-0.9-1.8-1.6s-0.8-1.4-1-2.3c-0.2-0.8-0.3-1.7-0.3-2.7v-10.7h1.5v10.3c0 0.6 0.1 1.3 0.2 2s0.3 1.4 0.6 2 0.7 1.1 1.3 1.5 1.3 0.6 2.2 0.6 1.7-0.2 2.2-0.6c0.6-0.4 1-0.9 1.3-1.5s0.5-1.3 0.6-2 0.2-1.4 0.2-2v-10.3h1.5v10.7z"/>	<path class="st8" d="m145 37.7h5.5v1.3h-5.5v-1.3z"/>	<path class="st8" d="m167.2 41.4c-0.8 1.1-1.6 1.9-2.6 2.4s-2.1 0.7-3.3 0.7-2.3-0.2-3.3-0.7c-1-0.4-1.9-1.1-2.6-1.9s-1.3-1.8-1.7-2.9-0.6-2.3-0.6-3.7c0-1.3 0.2-2.5 0.6-3.6s1-2.1 1.7-2.9 1.6-1.4 2.6-1.9 2.1-0.7 3.3-0.7c1.1 0 2.1 0.2 3 0.6s1.8 1.1 2.5 2.1l-1.2 1.1c-0.5-0.8-1.1-1.4-1.9-1.8s-1.6-0.6-2.4-0.6c-1 0-2 0.2-2.8 0.6s-1.5 0.9-2.1 1.6-1 1.5-1.3 2.4c-0.3 0.9-0.5 1.9-0.5 3s0.2 2.1 0.5 3 0.8 1.7 1.3 2.4c0.6 0.7 1.3 1.2 2.1 1.6s1.8 0.6 2.8 0.6c0.4 0 0.8-0.1 1.3-0.2 0.4-0.1 0.9-0.3 1.3-0.5s0.8-0.5 1.2-0.8 0.7-0.7 1-1.2l1.1 1.3z"/>	<path class="st8" d="m169.8 28.4c0-0.3 0.1-0.6 0.3-0.8s0.4-0.3 0.7-0.3 0.5 0.1 0.7 0.3 0.3 0.5 0.3 0.8-0.1 0.6-0.3 0.8-0.4 0.3-0.7 0.3-0.5-0.1-0.7-0.3c-0.2-0.3-0.3-0.5-0.3-0.8zm0.4 4.4h1.3v11.3h-1.3v-11.3z"/>	<path class="st8" d="m180.9 34.2h-3v7.4c0 0.5 0.1 0.9 0.4 1.2s0.6 0.4 1.1 0.4c0.3 0 0.5 0 0.8-0.1s0.5-0.2 0.8-0.3v1.2c-0.3 0.1-0.5 0.2-0.9 0.3-0.3 0.1-0.6 0.1-0.9 0.1-0.5 0-0.9-0.1-1.2-0.2-0.3-0.2-0.6-0.4-0.8-0.6-0.2-0.3-0.4-0.6-0.5-0.9-0.1-0.4-0.1-0.7-0.1-1.1v-7.4h-2.2v-1.3h2.2v-3.3h1.3v3.3h3v1.3z"/>	<path class="st8" d="m186.6 47.6c-0.3 0.7-0.6 1.3-1.1 1.7-0.4 0.4-1 0.6-1.8 0.6-0.2 0-0.4 0-0.7-0.1s-0.4-0.1-0.7-0.2l0.1-1.4c0.2 0.1 0.4 0.1 0.6 0.2s0.4 0.1 0.6 0.1 0.5-0.1 0.6-0.2c0.2-0.1 0.3-0.3 0.5-0.4 0.1-0.2 0.3-0.4 0.3-0.6 0.1-0.2 0.2-0.4 0.3-0.7l0.9-2.6-4.2-11.4h1.5l3.4 9.5 3.3-9.5h1.4l-5 15z"/>	<path class="st9" d="m78.7 38.5h-8v-1.8h18.2v1.8h-7.9v6.3h-2.4v-6.3zm8.3-5.5l-1.2 1.5c-0.6-0.2-1.2-0.4-1.8-0.7s-1.2-0.7-1.7-1.1-1-0.9-1.5-1.4c-0.4-0.5-0.8-1-1-1.6-0.3 0.5-0.6 1.1-1.1 1.6s-0.9 0.9-1.5 1.4c-0.6 0.4-1.1 0.8-1.8 1.1-0.6 0.3-1.2 0.6-1.9 0.7l-1-1.5c0.8-0.3 1.6-0.7 2.4-1.1 0.7-0.5 1.4-1 1.9-1.6s1-1.3 1.3-1.9c0.3-0.7 0.5-1.4 0.5-2.2v-1h2.4v1c0 0.7 0.1 1.5 0.4 2.2s0.7 1.4 1.3 2c0.5 0.6 1.2 1.2 1.9 1.6s1.5 0.8 2.4 1z"/>	<path class="st9" d="m93.3 36.1h-0.6-4.4v-1.7h3.6 2.5c0.9 0 1.8-0.1 2.7-0.1s1.7-0.1 2.5-0.2 1.5-0.1 2-0.2v1.7c-0.6 0.1-1.5 0.2-2.6 0.3s-2.3 0.2-3.4 0.2v2.9h-2.3v-2.9zm5.9-6.9c0 0.6-0.1 1.2-0.4 1.7s-0.6 1-1 1.4-1 0.7-1.5 0.9c-0.6 0.2-1.2 0.3-1.9 0.3s-1.3-0.1-1.8-0.3c-0.6-0.2-1.1-0.5-1.6-0.9-0.4-0.4-0.8-0.8-1-1.4s-0.4-1.1-0.4-1.7c0-0.6 0.1-1.1 0.4-1.6s0.6-1 1-1.3c0.4-0.4 0.9-0.7 1.5-0.9s1.2-0.3 1.8-0.3c0.7 0 1.3 0.1 1.9 0.3s1.1 0.5 1.5 0.9 0.8 0.8 1 1.3c0.4 0.5 0.5 1.1 0.5 1.6zm-2.2 0c0-0.7-0.2-1.2-0.7-1.7s-1.1-0.7-1.8-0.7c-0.7 0-1.3 0.2-1.8 0.7s-0.7 1-0.7 1.7 0.2 1.2 0.7 1.7 1.1 0.7 1.8 0.7 1.3-0.2 1.8-0.7c0.4-0.4 0.7-1 0.7-1.7zm-3.7 10.8h2.2v3.4h9.5v1.9h-11.7v-5.3zm9.3-1.4h-4.4v-1.7h4.4v-12h2.2v15.5h-2.2v-1.8z"/>	<path class="st9" d="m118.4 38.1l-1.3 1.5c-1-0.6-2-1.5-2.8-2.5-0.9-1-1.5-2.1-1.9-3.2-0.2 0.6-0.5 1.2-0.8 1.8s-0.7 1.2-1.1 1.7-0.9 1-1.4 1.5-1 0.8-1.5 1.1l-1.3-1.3c0.8-0.6 1.5-1.2 2.1-2s1.1-1.6 1.5-2.5c0.4-0.9 0.7-1.8 0.9-2.8s0.3-2 0.3-3v-2.7h2.4v2.6c0 1 0.1 1.9 0.3 2.9 0.2 0.9 0.5 1.8 0.9 2.7s0.9 1.6 1.6 2.4 1.3 1.3 2.1 1.8zm1.8 6.5v-19.7h2.2v19.7h-2.2z"/></svg><svg xmlns:xlink="http://www.w3.org/1999/xlink" height="50" width="193" preserveAspectRatio="xMidYMid" viewBox="0 0 192.719 50.469" id="logo_v_ps" y="334"><defs><style>.cls-1 {        fill: #6cb42b;      }      .cls-1, .cls-2, .cls-3, .cls-4, .cls-5, .cls-6, .cls-7, .cls-8, .cls-9 {        fill-rule: evenodd;      }      .cls-2 {        fill: #00814c;      }      .cls-3 {        fill: #f9be00;      }      .cls-4 {        fill: #e84821;      }      .cls-5 {        fill: #ed7700;      }      .cls-6 {        fill: #0c2f8b;      }      .cls-7 {        fill: #007bc6;      }      .cls-8 {        fill: #057ec7;        stroke: #057ec7;        stroke-width: 1px;      }      .cls-9 {        fill: #747474;      }</style></defs><path d="m19.519 30.851c-0.474 0.569-1.493 0.915-3.061-0.194l-2.033-1.341s-0.815-0.502-0.858 0.412c-0.146 3.147 0.043 12.571 0.093 13.431 0 0 0.194 2.031-1.636 2.086 0 0-1.337 0.13-1.691-1.924-0.062-0.357-0.115-0.831-0.163-1.19-0.186 0.027-0.388 0.036-0.605 0.026-0.035 0.718-0.066 1.254-0.066 1.254s-0.157 2.071-1.977 1.812c0 0-1.342-0.14-1.342-2.217 0-1.295 0.147-4.272 0.147-4.484-0.011-0.143 0.856-10.75 0.859-10.933 0.005-0.547-0.161-0.809-0.848-0.974-0.823-0.199-2.243-0.214-3.517-0.364-1.086-0.13-2.821-0.33-2.812-1.972 0.006-1.32 0.939-1.824 2.38-1.858 2.703-0.062 4.301-0.231 5.098-0.277 0.337-0.022 0.601-0.033 0.729-0.056 0.234-0.043 0.581-0.173 0.697-0.57 0.816-2.725 1.213-4.007 1.596-5.142 0.715-2.124 4.812-1.249 4.326 1.3-0.034 0.176-0.374 2.352-0.567 3.504-0.02 0.113-0.053 0.315-0.089 0.533-0.756 0.316-1.333 0.564-1.585 0.679-2.482 1.152-1.974 4.226 0.936 3.783 0.055-0.01 0.73-0.124 1.547-0.307 0.415-0.095 0.844-0.188 1.267-0.277 1.033 0.977 2.206 2.068 2.77 2.553 0.736 0.629 1.126 1.84 0.405 2.707zm-9.252-24.356c-0.153 0.085-0.325 0.15-0.439 0.187-0.563 0.166-1.112 0.649-1.128 1.28-0.014 0.716 0.493 1.412 0.41 2.132-0.065 0.551-0.504 1.328-1.026 1.554-0.908 0.393-1.193-1.829-1.434-2.312-0.195-0.39-0.405-0.364-0.852-0.159-0.185 0.085-1.231 1.208-1.637 0.897-0.252-0.19-0.497-0.657-0.606-0.921-0.096-0.235-0.183-0.557 0.028-0.757 0.227-0.216 0.731-0.215 1.007-0.281 0.818-0.194 1.139-0.59 0.592-1.098-0.405-0.374-0.842-0.622-1.268-0.949-0.461-0.355-0.475-0.731 0.122-0.939 0.768-0.27 1.4-0.179 2.067 0.302 0.28 0.2 0.521 0.523 0.865 0.614 0.669 0.172 1.157-0.269 1.757-0.438 0.536-0.153 1.131 0.025 1.622 0.247 0.475 0.215 0.234 0.467-0.08 0.641z" class="cls-1"/><path d="m14.406 23.741c-0.242-0.27-0.415-0.413-0.368-1.12 0.008-0.094 0.077-0.526 0.141-0.908-0.756 0.316-1.333 0.564-1.585 0.679-2.482 1.152-1.974 4.226 0.936 3.783 0.055-0.01 0.73-0.124 1.547-0.307 0.415-0.095 0.844-0.188 1.267-0.277-1.015-0.957-1.896-1.803-1.938-1.85z" class="cls-2"/><path d="m35.463 14.23c-0.159 0.49-0.478 0.907-0.977 1.448-0.641 0.694-2.045 2.25-3.51 3.703-0.41-0.118-0.796-0.232-1.2-0.345-0.557-0.158-1.082-0.273-1.615-0.369-2.68-0.471-3.378 2.39-1.794 3.445 0.678 0.452 1.561 0.82 2.664 1.284 0.005 0.124 0.009 0.246 0.015 0.382 0.017 0.308 0.051 0.751 0.099 1.327 0.217 2.604 0.707 8.12 1.115 17.253 0.156 2.842-1.916 2.887-1.916 2.887-1.571 0.089-1.969-0.756-2.125-1.505-0.076-0.358-0.091-0.824-0.118-1.141-0.024-0.279-0.057-0.739-0.094-1.168-0.275 0.026-0.531 0.022-0.77-0.001-0.046 0.456-0.088 0.914-0.158 1.371-0.372 2.444-1.611 2.478-2.455 2.444-1.33-0.05-1.702-1.025-1.811-1.767-0.064-0.444-0.017-1.141-0.001-1.355 0.194-2.974 0.161-11.147 0.085-15.465-0.032-1.859-1.429-1.685-1.429-1.685s-1.496 0.276-3.124 0.618c-1.015-0.957-1.896-1.803-1.938-1.85-0.242-0.27-0.415-0.413-0.368-1.12 0.008-0.094 0.077-0.526 0.141-0.908 0.22-0.091 0.454-0.192 0.702-0.294 1.539-0.637 3.303-1.372 3.803-1.635 1.076-0.565 1.191-1.301 0.992-1.903-0.195-0.588-1.843-5.136-1.999-6.009-0.272-1.549 1.023-2.248 1.023-2.248 1.249-0.94 3.031-0.975 3.816 0.097 0.358 0.494 1.906 3.603 2.987 5.482 0.682 1.181 1.442 0.884 2.039 0.5 1.094-0.704 3.271-2.705 4.841-3.527 0.813-0.425 1.566-0.422 1.95-0.272 0.941 0.37 1.509 1.149 1.13 2.326zm-8.095-9.18c-0.143-0.048-0.279-0.109-0.412-0.18-0.588-0.32-1.022-0.805-1.403-1.272-0.846 0.478-1.971 0.983-2.939 0.648-0.288-0.102-0.542-0.267-0.752-0.494-0.28-0.309-0.452-0.745-0.493-1.266-0.055-0.715 0.138-1.474 0.494-1.936 0.186-0.241 0.556-0.582 1.166-0.553 0.16 0.008 0.337 0.042 0.532 0.109 0.218 0.076 0.425 0.179 0.602 0.273l0.056 0.026c0.732 0.372 1.235 0.841 1.67 1.341 0.853-0.51 2.073-1.182 3.203-0.792 0.336 0.119 0.638 0.321 0.895 0.606 0.826 0.922-0.051 2.621-0.061 2.64-0.464 0.878-1.492 1.223-2.558 0.85zm-3.435-3.204l-0.077-0.041c-0.117-0.059-0.247-0.12-0.363-0.171-0.209-0.09-0.408-0.093-0.505 0.206-0.083 0.263-0.138 0.613-0.112 0.953 0.023 0.304 0.104 0.489 0.167 0.557 0.066 0.075 0.139 0.121 0.228 0.155 0.5 0.173 1.356-0.18 2.092-0.573-0.433-0.454-0.865-0.801-1.43-1.086zm4.716-0.091c-0.617-0.214-1.591 0.28-2.372 0.734 0.337 0.401 0.693 0.764 1.095 0.982 0.081 0.045 0.167 0.082 0.254 0.113 0.191 0.065 0.835 0.246 1.081-0.22 0.142-0.271 0.248-0.627 0.301-0.905 0.058-0.297-0.027-0.592-0.359-0.704z" class="cls-3"/><path d="m29.482 20.931c0.168-0.244 0.36-0.459 0.63-0.712 0.286-0.271 0.576-0.553 0.864-0.838-0.41-0.118-0.796-0.232-1.2-0.345-0.557-0.158-1.082-0.273-1.615-0.369-2.68-0.471-3.378 2.39-1.794 3.445 0.678 0.452 1.561 0.82 2.664 1.284-0.041-1.169 0.042-1.881 0.451-2.465z" class="cls-4"/><path d="m42.332 26.246c-0.693 0.412-0.642 1.218-0.688 1.994-0.054 0.902 0.225 14.025 0.322 14.71 0 0 0.032 2.308-2.03 2.295 0 0-1.793 0.085-2.018-2.245-0.041-0.405-0.069-0.809-0.093-1.216-0.212 0.021-0.441 0.026-0.683 0.001-0.099 0.81-0.168 1.488-0.168 1.488s-0.217 2.128-2.097 1.97c0 0-2.044-0.075-1.896-2.565 0.029-0.494 1.015-15.405 0.999-16.181-0.014-0.694-0.346-0.98-1.733-1.674-1.043-0.519-1.848-0.85-2.832-1.266-0.132-0.055-0.26-0.108-0.384-0.161-0.041-1.169 0.042-1.881 0.451-2.465 0.168-0.244 0.36-0.459 0.63-0.712 0.286-0.271 0.576-0.553 0.864-0.838 0.677 0.196 1.426 0.408 2.452 0.666 1.118 0.281 1.843 0.419 2.274-1.146 0.352-1.272 0.921-3.736 1.318-5.234 0.261-0.988 1.155-1.736 2.585-1.597 1.474 0.14 2.147 0.957 2.182 1.986 0.027 0.785-0.211 5.259-0.199 5.923 0.01 0.549-0.035 1.317 0.659 1.187 1.314-0.245 2.959-0.677 4.528-0.997-0.076 0.518 0.138 0.955 0.179 1.041 0.292 0.629 0.852 1.693 1.382 2.691 0.006 0.011 0.013 0.021 0.018 0.034-2.041 0.745-5.299 1.876-6.022 2.311zm1.914-20.092c0.063 0.562 0.181 1.133 0.035 1.709-0.048 0.192-0.224 0.458-0.586 0.12-0.425-0.393-1.016-1.377-1.158-1.531-0.791-0.859-1.873 0.453-2.776 0.062-0.879-0.379 0.711-1.398 0.909-1.677 0.513-0.725-0.317-1.264-0.331-1.955-0.01-0.608 0.525-0.608 0.993-0.453 0.335 0.106 0.873 0.382 1.218 0.173 0.352-0.212 1.346-1.572 1.734-0.9 0.286 0.497-0.177 1.169-0.041 1.688 0.193 0.735 1.272 0.6 1.698 1.081 0.628 0.705-0.588 0.954-1.384 1.214-0.248 0.085-0.339 0.224-0.311 0.469z" class="cls-5"/><path d="m49.044 23.679c0.105-0.038 0.205-0.076 0.294-0.11 1.95-0.757 2.246-3.138 0.055-3.664-0.431-0.104-1.245-0.006-2.212 0.181-0.095 0.017-0.193 0.038-0.287 0.059-0.042 0.007-0.08 0.017-0.119 0.024-0.076 0.518 0.138 0.955 0.179 1.041 0.292 0.629 0.852 1.693 1.382 2.691 0.006 0.011 0.013 0.021 0.018 0.034 0.031-0.013 0.062-0.023 0.093-0.034 0.213-0.078 0.418-0.152 0.597-0.222z" class="cls-6"/><path d="m60.65 21.355c-0.123 0.367-0.727 1.404-0.727 1.404s-2.382 4.08-2.519 4.328c-0.946 1.705-0.732 3.782-0.732 3.782l0.044 0.474s0.639 10.512 0.639 11.741c0 1.572-0.639 2.289-1.784 2.175-0.82-0.086-1.154-0.631-1.29-1.079-0.099-0.327-0.134-1.186-0.152-1.869-0.207 0.017-0.396 0.017-0.577-0.001-0.052 0.342-0.055 0.7-0.105 1.043-0.25 1.749-1.012 1.865-1.456 1.892-1.104 0.071-1.534-0.577-1.676-1.119-0.117-0.445-0.033-1.299-0.021-1.499 0.17-2.347 0.368-9.01 0.387-9.865 0.015-0.608-0.058-1.033-0.176-1.333-0.262-0.689-1.013-0.73-1.263-0.75-1.089-0.099-4.528-0.582-4.739-0.608-1.163-0.153-1.621-0.993-1.506-1.771 0.125-0.845 0.958-1.225 1.718-1.332 1.243-0.176 4.434-0.359 4.434-0.359 0.57-0.039 0.356-0.467 0.356-0.467s-0.269-0.569-0.778-1.512c-0.119-0.221-0.246-0.456-0.373-0.695 0.031-0.013 0.062-0.023 0.093-0.034 0.213-0.078 0.418-0.152 0.597-0.222 0.105-0.038 0.205-0.076 0.294-0.11 1.95-0.757 2.246-3.138 0.055-3.664-0.431-0.104-1.245-0.006-2.212 0.181-0.095 0.017-0.193 0.038-0.287 0.059-0.042 0.007-0.08 0.017-0.119 0.024 0.01-0.074 0.028-0.149 0.049-0.224 0.173-0.538 0.595-1.014 1.089-1.293 0.816-0.464 1.787-0.518 2.48 0.218 0.429 0.46 3.326 4.701 3.403 4.8 0.316 0.401 0.592 0.133 0.719-0.055 0.204-0.295 2.64-3.24 2.916-3.576 0.826-1.005 1.531-1.128 2.103-1.09 0.592 0.035 0.966 0.472 1.086 0.684 0.323 0.576 0.24 1.1 0.03 1.722zm-1.599-9.141c-1.086 1.322-3.28 1.165-4.876 0.021-0.095-0.072-0.177-0.125-0.233-0.18-0.081-0.077-0.108-0.142-0.114-0.161-0.261-0.77 2.987-0.14 3.467-2.641 0.192-0.995-0.638-2.399 0.048-2.16 1.279 0.446 3.482 2.963 1.708 5.121z" class="cls-7"/><path d="m120.24 44.556v-19.654h2.22v19.654h-2.22zm-5.97-7.497c-0.87-1.011-1.51-2.066-1.92-3.165-0.2 0.586-0.47 1.175-0.81 1.769-0.35 0.594-0.72 1.162-1.14 1.704s-0.88 1.041-1.36 1.495c-0.49 0.454-0.97 0.828-1.45 1.121l-1.35-1.297c0.81-0.572 1.52-1.246 2.12-2.022 0.61-0.777 1.12-1.613 1.53-2.507 0.4-0.893 0.7-1.828 0.9-2.803 0.2-0.974 0.3-1.96 0.32-2.957v-2.726h2.37v2.639c0 0.981 0.1 1.945 0.3 2.89 0.2 0.946 0.5 1.844 0.91 2.694 0.42 0.85 0.94 1.634 1.56 2.352 0.63 0.718 1.36 1.333 2.2 1.846l-1.35 1.451c-1.02-0.644-1.97-1.473-2.83-2.484zm-20.963 2.902h2.241v3.364h9.452v1.869h-11.693v-5.233zm9.353-1.407h-4.358v-1.715h4.358v-11.937h2.19v15.499h-2.19v-1.847zm-7.09-2.594v2.946h-2.284v-2.88h-0.597l-4.44 0.022v-1.737h3.628c0.769 0 1.608-0.014 2.519-0.044 0.91-0.029 1.814-0.073 2.71-0.132 0.883-0.044 1.719-0.099 2.509-0.165 0.785-0.066 1.465-0.135 2.015-0.209v1.716c-0.64 0.087-1.51 0.179-2.624 0.274-1.11 0.096-2.255 0.165-3.436 0.209zm2.241-3.715c-0.441 0.396-0.954 0.703-1.537 0.923s-1.203 0.33-1.857 0.33-1.27-0.11-1.846-0.33-1.078-0.527-1.505-0.923c-0.427-0.381-0.765-0.832-1.014-1.352s-0.373-1.081-0.373-1.682c0-0.586 0.124-1.136 0.373-1.649s0.587-0.96 1.014-1.341 0.929-0.685 1.505-0.913c0.576-0.227 1.192-0.34 1.846-0.34s1.274 0.113 1.857 0.34c0.583 0.228 1.096 0.532 1.537 0.913 0.427 0.381 0.768 0.828 1.024 1.341 0.257 0.513 0.384 1.063 0.384 1.649 0 0.601-0.127 1.162-0.384 1.682-0.256 0.52-0.597 0.971-1.024 1.352zm-1.558-4.716c-0.498-0.462-1.11-0.692-1.836-0.692-0.697 0-1.291 0.23-1.782 0.692s-0.736 1.022-0.736 1.682c0 0.674 0.245 1.242 0.736 1.704 0.491 0.461 1.085 0.692 1.782 0.692 0.726 0 1.338-0.231 1.836-0.692 0.498-0.462 0.747-1.03 0.747-1.704 0-0.66-0.249-1.22-0.747-1.682zm-12.23 6.254c-0.612-0.307-1.181-0.674-1.708-1.099-0.54-0.41-1.028-0.864-1.461-1.363-0.435-0.498-0.773-1.018-1.014-1.561-0.271 0.543-0.627 1.06-1.068 1.55-0.441 0.491-0.932 0.942-1.472 1.352-0.555 0.425-1.142 0.795-1.761 1.111-0.619 0.315-1.242 0.56-1.868 0.736l-1.174-1.517c0.84-0.278 1.629-0.652 2.37-1.121 0.739-0.469 1.387-1.004 1.942-1.605 0.541-0.601 0.971-1.249 1.291-1.946 0.32-0.695 0.48-1.418 0.48-2.165v-0.99h2.455v0.99c-0.014 0.747 0.135 1.477 0.448 2.187 0.313 0.711 0.74 1.374 1.281 1.99 0.54 0.615 1.174 1.158 1.899 1.627 0.726 0.469 1.501 0.821 2.327 1.055l-1.153 1.495c-0.597-0.176-1.202-0.418-1.814-0.726zm4.888 4.661h-7.855v6.332h-2.369v-6.332h-7.961v-1.846h18.185v1.846z" class="cls-1"/><path d="m187.16 48.097c-0.25 0.734-0.6 1.313-1.05 1.736-0.45 0.424-1.05 0.636-1.8 0.636-0.22 0-0.45-0.02-0.67-0.061s-0.44-0.094-0.65-0.159l0.13-1.369c0.2 0.065 0.4 0.126 0.6 0.183s0.41 0.086 0.62 0.086c0.23 0 0.45-0.058 0.64-0.172 0.18-0.113 0.34-0.26 0.48-0.44 0.13-0.179 0.25-0.378 0.34-0.599 0.1-0.22 0.19-0.444 0.26-0.672l0.94-2.617-4.21-11.346h1.5l3.43 9.512 3.34-9.512h1.44l-5.34 14.794zm-7.4-3.203c-0.48 0-0.89-0.078-1.23-0.232-0.35-0.155-0.63-0.363-0.83-0.624-0.21-0.261-0.37-0.566-0.46-0.917-0.1-0.35-0.15-0.729-0.15-1.137v-7.361h-2.24v-1.32h2.24v-3.253h1.35v3.253h2.96v1.32h-2.96v7.361c0 0.505 0.12 0.897 0.38 1.173 0.25 0.278 0.6 0.417 1.05 0.417 0.26 0 0.51-0.037 0.78-0.111 0.26-0.073 0.51-0.167 0.75-0.281l0.11 1.321c-0.25 0.097-0.55 0.187-0.88 0.269-0.33 0.081-0.62 0.122-0.87 0.122zm-8.37-14.966c-0.28 0-0.52-0.105-0.71-0.318-0.2-0.211-0.3-0.472-0.3-0.782s0.1-0.571 0.3-0.783c0.19-0.211 0.43-0.317 0.71-0.317 0.29 0 0.53 0.106 0.72 0.317 0.19 0.212 0.29 0.473 0.29 0.783s-0.1 0.571-0.29 0.782c-0.19 0.213-0.43 0.318-0.72 0.318zm-14.49 11.444c0.59 0.685 1.29 1.223 2.12 1.615 0.83 0.391 1.76 0.587 2.8 0.587 0.4 0 0.82-0.053 1.25-0.16 0.43-0.105 0.86-0.268 1.27-0.488 0.41-0.221 0.8-0.498 1.18-0.832 0.37-0.334 0.7-0.738 0.98-1.211l1.22 1.003c-0.77 1.125-1.65 1.932-2.65 2.421s-2.09 0.733-3.25 0.733c-1.22 0-2.33-0.224-3.34-0.672-1-0.448-1.87-1.076-2.59-1.883-0.71-0.807-1.27-1.768-1.68-2.885-0.4-1.117-0.6-2.335-0.6-3.656s0.2-2.535 0.6-3.644c0.41-1.108 0.97-2.066 1.68-2.873 0.72-0.807 1.59-1.439 2.59-1.895 1.01-0.457 2.12-0.685 3.34-0.685 1.07 0 2.08 0.208 3.01 0.624 0.94 0.415 1.76 1.112 2.46 2.09l-1.21 1.101c-0.5-0.815-1.13-1.41-1.9-1.785s-1.56-0.563-2.36-0.563c-1.04 0-1.97 0.196-2.8 0.587-0.83 0.392-1.53 0.929-2.12 1.614-0.58 0.685-1.03 1.492-1.34 2.421-0.32 0.929-0.47 1.932-0.47 3.008s0.15 2.078 0.47 3.008c0.31 0.929 0.76 1.736 1.34 2.42zm-11.39-3.227h5.54v1.32h-5.54v-1.32zm-4.57 4.744c-0.45 0.652-1.05 1.174-1.79 1.565s-1.65 0.586-2.73 0.586c-1.07 0-1.98-0.195-2.72-0.586s-1.34-0.913-1.8-1.565c-0.45-0.652-0.78-1.402-0.97-2.25-0.2-0.848-0.29-1.736-0.29-2.665v-10.687h1.48v10.271c0 0.62 0.05 1.28 0.16 1.981 0.1 0.7 0.3 1.353 0.61 1.956s0.74 1.1 1.3 1.492c0.56 0.391 1.31 0.587 2.23 0.587 0.93 0 1.68-0.196 2.24-0.587 0.56-0.392 0.99-0.889 1.3-1.492 0.3-0.603 0.51-1.256 0.61-1.956 0.11-0.701 0.16-1.361 0.16-1.981v-10.271h1.48v10.687c0 0.929-0.1 1.817-0.29 2.665-0.2 0.848-0.52 1.598-0.98 2.25zm31.13 1.711h-1.35v-11.297h1.35v11.297z" class="cls-8"/><path d="m139.83 12.562v4.082c-0.14 0.071-0.3 0.116-0.47 0.116s-0.33-0.047-0.47-0.12v-2.058c-0.22 0.23-0.58 0.403-1.07 0.522-0.53 0.141-1.27 0.21-2.21 0.21-0.47 0-0.86-0.029-1.19-0.085-0.29-0.05-0.48-0.168-0.58-0.352-0.07-0.145-0.11-0.411-0.11-0.797v-4.896h3.67v0.812h-2.73v3.999c0 0.19 0.08 0.308 0.23 0.349 0.25 0.079 0.66 0.114 1.21 0.114 0.87 0 1.47-0.052 1.81-0.159 0.65-0.198 0.97-0.518 0.97-0.961v-4.307h0.94v2.722h1.47v0.809h-1.47zm-8.6 4.198c-0.15 0-0.29-0.037-0.43-0.096v-2.243c-0.25 0.27-0.74 0.494-1.43 0.675-0.48 0.126-1.2 0.188-2.15 0.188-0.46 0-0.84-0.022-1.12-0.07-0.28-0.047-0.48-0.147-0.58-0.3-0.1-0.15-0.16-0.381-0.16-0.685v-5.061h0.95v4.696c0 0.244 0.1 0.392 0.3 0.448 0.21 0.059 0.55 0.088 1.03 0.088 0.82 0 1.44-0.051 1.85-0.144 0.87-0.202 1.31-0.511 1.31-0.921v-4.304h0.95v7.589c-0.15 0.087-0.33 0.14-0.52 0.14zm-15.04-3.723h7.66v0.78h-7.66v-0.78zm5.03-1.327c-0.6-0.342-0.99-0.724-1.19-1.148-0.19 0.436-0.55 0.814-1.09 1.129-0.51 0.295-1.11 0.509-1.81 0.628l-0.3-0.78c1.8-0.413 2.7-1.202 2.7-2.364v-0.144h0.97v0.153c0 0.573 0.25 1.069 0.74 1.482 0.48 0.394 1.15 0.69 2.01 0.888l-0.29 0.765c-0.61-0.09-1.19-0.288-1.74-0.609zm-6.96 1.926c-0.14 0.075-0.3 0.121-0.48 0.121-0.17 0-0.33-0.044-0.47-0.116v-4.61h0.95v1.849h1.33v0.811h-1.33v1.945zm-6.04 0.35l-0.35-0.75c1.84-0.582 2.83-1.535 2.99-2.862 0.03-0.252-0.06-0.378-0.28-0.378h-2.5v-0.812h3.23c0.42 0 0.62 0.208 0.6 0.628-0.07 1.115-0.4 2.012-1.01 2.688-0.6 0.679-1.49 1.173-2.68 1.486zm-2.52 0.825c-0.14 0.068-0.29 0.111-0.46 0.111-0.18 0-0.34-0.048-0.49-0.125v-5.766h0.95v2.126h1.33v0.81h-1.33v2.844zm-5.714-1.148c-0.255 0-0.435-0.059-0.539-0.179-0.102-0.12-0.153-0.311-0.153-0.57v-3.775h0.946v1.347h2.21v-1.347h0.95v4.032c0 0.455-0.36 0.492-0.36 0.492h-3.054zm2.464-2.369h-2.21v1.191c0 0.245 0.12 0.368 0.36 0.368h1.65c0.2 0 0.2-0.288 0.2-0.288v-1.271zm-7.921 5.466c-0.162 0-0.316-0.042-0.453-0.108v-7.621h0.954v7.598c-0.149 0.081-0.319 0.131-0.501 0.131zm-4.029-2.483c-0.735 0-1.322-0.232-1.757-0.694-0.434-0.461-0.652-1.088-0.652-1.886 0-0.79 0.219-1.417 0.657-1.881 0.438-0.466 1.022-0.697 1.752-0.697 0.734 0 1.318 0.231 1.753 0.697 0.435 0.464 0.653 1.091 0.653 1.881 0 0.798-0.218 1.425-0.653 1.886-0.435 0.462-1.019 0.694-1.753 0.694zm1.067-3.879c-0.269-0.318-0.627-0.476-1.067-0.476-0.444 0-0.798 0.158-1.069 0.476-0.272 0.321-0.407 0.753-0.407 1.299 0 0.545 0.135 0.977 0.407 1.298 0.271 0.32 0.625 0.48 1.069 0.48 0.44 0 0.798-0.16 1.067-0.48 0.271-0.321 0.407-0.753 0.407-1.298 0-0.546-0.136-0.978-0.407-1.299zm-5.556 3.55c-0.148 0.079-0.314 0.126-0.493 0.126-0.166 0-0.318-0.041-0.459-0.107v-0.982c-0.169 0.215-0.574 0.411-1.216 0.589-0.524 0.15-1.328 0.229-2.406 0.229-0.413 0-0.748-0.021-1.004-0.06-0.257-0.036-0.443-0.129-0.556-0.275-0.115-0.146-0.171-0.381-0.171-0.701v-1.346c0-0.385 0.303-0.415 0.303-0.415h2.72v-0.731c0-0.239-0.098-0.358-0.299-0.358h-2.707v-0.763h3.522c0.324 0 0.48 0.18 0.462 0.536v1.646c0 0.384-0.306 0.417-0.306 0.417h-2.752v0.73c0 0.237 0.128 0.37 0.384 0.399 0.234 0.033 0.567 0.048 1.004 0.048 0.879 0 1.504-0.039 1.875-0.118 0.372-0.079 0.63-0.164 0.778-0.251 0.248-0.155 0.369-0.379 0.369-0.678v-2.852h0.952l-0.01 1.881h1.339v0.811h-1.339l0.01 2.225zm-8.554 2.681c-0.15 0.082-0.317 0.131-0.499 0.131-0.163 0-0.313-0.042-0.449-0.106v-7.623h0.949l-0.006 2.769h1.336v0.811h-1.336l0.005 4.018zm-3.458-2.171c-0.411-0.524-0.698-1.043-0.859-1.56-0.119 0.525-0.372 1.045-0.755 1.558-0.359 0.482-0.761 0.865-1.207 1.149l-0.558-0.719c0.727-0.568 1.25-1.223 1.569-1.957 0.299-0.684 0.445-1.522 0.445-2.519v-1.271h0.97v1.277c0 1.878 0.684 3.336 2.057 4.379l-0.531 0.718c-0.367-0.21-0.744-0.56-1.131-1.055zm12.029 0.629v2.273c0 0.456-0.36 0.492-0.36 0.492h-4.24c-0.236 0-0.398-0.05-0.494-0.153-0.094-0.109-0.141-0.291-0.141-0.549v-2.507h4.858c0.264 0 0.391 0.15 0.377 0.444zm-0.996 0.65c0-0.19-0.08-0.285-0.247-0.285h-3.048v1.243c0 0.233 0.109 0.349 0.333 0.349h2.756c0.203 0 0.206-0.284 0.206-0.284v-1.023zm16.488 0.71c0 0.223 0.11 0.335 0.34 0.335h4.15v0.812h-4.88c-0.21 0-0.35-0.043-0.43-0.128-0.08-0.088-0.12-0.238-0.12-0.452v-2.296h0.95l-0.01 1.729zm8.51-1.285h3.28v-0.994h0.95v3.193c0 0.407-0.28 0.48-0.34 0.491h-4.21c-0.23 0-0.39-0.05-0.49-0.153-0.09-0.109-0.14-0.291-0.14-0.549v-2.982h0.95v0.994zm0 1.534c0 0.232 0.11 0.348 0.34 0.348h2.74c0.2 0 0.2-0.284 0.2-0.284v-0.789h-3.28v0.725zm8.16-1.382h3.68v-0.778h0.95v2.809c0 0.454-0.37 0.493-0.37 0.493h-4.56c-0.24 0-0.4-0.054-0.5-0.158-0.1-0.103-0.15-0.288-0.15-0.545v-2.599h0.95v0.778zm0 1.382c0 0.232 0.11 0.348 0.34 0.348h3.13c0.21 0 0.21-0.284 0.21-0.284v-0.665h-3.68v0.601z" class="cls-9"/></svg></svg>
