<svg xmlns="http://www.w3.org/2000/svg" xmlns:xlink="http://www.w3.org/1999/xlink" height="39" width="33" preserveAspectRatio="xMidYMid" viewBox="0 0 32.969 38.969"><defs><style>.cls-1 {        fill: #fff;        fill-rule: evenodd;      }</style></defs><path d="m31.713 8.794h-1.775v22.889c0 3.723-1.796 5.522-3.302 6.376-1.576 0.892-3.117 0.919-3.292 0.919h-0.001-12.934-0.02c-0.292 0-3.259-0.053-5.346-2.098-1.32-1.294-1.989-3.056-1.989-5.239v-22.847h-1.775c-0.701 0-1.269-0.563-1.269-1.258 0-0.694 0.568-1.257 1.269-1.257h3.043c0.701 0 1.268 0.563 1.268 1.257v24.105c0 1.478 0.411 2.635 1.222 3.436 1.386 1.372 3.557 1.386 3.588 1.386h12.944c0.408-0.006 4.058-0.188 4.058-4.78v-24.147c0-0.694 0.567-1.257 1.268-1.257h3.043c0.701 0 1.269 0.563 1.269 1.257 0 0.695-0.568 1.258-1.269 1.258zm-15.393 7.796c-2.823-0.073-5.045-2.399-4.97-5.196 0.072-2.792 3.951-9.024 5.453-11.404 2.747 4.608 5.014 9.206 4.747 11.677-0.299 2.774-2.419 4.997-5.23 4.923zm-8.954 11.069h10.652c0.56 0 1.014 0.45 1.014 1.006s-0.454 1.006-1.014 1.006h-10.652c-0.561 0-1.015-0.45-1.015-1.006s0.454-1.006 1.015-1.006zm11.666-3.522c0 0.557-0.454 1.007-1.014 1.007h-10.652c-0.561 0-1.015-0.45-1.015-1.007 0-0.556 0.454-1.006 1.015-1.006h10.652c0.56 0 1.014 0.45 1.014 1.006z" class="cls-1"/></svg>