<svg xmlns="http://www.w3.org/2000/svg" xmlns:xlink="http://www.w3.org/1999/xlink" height="44" width="41" preserveAspectRatio="xMidYMid" viewBox="0 0 41 44"><defs><style>.cls-1 {        fill: #8897aa;        fill-rule: evenodd;      }</style></defs><path d="m28.981 23.718c0 1.871-1.558 3.388-3.478 3.388-1.921 0-3.478-1.517-3.478-3.388 0-1.872 1.557-3.389 3.478-3.389 1.92 0 3.478 1.517 3.478 3.389zm-20.868 0c0-1.872 1.557-3.389 3.478-3.389 1.92 0 3.478 1.517 3.478 3.389 0 1.871-1.558 3.388-3.478 3.388-1.921 0-3.478-1.517-3.478-3.388zm29.332 6.53c-0.908 4.459-4.065 9.005-4.221 9.227-0.084 0.119-0.196 0.218-0.327 0.286-0.121 0.063-2.69 1.37-8.162 1.716-0.826 1.482-2.726 2.521-4.942 2.521-2.977 0-5.388-1.868-5.388-4.173 0-2.304 2.411-4.173 5.388-4.173 2.886 0 5.222 1.764 5.359 3.974 3.863-0.307 6.049-1.102 6.677-1.37 0.573-0.86 2.805-4.348 3.667-7.762h-1.716c-0.692 0.475-1.42 0.836-2.122 1.008-0.51 1.778-1.423 3.419-2.718 4.888-0.417 0.475-1.149 0.53-1.635 0.122-0.486-0.407-0.542-1.12-0.124-1.593 1.225-1.39 2.034-2.958 2.405-4.659 0.113-0.522 0.586-0.895 1.134-0.895 0.486 0 1.118-0.278 1.739-0.708v-6.633-0.565c-0.616 0-1.123-0.469-1.158-1.067-0.051-0.887-0.165-1.801-0.35-2.711-6.126-3.69-14.783 2.16-17.621-6.009-2.258 6.479-4.442 4.36-7.127 5.721-0.223 1.005-0.353 2.019-0.411 3-0.035 0.598-0.543 1.066-1.157 1.066-1.301 0-2.319 1.617-2.319 3.681 0 2.125 3.175 4.218 4.058 4.218 0.548 0 1.02 0.374 1.134 0.896 0.686 3.16 2.781 5.283 4.419 6.508 0.508 0.38 0.603 1.089 0.213 1.584-0.228 0.289-0.572 0.441-0.92 0.441-0.247 0-0.495-0.076-0.706-0.234-2.563-1.918-4.31-4.357-5.089-7.093-2.223-0.657-5.428-3.308-5.428-6.32 0-1.892 0.63-3.514 1.641-4.586-2.044-14.478 7.045-20.554 16.909-20.554 8.997 0 17.117 5.089 17.111 16.941h0.279c2.88 0 5.054 2.275 5.054 5.083v3.388c0 2.285-1.454 4.197-3.546 4.836z" class="cls-1"/></svg>