<svg xmlns="http://www.w3.org/2000/svg" xmlns:xlink="http://www.w3.org/1999/xlink" id="logo-Layer_1" style="enable-background:new 0 0 192.7 50.5" xml:space="preserve" viewBox="0 0 192.7 50.5" version="1.1" y="0px" x="0px" width="32" height="32"><style type="text/css">	.st0{fill:#717171;}	.st1{fill:#ED7700;}	.st2{fill:#007BC6;}	.st3{fill:#6CB42B;}	.st4{fill:#F9BE00;}	.st5{fill:#00814C;}	.st6{fill:#0C2F8B;}	.st7{fill:#E84821;}	.st8{fill:#007BC6;stroke:#007BC6;stroke-miterlimit:10;}	.st9{fill:#6CB42B;stroke:#6CB42B;stroke-width:0.3;stroke-miterlimit:10;}</style><path class="st0" d="m73.6 10.4v-1.2h-1v1.3c0 1-0.1 1.8-0.4 2.5s-0.8 1.4-1.6 2l0.6 0.7c0.4-0.3 0.8-0.7 1.2-1.1 0.4-0.5 0.6-1 0.8-1.6 0.2 0.5 0.4 1 0.9 1.6 0.4 0.5 0.8 0.8 1.1 1.1l0.5-0.7c-1.4-1.2-2.1-2.7-2.1-4.6zm5.2 1.4h-1.3v-2.8h-0.9v7.6c0.1 0.1 0.3 0.1 0.4 0.1 0.2 0 0.3 0 0.5-0.1v-4h1.3v-0.8z"/><path class="st0" d="m94.1 9v7.6c0.1 0.1 0.3 0.1 0.5 0.1s0.4 0 0.5-0.1v-7.6h-1zm-3.6 0.1c-0.7 0-1.3 0.2-1.8 0.7-0.4 0.5-0.7 1.1-0.7 1.9s0.2 1.4 0.7 1.9c0.4 0.5 1 0.7 1.8 0.7 0.7 0 1.3-0.2 1.8-0.7 0.4-0.5 0.7-1.1 0.7-1.9s-0.2-1.4-0.7-1.9c-0.5-0.4-1.1-0.7-1.8-0.7zm1 3.9c-0.3 0.3-0.6 0.5-1.1 0.5-0.4 0-0.8-0.2-1.1-0.5s-0.4-0.8-0.4-1.3 0.1-1 0.4-1.3 0.6-0.5 1.1-0.5c0.4 0 0.8 0.2 1.1 0.5s0.4 0.8 0.4 1.3c0 0.6-0.1 1-0.4 1.3z"/><path class="st0" d="m130.8 16.7c0.1 0.1 0.3 0.1 0.4 0.1 0.2 0 0.4-0.1 0.5-0.1v-7.7h-0.9v4.3c0 0.4-0.4 0.7-1.3 0.9-0.4 0.1-1 0.1-1.8 0.1-0.5 0-0.8 0-1-0.1s-0.3-0.2-0.3-0.4v-4.6h-0.9v5.1c0 0.3 0.1 0.5 0.2 0.7s0.3 0.3 0.6 0.3 0.7 0.1 1.1 0.1c0.9 0 1.7-0.1 2.1-0.2 0.7-0.2 1.2-0.4 1.4-0.7v2.2z"/><path class="st0" d="m139.8 11.8v-2.8h-0.9v4.3c0 0.4-0.3 0.8-1 1-0.3 0.1-0.9 0.2-1.8 0.2-0.6 0-1 0-1.2-0.1-0.2 0-0.2-0.2-0.2-0.3v-4h2.7v-0.9h-3.7v4.9c0 0.4 0 0.7 0.1 0.8 0.1 0.2 0.3 0.3 0.6 0.4s0.7 0.1 1.2 0.1c0.9 0 1.7-0.1 2.2-0.2s0.9-0.3 1.1-0.5v2.1c0.1 0.1 0.3 0.1 0.5 0.1s0.3 0 0.5-0.1v-4.1h1.5v-0.8h-1.6z"/><path class="st0" d="m86 10.9v-1.9h-1v2.9c0 0.3-0.1 0.5-0.4 0.7-0.1 0.1-0.4 0.2-0.8 0.3s-1 0.1-1.9 0.1h-1c-0.3 0-0.4-0.2-0.4-0.4v-0.7h2.8s0.3 0 0.3-0.4v-1.8c0-0.4-0.1-0.5-0.5-0.5h-3.5v0.8h2.7c0.2 0 0.3 0.1 0.3 0.4v0.6h-2.6s-0.3 0-0.3 0.4v1.3c0 0.3 0.1 0.6 0.2 0.7s0.3 0.2 0.6 0.3c0.3 0 0.6 0.1 1 0.1 1.1 0 1.9-0.1 2.4-0.2 0.6-0.2 1-0.4 1.2-0.6v1c0.1 0.1 0.3 0.1 0.5 0.1s0.3 0 0.5-0.1v-2.2h1.3v-0.8h-1.4zm-0.4 3.8h-4.9v2.5c0 0.3 0 0.4 0.1 0.5s0.3 0.2 0.5 0.2h4.2s0.4 0 0.4-0.5v-2.3c0.1-0.3 0-0.4-0.3-0.4zm-0.6 2.1s0 0.3-0.2 0.3h-2.8c-0.2 0-0.3-0.1-0.3-0.3v-1.2h3c0.2 0 0.2 0.1 0.2 0.3v0.9z"/><path class="st0" d="m103.4 13.2v-4h-0.9v1.3h-2.2v-1.3h-0.9v3.8c0 0.3 0.1 0.5 0.2 0.6s0.3 0.2 0.5 0.2h3.1c-0.2-0.1 0.2-0.2 0.2-0.6zm-1-0.6s0 0.3-0.2 0.3h-1.7c-0.2 0-0.4-0.1-0.4-0.4v-1.2h2.2v1.3zm3.3-1.4v-2.1h-1v5.8c0.1 0.1 0.3 0.1 0.5 0.1s0.3 0 0.5-0.1v-2.8h1.3v-0.8h-1.3zm-4.2 5.3v-1.7h-0.9v2.2c0 0.2 0 0.4 0.1 0.5s0.2 0.1 0.4 0.1h4.9v-0.8h-4.2c-0.2 0-0.3-0.1-0.3-0.3z"/><path class="st0" d="m110.9 12.5c0.6-0.7 0.9-1.6 1-2.7 0-0.4-0.2-0.6-0.6-0.6h-3.2v0.8h2.5c0.2 0 0.3 0.1 0.3 0.4-0.2 1.3-1.2 2.3-3 2.9l0.4 0.8c1.1-0.4 2-0.9 2.6-1.6zm2.4 2.7h-3.3v-1h-1v3c0 0.3 0 0.4 0.1 0.5s0.3 0.2 0.5 0.2h4.2c0.1 0 0.3-0.1 0.3-0.5v-3.2h-1v1zm0 1.6s0 0.3-0.2 0.3h-2.7c-0.2 0-0.3-0.1-0.3-0.3v-0.8h3.3v0.8zm0.9-5.9v-1.8h-1v4.6c0.1 0.1 0.3 0.1 0.5 0.1s0.3 0 0.5-0.1v-1.9h1.3v-0.8h-1.3z"/><path class="st0" d="m118.9 11.7c0.5-0.3 0.9-0.7 1.1-1.1 0.2 0.4 0.6 0.8 1.2 1.1s1.1 0.5 1.7 0.6l0.3-0.8c-0.9-0.2-1.5-0.5-2-0.9s-0.7-0.9-0.7-1.5v-0.1h-1v0.1c0 1.2-0.9 2-2.7 2.4l0.3 0.8c0.7-0.1 1.3-0.3 1.8-0.6zm-2.7 1.4v0.8h7.7v-0.8h-7.7zm5.6 2.2h-3.7v-0.8h-0.9v2.6c0 0.3 0 0.4 0.1 0.5s0.3 0.2 0.5 0.2h4.6s0.4 0 0.4-0.5v-2.8h-0.9v0.8zm0 1.5s0 0.3-0.2 0.3h-3.1c-0.2 0-0.3-0.1-0.3-0.3v-0.6h3.7v0.6z"/><path class="st1" d="m44.5 5.7c0.8-0.3 2-0.5 1.4-1.2-0.4-0.5-1.5-0.3-1.7-1.1-0.1-0.5 0.3-1.2 0-1.7-0.4-0.7-1.4 0.7-1.7 0.9s-0.9-0.1-1.2-0.2c-0.5-0.2-1-0.2-1 0.5s0.8 1.2 0.3 2c-0.2 0.3-1.8 1.3-0.9 1.7s2-0.9 2.8-0.1c0.1 0.2 0.7 1.1 1.2 1.5 0.4 0.3 0.5 0.1 0.6-0.1 0.1-0.6 0-1.1 0-1.7-0.1-0.3 0-0.4 0.2-0.5z"/><path class="st2" d="m53.8 11.9c-0.3-0.8 3-0.1 3.5-2.6 0.2-1-0.6-2.4 0-2.2 1.3 0.4 3.5 3 1.7 5.1-1.1 1.3-3.3 1.2-4.9 0-0.1-0.1-0.2-0.1-0.2-0.2-0.1 0-0.1-0.1-0.1-0.1z"/><path class="st3" d="m10.3 6.5c-0.2 0.1-0.3 0.2-0.4 0.2-0.6 0.2-1.2 0.6-1.2 1.3s0.5 1.4 0.4 2.1c-0.1 0.6-0.5 1.3-1 1.6-0.9 0.4-1.2-1.8-1.4-2.3-0.3-0.4-0.5-0.4-0.9-0.2-0.2 0.1-1.2 1.2-1.6 0.9-0.3-0.2-0.5-0.7-0.7-0.9-0.1-0.2-0.2-0.6 0-0.8s0.7-0.2 1-0.3c0.9-0.2 1.2-0.6 0.7-1.1-0.4-0.3-0.9-0.6-1.3-0.9-0.5-0.4-0.5-0.8 0.1-1 0.8-0.2 1.4-0.1 2.1 0.3 0.3 0.2 0.5 0.6 0.9 0.7 0.7 0.2 1.2-0.3 1.8-0.4 0.5-0.2 1.1 0 1.6 0.2 0.4 0.2 0.2 0.4-0.1 0.6z"/><path class="st3" d="m13.5 26.2c-2.9 0.4-3.4-2.6-0.9-3.8 0.3-0.1 0.8-0.4 1.6-0.7 0-0.2 0.1-0.4 0.1-0.5 0.2-1.2 0.5-3.3 0.6-3.5 0.5-2.6-3.6-3.4-4.3-1.3-0.4 1.1-0.8 2.4-1.6 5.1-0.1 0.4-0.5 0.5-0.7 0.6-0.1 0-0.4 0-0.7 0.1-0.8 0-2.4 0.2-5.1 0.3-1.6 0-2.5 0.5-2.5 1.8 0 1.6 1.7 1.8 2.8 2 1.3 0.2 2.7 0.2 3.5 0.4 0.7 0.2 0.9 0.4 0.8 1 0 0.2-0.9 10.8-0.9 10.9 0 0.2-0.1 3.2-0.1 4.5 0 2.1 1.3 2.2 1.3 2.2 1.8 0.3 2-1.8 2-1.8s0-0.5 0.1-1.3h0.6c0 0.4 0.1 0.8 0.2 1.2 0.4 2.1 1.7 1.9 1.7 1.9 1.8-0.1 1.6-2.1 1.6-2.1 0-0.9-0.2-10.3-0.1-13.4 0-0.9 0.9-0.4 0.9-0.4l2 1.3c1.6 1.1 2.6 0.8 3.1 0.2 0.7-0.9 0.3-2.1-0.4-2.7-0.6-0.5-1.7-1.6-2.8-2.6-0.4 0.1-0.9 0.2-1.3 0.3-0.8 0.2-1.4 0.3-1.5 0.3z"/><path class="st4" d="m28.1 18.7c0.5 0.1 1.1 0.2 1.6 0.4l1.2 0.3c1.5-1.5 2.9-3 3.5-3.7 0.5-0.5 0.8-1 1-1.4 0.4-1.2-0.2-2-1.1-2.3-0.4-0.2-1.1-0.2-1.9 0.3-1.6 0.8-3.7 2.8-4.8 3.5-0.6 0.4-1.4 0.7-2-0.5-1.1-1.9-2.6-5-3-5.5-0.8-1.1-2.6-1-3.8-0.1 0 0-1.3 0.7-1 2.2 0.2 0.9 1.8 5.4 2 6s0.1 1.3-1 1.9c-0.5 0.3-2.3 1-3.8 1.6-0.2 0.1-0.5 0.2-0.7 0.3-0.1 0.4-0.1 0.8-0.1 0.9 0 0.7 0.1 0.9 0.4 1.1l1.9 1.9c1.6-0.3 3.1-0.6 3.1-0.6s1.4-0.2 1.4 1.7c0 4.3 0 12.5-0.2 15.5 0 0.2-0.1 0.9 0 1.4 0.1 0.7 0.5 1.7 1.8 1.8 0.8 0 2.1 0 2.5-2.4 0.1-0.5 0.1-0.9 0.2-1.4h0.8c0 0.4 0.1 0.9 0.1 1.2s0 0.8 0.1 1.1c0.2 0.7 0.6 1.6 2.1 1.5 0 0 2.1 0 1.9-2.9-0.4-9.1-0.9-14.7-1.1-17.3 0-0.6-0.1-1-0.1-1.3v-0.4c-1.1-0.5-2-0.8-2.7-1.3-1.6-1.1-0.9-4 1.7-3.5z"/><path class="st5" d="m14.4 23.8c-0.2-0.3-0.4-0.4-0.4-1.1 0-0.1 0.1-0.5 0.1-0.9-0.8 0.3-1.3 0.6-1.6 0.7-2.5 1.2-2 4.2 0.9 3.8 0.1 0 0.7-0.1 1.5-0.3 0.4-0.1 0.8-0.2 1.3-0.3-0.9-1-1.8-1.9-1.8-1.9z"/><path class="st1" d="m46.9 21.2c0-0.1-0.3-0.5-0.2-1-1.6 0.3-3.2 0.8-4.5 1-0.7 0.1-0.6-0.6-0.7-1.2 0-0.7 0.2-5.1 0.2-5.9 0-1-0.7-1.8-2.2-2-1.4-0.1-2.3 0.6-2.6 1.6-0.4 1.5-1 4-1.3 5.2-0.4 1.6-1.2 1.4-2.3 1.1-1-0.3-1.8-0.5-2.5-0.7-0.3 0.3-0.6 0.6-0.9 0.8-0.3 0.3-0.5 0.5-0.6 0.7-0.4 0.6-0.5 1.3-0.5 2.5 0.1 0.1 0.3 0.1 0.4 0.2 1 0.4 1.8 0.7 2.8 1.3 1.4 0.7 1.7 1 1.7 1.7 0 0.8-1 15.7-1 16.2-0.1 2.5 1.9 2.6 1.9 2.6 1.9 0.2 2.1-2 2.1-2s0.1-0.7 0.2-1.5h0.7c0 0.4 0.1 0.8 0.1 1.2 0.2 2.3 2 2.2 2 2.2 2.1 0 2-2.3 2-2.3-0.1-0.7-0.4-13.8-0.3-14.7 0-0.8 0-1.6 0.7-2s4-1.6 6-2.3c-0.3-1-0.9-2-1.2-2.7z"/><path class="st2" d="m60.6 19.7c-0.1-0.2-0.5-0.6-1.1-0.7-0.6 0-1.3 0.1-2.1 1.1-0.3 0.3-2.7 3.3-2.9 3.6-0.1 0.2-0.4 0.5-0.7 0.1-0.1-0.1-3-4.3-3.4-4.8-0.7-0.7-1.7-0.7-2.5-0.2-0.5 0.3-0.9 0.8-1.1 1.3v0.2h0.1c0.1 0 0.2 0 0.3-0.1 1-0.2 1.8-0.3 2.2-0.2 2.2 0.5 1.9 2.9-0.1 3.7-0.1 0-0.2 0.1-0.3 0.1-0.2 0.1-0.4 0.1-0.6 0.2h-0.1c0.1 0.2 0.3 0.5 0.4 0.7 0.5 0.9 0.8 1.5 0.8 1.5s0.2 0.4-0.4 0.5-3.2 0.2-4.4 0.4c-0.8 0.1-1.6 0.5-1.7 1.3s0.3 1.6 1.5 1.8c0.2 0 3.6 0.5 4.7 0.6 0.3 0 1 0.1 1.3 0.8 0.1 0.3 0.2 0.7 0.2 1.3 0 0.9-0.2 7.5-0.4 9.9 0 0.2-0.1 1.1 0 1.5 0.1 0.5 0.6 1.2 1.7 1.1 0.4 0 1.2-0.1 1.5-1.9 0.1-0.3 0.1-0.7 0.1-1h0.6c0 0.7 0.1 1.5 0.2 1.9s0.5 1 1.3 1.1c1.1 0.1 1.8-0.6 1.8-2.2 0-1.2-0.6-11.7-0.6-11.7v-0.5s-0.2-2.1 0.7-3.8c0.1-0.2 2.5-4.3 2.5-4.3s0.6-1 0.7-1.4c0-0.8 0.1-1.4-0.2-1.9z"/><path class="st6" d="m49 23.7c0.1 0 0.2-0.1 0.3-0.1 2-0.8 2.2-3.1 0.1-3.7-0.4-0.1-1.2 0-2.2 0.2-0.1 0-0.2 0-0.3 0.1h-0.1c-0.1 0.5 0.1 1 0.2 1 0.3 0.6 0.9 1.7 1.4 2.7h0.1c0.1-0.1 0.3-0.1 0.5-0.2z"/><path class="st7" d="m29.5 21c0.2-0.2 0.4-0.5 0.6-0.7 0.3-0.3 0.6-0.6 0.9-0.8l-1.2-0.3c-0.6-0.2-1.1-0.3-1.6-0.4-2.7-0.5-3.4 2.4-1.8 3.4 0.7 0.5 1.6 0.8 2.7 1.3-0.1-1.3 0-2 0.4-2.5z"/><path class="st4" d="m30 1.6c-0.3-0.3-0.6-0.5-0.9-0.6-1.1-0.4-2.3 0.3-3.2 0.8-0.4-0.5-0.9-1-1.7-1.3h-0.1l-0.6-0.3c-0.1-0.2-0.3-0.2-0.5-0.2-0.6 0-1 0.3-1.2 0.6-0.4 0.5-0.5 1.2-0.5 1.9 0 0.5 0.2 1 0.5 1.3 0.2 0.2 0.5 0.4 0.8 0.5 1 0.3 2.1-0.2 2.9-0.6 0.4 0.5 0.8 1 1.4 1.3 0.1 0.1 0.3 0.1 0.4 0.2 1.1 0.4 2.1 0 2.6-0.9 0-0.1 0.9-1.8 0.1-2.7zm-6.7 1.9c-0.1 0-0.2-0.1-0.2-0.2-0.1-0.1-0.1-0.3-0.2-0.6 0-0.3 0-0.7 0.1-1s0.3-0.3 0.5-0.2c0.1 0.1 0.2 0.1 0.4 0.2h0.1c0.6 0.3 1 0.6 1.4 1.1-0.8 0.5-1.6 0.9-2.1 0.7zm5.4-0.1c-0.2 0.5-0.9 0.3-1.1 0.2-0.1 0-0.2-0.1-0.3-0.1-0.4-0.2-0.8-0.6-1.1-1 0.8-0.5 1.8-1 2.4-0.7 0.4 0.1 0.5 0.4 0.4 0.7-0.1 0.2-0.2 0.6-0.3 0.9z"/>	<path class="st8" d="m141.7 37.5c0 0.9-0.1 1.8-0.3 2.7-0.2 0.8-0.5 1.6-1 2.3s-1.1 1.2-1.8 1.6-1.6 0.6-2.7 0.6-2-0.2-2.7-0.6c-0.7-0.4-1.3-0.9-1.8-1.6s-0.8-1.4-1-2.3c-0.2-0.8-0.3-1.7-0.3-2.7v-10.7h1.5v10.3c0 0.6 0.1 1.3 0.2 2s0.3 1.4 0.6 2 0.7 1.1 1.3 1.5 1.3 0.6 2.2 0.6 1.7-0.2 2.2-0.6c0.6-0.4 1-0.9 1.3-1.5s0.5-1.3 0.6-2 0.2-1.4 0.2-2v-10.3h1.5v10.7z"/>	<path class="st8" d="m145 37.7h5.5v1.3h-5.5v-1.3z"/>	<path class="st8" d="m167.2 41.4c-0.8 1.1-1.6 1.9-2.6 2.4s-2.1 0.7-3.3 0.7-2.3-0.2-3.3-0.7c-1-0.4-1.9-1.1-2.6-1.9s-1.3-1.8-1.7-2.9-0.6-2.3-0.6-3.7c0-1.3 0.2-2.5 0.6-3.6s1-2.1 1.7-2.9 1.6-1.4 2.6-1.9 2.1-0.7 3.3-0.7c1.1 0 2.1 0.2 3 0.6s1.8 1.1 2.5 2.1l-1.2 1.1c-0.5-0.8-1.1-1.4-1.9-1.8s-1.6-0.6-2.4-0.6c-1 0-2 0.2-2.8 0.6s-1.5 0.9-2.1 1.6-1 1.5-1.3 2.4c-0.3 0.9-0.5 1.9-0.5 3s0.2 2.1 0.5 3 0.8 1.7 1.3 2.4c0.6 0.7 1.3 1.2 2.1 1.6s1.8 0.6 2.8 0.6c0.4 0 0.8-0.1 1.3-0.2 0.4-0.1 0.9-0.3 1.3-0.5s0.8-0.5 1.2-0.8 0.7-0.7 1-1.2l1.1 1.3z"/>	<path class="st8" d="m169.8 28.4c0-0.3 0.1-0.6 0.3-0.8s0.4-0.3 0.7-0.3 0.5 0.1 0.7 0.3 0.3 0.5 0.3 0.8-0.1 0.6-0.3 0.8-0.4 0.3-0.7 0.3-0.5-0.1-0.7-0.3c-0.2-0.3-0.3-0.5-0.3-0.8zm0.4 4.4h1.3v11.3h-1.3v-11.3z"/>	<path class="st8" d="m180.9 34.2h-3v7.4c0 0.5 0.1 0.9 0.4 1.2s0.6 0.4 1.1 0.4c0.3 0 0.5 0 0.8-0.1s0.5-0.2 0.8-0.3v1.2c-0.3 0.1-0.5 0.2-0.9 0.3-0.3 0.1-0.6 0.1-0.9 0.1-0.5 0-0.9-0.1-1.2-0.2-0.3-0.2-0.6-0.4-0.8-0.6-0.2-0.3-0.4-0.6-0.5-0.9-0.1-0.4-0.1-0.7-0.1-1.1v-7.4h-2.2v-1.3h2.2v-3.3h1.3v3.3h3v1.3z"/>	<path class="st8" d="m186.6 47.6c-0.3 0.7-0.6 1.3-1.1 1.7-0.4 0.4-1 0.6-1.8 0.6-0.2 0-0.4 0-0.7-0.1s-0.4-0.1-0.7-0.2l0.1-1.4c0.2 0.1 0.4 0.1 0.6 0.2s0.4 0.1 0.6 0.1 0.5-0.1 0.6-0.2c0.2-0.1 0.3-0.3 0.5-0.4 0.1-0.2 0.3-0.4 0.3-0.6 0.1-0.2 0.2-0.4 0.3-0.7l0.9-2.6-4.2-11.4h1.5l3.4 9.5 3.3-9.5h1.4l-5 15z"/>	<path class="st9" d="m78.7 38.5h-8v-1.8h18.2v1.8h-7.9v6.3h-2.4v-6.3zm8.3-5.5l-1.2 1.5c-0.6-0.2-1.2-0.4-1.8-0.7s-1.2-0.7-1.7-1.1-1-0.9-1.5-1.4c-0.4-0.5-0.8-1-1-1.6-0.3 0.5-0.6 1.1-1.1 1.6s-0.9 0.9-1.5 1.4c-0.6 0.4-1.1 0.8-1.8 1.1-0.6 0.3-1.2 0.6-1.9 0.7l-1-1.5c0.8-0.3 1.6-0.7 2.4-1.1 0.7-0.5 1.4-1 1.9-1.6s1-1.3 1.3-1.9c0.3-0.7 0.5-1.4 0.5-2.2v-1h2.4v1c0 0.7 0.1 1.5 0.4 2.2s0.7 1.4 1.3 2c0.5 0.6 1.2 1.2 1.9 1.6s1.5 0.8 2.4 1z"/>	<path class="st9" d="m93.3 36.1h-0.6-4.4v-1.7h3.6 2.5c0.9 0 1.8-0.1 2.7-0.1s1.7-0.1 2.5-0.2 1.5-0.1 2-0.2v1.7c-0.6 0.1-1.5 0.2-2.6 0.3s-2.3 0.2-3.4 0.2v2.9h-2.3v-2.9zm5.9-6.9c0 0.6-0.1 1.2-0.4 1.7s-0.6 1-1 1.4-1 0.7-1.5 0.9c-0.6 0.2-1.2 0.3-1.9 0.3s-1.3-0.1-1.8-0.3c-0.6-0.2-1.1-0.5-1.6-0.9-0.4-0.4-0.8-0.8-1-1.4s-0.4-1.1-0.4-1.7c0-0.6 0.1-1.1 0.4-1.6s0.6-1 1-1.3c0.4-0.4 0.9-0.7 1.5-0.9s1.2-0.3 1.8-0.3c0.7 0 1.3 0.1 1.9 0.3s1.1 0.5 1.5 0.9 0.8 0.8 1 1.3c0.4 0.5 0.5 1.1 0.5 1.6zm-2.2 0c0-0.7-0.2-1.2-0.7-1.7s-1.1-0.7-1.8-0.7c-0.7 0-1.3 0.2-1.8 0.7s-0.7 1-0.7 1.7 0.2 1.2 0.7 1.7 1.1 0.7 1.8 0.7 1.3-0.2 1.8-0.7c0.4-0.4 0.7-1 0.7-1.7zm-3.7 10.8h2.2v3.4h9.5v1.9h-11.7v-5.3zm9.3-1.4h-4.4v-1.7h4.4v-12h2.2v15.5h-2.2v-1.8z"/>	<path class="st9" d="m118.4 38.1l-1.3 1.5c-1-0.6-2-1.5-2.8-2.5-0.9-1-1.5-2.1-1.9-3.2-0.2 0.6-0.5 1.2-0.8 1.8s-0.7 1.2-1.1 1.7-0.9 1-1.4 1.5-1 0.8-1.5 1.1l-1.3-1.3c0.8-0.6 1.5-1.2 2.1-2s1.1-1.6 1.5-2.5c0.4-0.9 0.7-1.8 0.9-2.8s0.3-2 0.3-3v-2.7h2.4v2.6c0 1 0.1 1.9 0.3 2.9 0.2 0.9 0.5 1.8 0.9 2.7s0.9 1.6 1.6 2.4 1.3 1.3 2.1 1.8zm1.8 6.5v-19.7h2.2v19.7h-2.2z"/></svg>