<?xml version="1.0" encoding="utf-8"?>
<!-- Generator: Adobe Illustrator 19.0.0, SVG Export Plug-In . SVG Version: 6.00 Build 0)  -->
<svg version="1.1" id="Layer_1" xmlns="http://www.w3.org/2000/svg" xmlns:xlink="http://www.w3.org/1999/xlink" x="0px" y="0px"
	 viewBox="0 0 192.7 50.5" style="enable-background:new 0 0 192.7 50.5;" xml:space="preserve">
<path style="fill:#717171;" d="M73.6,10.4V9.2h-1v1.3c0,1-0.1,1.8-0.4,2.5c-0.3,0.7-0.8,1.4-1.6,2l0.6,0.7c0.4-0.3,0.8-0.7,1.2-1.1
	c0.4-0.5,0.6-1,0.8-1.6c0.2,0.5,0.4,1,0.9,1.6c0.4,0.5,0.8,0.8,1.1,1.1l0.5-0.7C74.3,13.8,73.6,12.3,73.6,10.4z M78.8,11.8h-1.3
	l0-2.8h-0.9v7.6c0.1,0.1,0.3,0.1,0.4,0.1c0.2,0,0.3,0,0.5-0.1l0-4h1.3V11.8z"/>
<path style="fill:#717171;" d="M94.1,9v7.6c0.1,0.1,0.3,0.1,0.5,0.1c0.2,0,0.4,0,0.5-0.1V9H94.1z M90.5,9.1c-0.7,0-1.3,0.2-1.8,0.7
	c-0.4,0.5-0.7,1.1-0.7,1.9c0,0.8,0.2,1.4,0.7,1.9c0.4,0.5,1,0.7,1.8,0.7c0.7,0,1.3-0.2,1.8-0.7c0.4-0.5,0.7-1.1,0.7-1.9
	c0-0.8-0.2-1.4-0.7-1.9C91.8,9.4,91.2,9.1,90.5,9.1z M91.5,13c-0.3,0.3-0.6,0.5-1.1,0.5c-0.4,0-0.8-0.2-1.1-0.5
	c-0.3-0.3-0.4-0.8-0.4-1.3c0-0.5,0.1-1,0.4-1.3c0.3-0.3,0.6-0.5,1.1-0.5c0.4,0,0.8,0.2,1.1,0.5c0.3,0.3,0.4,0.8,0.4,1.3
	C91.9,12.3,91.8,12.7,91.5,13z"/>
<path style="fill:#717171;" d="M130.8,16.7c0.1,0.1,0.3,0.1,0.4,0.1c0.2,0,0.4-0.1,0.5-0.1V9h-0.9v4.3c0,0.4-0.4,0.7-1.3,0.9
	c-0.4,0.1-1,0.1-1.8,0.1c-0.5,0-0.8,0-1-0.1c-0.2-0.1-0.3-0.2-0.3-0.4V9.2h-0.9v5.1c0,0.3,0.1,0.5,0.2,0.7c0.1,0.2,0.3,0.3,0.6,0.3
	c0.3,0,0.7,0.1,1.1,0.1c0.9,0,1.7-0.1,2.1-0.2c0.7-0.2,1.2-0.4,1.4-0.7V16.7z"/>
<path style="fill:#717171;" d="M139.8,11.8V9h-0.9v4.3c0,0.4-0.3,0.8-1,1c-0.3,0.1-0.9,0.2-1.8,0.2c-0.6,0-1,0-1.2-0.1
	c-0.2,0-0.2-0.2-0.2-0.3v-4h2.7V9.2h-3.7v4.9c0,0.4,0,0.7,0.1,0.8c0.1,0.2,0.3,0.3,0.6,0.4c0.3,0.1,0.7,0.1,1.2,0.1
	c0.9,0,1.7-0.1,2.2-0.2c0.5-0.1,0.9-0.3,1.1-0.5v2.1c0.1,0.1,0.3,0.1,0.5,0.1c0.2,0,0.3,0,0.5-0.1v-4.1h1.5v-0.8H139.8z"/>
<path style="fill:#717171;" d="M86,10.9L86,9h-1v2.9c0,0.3-0.1,0.5-0.4,0.7c-0.1,0.1-0.4,0.2-0.8,0.3c-0.4,0.1-1,0.1-1.9,0.1
	c-0.4,0-0.8,0-1,0c-0.3,0-0.4-0.2-0.4-0.4v-0.7h2.8c0,0,0.3,0,0.3-0.4V9.7c0-0.4-0.1-0.5-0.5-0.5h-3.5v0.8h2.7
	c0.2,0,0.3,0.1,0.3,0.4V11H80c0,0-0.3,0-0.3,0.4v1.3c0,0.3,0.1,0.6,0.2,0.7c0.1,0.1,0.3,0.2,0.6,0.3c0.3,0,0.6,0.1,1,0.1
	c1.1,0,1.9-0.1,2.4-0.2c0.6-0.2,1-0.4,1.2-0.6v1c0.1,0.1,0.3,0.1,0.5,0.1c0.2,0,0.3,0,0.5-0.1l0-2.2h1.3v-0.8H86z M85.6,14.7h-4.9
	v2.5c0,0.3,0,0.4,0.1,0.5c0.1,0.1,0.3,0.2,0.5,0.2h4.2c0,0,0.4,0,0.4-0.5v-2.3C86,14.8,85.9,14.7,85.6,14.7z M85,16.8
	c0,0,0,0.3-0.2,0.3H82c-0.2,0-0.3-0.1-0.3-0.3v-1.2h3c0.2,0,0.2,0.1,0.2,0.3V16.8z"/>
<path style="fill:#717171;" d="M103.4,13.2v-4h-0.9v1.3h-2.2V9.2h-0.9v3.8c0,0.3,0.1,0.5,0.2,0.6c0.1,0.1,0.3,0.2,0.5,0.2h3.1
	C103,13.7,103.4,13.6,103.4,13.2z M102.4,12.6c0,0,0,0.3-0.2,0.3h-1.7c-0.2,0-0.4-0.1-0.4-0.4v-1.2h2.2V12.6z M105.7,11.2l0-2.1h-1
	v5.8c0.1,0.1,0.3,0.1,0.5,0.1c0.2,0,0.3,0,0.5-0.1l0-2.8h1.3v-0.8H105.7z M101.5,16.5l0-1.7h-0.9V17c0,0.2,0,0.4,0.1,0.5
	c0.1,0.1,0.2,0.1,0.4,0.1h4.9v-0.8h-4.2C101.6,16.8,101.5,16.7,101.5,16.5z"/>
<path style="fill:#717171;" d="M110.9,12.5c0.6-0.7,0.9-1.6,1-2.7c0-0.4-0.2-0.6-0.6-0.6h-3.2V10h2.5c0.2,0,0.3,0.1,0.3,0.4
	c-0.2,1.3-1.2,2.3-3,2.9l0.4,0.8C109.4,13.7,110.3,13.2,110.9,12.5z M113.3,15.2H110v-1h-1v3c0,0.3,0,0.4,0.1,0.5
	c0.1,0.1,0.3,0.2,0.5,0.2h4.2c0.1,0,0.3-0.1,0.3-0.5v-3.2h-1V15.2z M113.3,16.8c0,0,0,0.3-0.2,0.3h-2.7c-0.2,0-0.3-0.1-0.3-0.3V16
	h3.3V16.8z M114.2,10.9l0-1.8h-1v4.6c0.1,0.1,0.3,0.1,0.5,0.1c0.2,0,0.3,0,0.5-0.1l0-1.9h1.3v-0.8H114.2z"/>
<path style="fill:#717171;" d="M118.9,11.7c0.5-0.3,0.9-0.7,1.1-1.1c0.2,0.4,0.6,0.8,1.2,1.1c0.6,0.3,1.1,0.5,1.7,0.6l0.3-0.8
	c-0.9-0.2-1.5-0.5-2-0.9c-0.5-0.4-0.7-0.9-0.7-1.5V9h-1v0.1c0,1.2-0.9,2-2.7,2.4l0.3,0.8C117.8,12.2,118.4,12,118.9,11.7z
	 M116.2,13.1v0.8h7.7v-0.8H116.2z M121.8,15.3h-3.7v-0.8h-0.9v2.6c0,0.3,0,0.4,0.1,0.5c0.1,0.1,0.3,0.2,0.5,0.2h4.6
	c0,0,0.4,0,0.4-0.5v-2.8h-0.9V15.3z M121.8,16.8c0,0,0,0.3-0.2,0.3h-3.1c-0.2,0-0.3-0.1-0.3-0.3v-0.6h3.7V16.8z"/>
<path style="fill:#ED7700;" d="M44.5,5.7c0.8-0.3,2-0.5,1.4-1.2c-0.4-0.5-1.5-0.3-1.7-1.1c-0.1-0.5,0.3-1.2,0-1.7
	c-0.4-0.7-1.4,0.7-1.7,0.9c-0.3,0.2-0.9-0.1-1.2-0.2c-0.5-0.2-1-0.2-1,0.5c0,0.7,0.8,1.2,0.3,2c-0.2,0.3-1.8,1.3-0.9,1.7
	c0.9,0.4,2-0.9,2.8-0.1c0.1,0.2,0.7,1.1,1.2,1.5c0.4,0.3,0.5,0.1,0.6-0.1c0.1-0.6,0-1.1,0-1.7C44.2,5.9,44.3,5.8,44.5,5.7z"/>
<path style="fill:#007BC6;" d="M53.8,11.9c-0.3-0.8,3-0.1,3.5-2.6c0.2-1-0.6-2.4,0-2.2c1.3,0.4,3.5,3,1.7,5.1
	c-1.1,1.3-3.3,1.2-4.9,0c-0.1-0.1-0.2-0.1-0.2-0.2C53.8,12,53.8,11.9,53.8,11.9z"/>
<path style="fill:#6CB42B;" d="M10.3,6.5c-0.2,0.1-0.3,0.2-0.4,0.2C9.3,6.9,8.7,7.3,8.7,8c0,0.7,0.5,1.4,0.4,2.1
	c-0.1,0.6-0.5,1.3-1,1.6c-0.9,0.4-1.2-1.8-1.4-2.3C6.4,9,6.2,9,5.8,9.2c-0.2,0.1-1.2,1.2-1.6,0.9C3.9,9.9,3.7,9.4,3.5,9.2
	c-0.1-0.2-0.2-0.6,0-0.8c0.2-0.2,0.7-0.2,1-0.3C5.4,7.9,5.7,7.5,5.2,7C4.8,6.7,4.3,6.4,3.9,6.1C3.4,5.7,3.4,5.3,4,5.1
	C4.8,4.9,5.4,5,6.1,5.4C6.4,5.6,6.6,6,7,6.1c0.7,0.2,1.2-0.3,1.8-0.4c0.5-0.2,1.1,0,1.6,0.2C10.8,6.1,10.6,6.3,10.3,6.5z"/>
<path style="fill:#6CB42B;" d="M13.5,26.2c-2.9,0.4-3.4-2.6-0.9-3.8c0.3-0.1,0.8-0.4,1.6-0.7c0-0.2,0.1-0.4,0.1-0.5
	c0.2-1.2,0.5-3.3,0.6-3.5c0.5-2.6-3.6-3.4-4.3-1.3c-0.4,1.1-0.8,2.4-1.6,5.1c-0.1,0.4-0.5,0.5-0.7,0.6c-0.1,0-0.4,0-0.7,0.1
	c-0.8,0-2.4,0.2-5.1,0.3C0.9,22.5,0,23,0,24.3c0,1.6,1.7,1.8,2.8,2c1.3,0.2,2.7,0.2,3.5,0.4c0.7,0.2,0.9,0.4,0.8,1
	c0,0.2-0.9,10.8-0.9,10.9c0,0.2-0.1,3.2-0.1,4.5c0,2.1,1.3,2.2,1.3,2.2c1.8,0.3,2-1.8,2-1.8s0-0.5,0.1-1.3c0.2,0,0.4,0,0.6,0
	c0,0.4,0.1,0.8,0.2,1.2c0.4,2.1,1.7,1.9,1.7,1.9c1.8-0.1,1.6-2.1,1.6-2.1c0-0.9-0.2-10.3-0.1-13.4c0-0.9,0.9-0.4,0.9-0.4l2,1.3
	c1.6,1.1,2.6,0.8,3.1,0.2c0.7-0.9,0.3-2.1-0.4-2.7c-0.6-0.5-1.7-1.6-2.8-2.6c-0.4,0.1-0.9,0.2-1.3,0.3
	C14.2,26.1,13.6,26.2,13.5,26.2z"/>
<path style="fill:#F9BE00;" d="M28.1,18.7c0.5,0.1,1.1,0.2,1.6,0.4c0.4,0.1,0.8,0.2,1.2,0.3c1.5-1.5,2.9-3,3.5-3.7
	c0.5-0.5,0.8-1,1-1.4c0.4-1.2-0.2-2-1.1-2.3c-0.4-0.2-1.1-0.2-1.9,0.3c-1.6,0.8-3.7,2.8-4.8,3.5c-0.6,0.4-1.4,0.7-2-0.5
	c-1.1-1.9-2.6-5-3-5.5c-0.8-1.1-2.6-1-3.8-0.1c0,0-1.3,0.7-1,2.2c0.2,0.9,1.8,5.4,2,6c0.2,0.6,0.1,1.3-1,1.9c-0.5,0.3-2.3,1-3.8,1.6
	c-0.2,0.1-0.5,0.2-0.7,0.3c-0.1,0.4-0.1,0.8-0.1,0.9c0,0.7,0.1,0.9,0.4,1.1c0,0,0.9,0.9,1.9,1.9c1.6-0.3,3.1-0.6,3.1-0.6
	s1.4-0.2,1.4,1.7C21,31,21,39.2,20.8,42.2c0,0.2-0.1,0.9,0,1.4c0.1,0.7,0.5,1.7,1.8,1.8c0.8,0,2.1,0,2.5-2.4
	c0.1-0.5,0.1-0.9,0.2-1.4c0.2,0,0.5,0,0.8,0c0,0.4,0.1,0.9,0.1,1.2c0,0.3,0,0.8,0.1,1.1c0.2,0.7,0.6,1.6,2.1,1.5c0,0,2.1,0,1.9-2.9
	c-0.4-9.1-0.9-14.7-1.1-17.3c0-0.6-0.1-1-0.1-1.3c0-0.1,0-0.3,0-0.4c-1.1-0.5-2-0.8-2.7-1.3C24.8,21.1,25.5,18.2,28.1,18.7z"/>
<path style="fill:#00814C;" d="M14.4,23.8c-0.2-0.3-0.4-0.4-0.4-1.1c0-0.1,0.1-0.5,0.1-0.9c-0.8,0.3-1.3,0.6-1.6,0.7
	c-2.5,1.2-2,4.2,0.9,3.8c0.1,0,0.7-0.1,1.5-0.3c0.4-0.1,0.8-0.2,1.3-0.3C15.3,24.7,14.4,23.8,14.4,23.8z"/>
<path style="fill:#ED7700;" d="M46.9,21.2c0-0.1-0.3-0.5-0.2-1c-1.6,0.3-3.2,0.8-4.5,1c-0.7,0.1-0.6-0.6-0.7-1.2
	c0-0.7,0.2-5.1,0.2-5.9c0-1-0.7-1.8-2.2-2c-1.4-0.1-2.3,0.6-2.6,1.6c-0.4,1.5-1,4-1.3,5.2c-0.4,1.6-1.2,1.4-2.3,1.1
	c-1-0.3-1.8-0.5-2.5-0.7c-0.3,0.3-0.6,0.6-0.9,0.8c-0.3,0.3-0.5,0.5-0.6,0.7c-0.4,0.6-0.5,1.3-0.5,2.5c0.1,0.1,0.3,0.1,0.4,0.2
	c1,0.4,1.8,0.7,2.8,1.3c1.4,0.7,1.7,1,1.7,1.7c0,0.8-1,15.7-1,16.2c-0.1,2.5,1.9,2.6,1.9,2.6c1.9,0.2,2.1-2,2.1-2s0.1-0.7,0.2-1.5
	c0.2,0,0.5,0,0.7,0c0,0.4,0.1,0.8,0.1,1.2c0.2,2.3,2,2.2,2,2.2c2.1,0,2-2.3,2-2.3c-0.1-0.7-0.4-13.8-0.3-14.7c0-0.8,0-1.6,0.7-2
	c0.7-0.4,4-1.6,6-2.3c0,0,0,0,0,0C47.8,22.9,47.2,21.9,46.9,21.2z"/>
<path style="fill:#007BC6;" d="M60.6,19.7c-0.1-0.2-0.5-0.6-1.1-0.7c-0.6,0-1.3,0.1-2.1,1.1c-0.3,0.3-2.7,3.3-2.9,3.6
	c-0.1,0.2-0.4,0.5-0.7,0.1c-0.1-0.1-3-4.3-3.4-4.8c-0.7-0.7-1.7-0.7-2.5-0.2c-0.5,0.3-0.9,0.8-1.1,1.3c0,0.1,0,0.2,0,0.2
	c0,0,0.1,0,0.1,0c0.1,0,0.2,0,0.3-0.1c1-0.2,1.8-0.3,2.2-0.2c2.2,0.5,1.9,2.9-0.1,3.7c-0.1,0-0.2,0.1-0.3,0.1
	c-0.2,0.1-0.4,0.1-0.6,0.2c0,0-0.1,0-0.1,0c0.1,0.2,0.3,0.5,0.4,0.7c0.5,0.9,0.8,1.5,0.8,1.5s0.2,0.4-0.4,0.5c0,0-3.2,0.2-4.4,0.4
	c-0.8,0.1-1.6,0.5-1.7,1.3c-0.1,0.8,0.3,1.6,1.5,1.8c0.2,0,3.6,0.5,4.7,0.6c0.3,0,1,0.1,1.3,0.8c0.1,0.3,0.2,0.7,0.2,1.3
	c0,0.9-0.2,7.5-0.4,9.9c0,0.2-0.1,1.1,0,1.5c0.1,0.5,0.6,1.2,1.7,1.1c0.4,0,1.2-0.1,1.5-1.9c0.1-0.3,0.1-0.7,0.1-1
	c0.2,0,0.4,0,0.6,0c0,0.7,0.1,1.5,0.2,1.9c0.1,0.4,0.5,1,1.3,1.1c1.1,0.1,1.8-0.6,1.8-2.2c0-1.2-0.6-11.7-0.6-11.7l0-0.5
	c0,0-0.2-2.1,0.7-3.8c0.1-0.2,2.5-4.3,2.5-4.3s0.6-1,0.7-1.4C60.8,20.8,60.9,20.2,60.6,19.7z"/>
<path style="fill:#0C2F8B;" d="M49,23.7c0.1,0,0.2-0.1,0.3-0.1c2-0.8,2.2-3.1,0.1-3.7c-0.4-0.1-1.2,0-2.2,0.2c-0.1,0-0.2,0-0.3,0.1
	c0,0-0.1,0-0.1,0c-0.1,0.5,0.1,1,0.2,1c0.3,0.6,0.9,1.7,1.4,2.7c0,0,0,0,0,0c0,0,0.1,0,0.1,0C48.6,23.8,48.8,23.8,49,23.7z"/>
<path style="fill:#E84821;" d="M29.5,21c0.2-0.2,0.4-0.5,0.6-0.7c0.3-0.3,0.6-0.6,0.9-0.8c-0.4-0.1-0.8-0.2-1.2-0.3
	c-0.6-0.2-1.1-0.3-1.6-0.4c-2.7-0.5-3.4,2.4-1.8,3.4c0.7,0.5,1.6,0.8,2.7,1.3C29,22.2,29.1,21.5,29.5,21z"/>
<path style="fill:#F9BE00;" d="M30,1.6c-0.3-0.3-0.6-0.5-0.9-0.6c-1.1-0.4-2.3,0.3-3.2,0.8c-0.4-0.5-0.9-1-1.7-1.3l-0.1,0
	c-0.2-0.1-0.4-0.2-0.6-0.3C23.4,0,23.2,0,23,0c-0.6,0-1,0.3-1.2,0.6c-0.4,0.5-0.5,1.2-0.5,1.9c0,0.5,0.2,1,0.5,1.3
	c0.2,0.2,0.5,0.4,0.8,0.5c1,0.3,2.1-0.2,2.9-0.6c0.4,0.5,0.8,1,1.4,1.3c0.1,0.1,0.3,0.1,0.4,0.2c1.1,0.4,2.1,0,2.6-0.9
	C29.9,4.2,30.8,2.5,30,1.6z M23.3,3.5c-0.1,0-0.2-0.1-0.2-0.2c-0.1-0.1-0.1-0.3-0.2-0.6c0-0.3,0-0.7,0.1-1c0.1-0.3,0.3-0.3,0.5-0.2
	c0.1,0.1,0.2,0.1,0.4,0.2l0.1,0c0.6,0.3,1,0.6,1.4,1.1C24.6,3.3,23.8,3.7,23.3,3.5z M28.7,3.4c-0.2,0.5-0.9,0.3-1.1,0.2
	c-0.1,0-0.2-0.1-0.3-0.1c-0.4-0.2-0.8-0.6-1.1-1C27,2,28,1.5,28.6,1.8C29,1.9,29.1,2.2,29,2.5C28.9,2.7,28.8,3.1,28.7,3.4z"/>
<g>
	<path style="fill:#007BC6;stroke:#007BC6;stroke-miterlimit:10;" d="M141.7,37.5c0,0.9-0.1,1.8-0.3,2.7c-0.2,0.8-0.5,1.6-1,2.3
		c-0.5,0.7-1.1,1.2-1.8,1.6c-0.7,0.4-1.6,0.6-2.7,0.6s-2-0.2-2.7-0.6c-0.7-0.4-1.3-0.9-1.8-1.6c-0.5-0.7-0.8-1.4-1-2.3
		c-0.2-0.8-0.3-1.7-0.3-2.7V26.8h1.5v10.3c0,0.6,0.1,1.3,0.2,2c0.1,0.7,0.3,1.4,0.6,2c0.3,0.6,0.7,1.1,1.3,1.5
		c0.6,0.4,1.3,0.6,2.2,0.6s1.7-0.2,2.2-0.6c0.6-0.4,1-0.9,1.3-1.5c0.3-0.6,0.5-1.3,0.6-2c0.1-0.7,0.2-1.4,0.2-2V26.8h1.5V37.5z"/>
	<path style="fill:#007BC6;stroke:#007BC6;stroke-miterlimit:10;" d="M145,37.7h5.5V39H145V37.7z"/>
	<path style="fill:#007BC6;stroke:#007BC6;stroke-miterlimit:10;" d="M167.2,41.4c-0.8,1.1-1.6,1.9-2.6,2.4c-1,0.5-2.1,0.7-3.3,0.7
		c-1.2,0-2.3-0.2-3.3-0.7c-1-0.4-1.9-1.1-2.6-1.9c-0.7-0.8-1.3-1.8-1.7-2.9c-0.4-1.1-0.6-2.3-0.6-3.7c0-1.3,0.2-2.5,0.6-3.6
		c0.4-1.1,1-2.1,1.7-2.9c0.7-0.8,1.6-1.4,2.6-1.9c1-0.5,2.1-0.7,3.3-0.7c1.1,0,2.1,0.2,3,0.6c0.9,0.4,1.8,1.1,2.5,2.1l-1.2,1.1
		c-0.5-0.8-1.1-1.4-1.9-1.8c-0.8-0.4-1.6-0.6-2.4-0.6c-1,0-2,0.2-2.8,0.6c-0.8,0.4-1.5,0.9-2.1,1.6s-1,1.5-1.3,2.4
		c-0.3,0.9-0.5,1.9-0.5,3c0,1.1,0.2,2.1,0.5,3c0.3,0.9,0.8,1.7,1.3,2.4c0.6,0.7,1.3,1.2,2.1,1.6c0.8,0.4,1.8,0.6,2.8,0.6
		c0.4,0,0.8-0.1,1.3-0.2c0.4-0.1,0.9-0.3,1.3-0.5c0.4-0.2,0.8-0.5,1.2-0.8c0.4-0.3,0.7-0.7,1-1.2L167.2,41.4z"/>
	<path style="fill:#007BC6;stroke:#007BC6;stroke-miterlimit:10;" d="M169.8,28.4c0-0.3,0.1-0.6,0.3-0.8c0.2-0.2,0.4-0.3,0.7-0.3
		c0.3,0,0.5,0.1,0.7,0.3c0.2,0.2,0.3,0.5,0.3,0.8c0,0.3-0.1,0.6-0.3,0.8c-0.2,0.2-0.4,0.3-0.7,0.3c-0.3,0-0.5-0.1-0.7-0.3
		C169.9,28.9,169.8,28.7,169.8,28.4z M170.2,32.8h1.3v11.3h-1.3V32.8z"/>
	<path style="fill:#007BC6;stroke:#007BC6;stroke-miterlimit:10;" d="M180.9,34.2h-3v7.4c0,0.5,0.1,0.9,0.4,1.2
		c0.3,0.3,0.6,0.4,1.1,0.4c0.3,0,0.5,0,0.8-0.1c0.3-0.1,0.5-0.2,0.8-0.3L181,44c-0.3,0.1-0.5,0.2-0.9,0.3c-0.3,0.1-0.6,0.1-0.9,0.1
		c-0.5,0-0.9-0.1-1.2-0.2c-0.3-0.2-0.6-0.4-0.8-0.6c-0.2-0.3-0.4-0.6-0.5-0.9c-0.1-0.4-0.1-0.7-0.1-1.1v-7.4h-2.2v-1.3h2.2v-3.3h1.3
		v3.3h3V34.2z"/>
	<path style="fill:#007BC6;stroke:#007BC6;stroke-miterlimit:10;" d="M186.6,47.6c-0.3,0.7-0.6,1.3-1.1,1.7c-0.4,0.4-1,0.6-1.8,0.6
		c-0.2,0-0.4,0-0.7-0.1s-0.4-0.1-0.7-0.2l0.1-1.4c0.2,0.1,0.4,0.1,0.6,0.2c0.2,0.1,0.4,0.1,0.6,0.1c0.2,0,0.5-0.1,0.6-0.2
		c0.2-0.1,0.3-0.3,0.5-0.4c0.1-0.2,0.3-0.4,0.3-0.6c0.1-0.2,0.2-0.4,0.3-0.7l0.9-2.6l-4.2-11.4h1.5l3.4,9.5l3.3-9.5h1.4L186.6,47.6z
		"/>
</g>
<text transform="matrix(0.97 0 0 1 70.1922 41.8865)" style="fill:#6CB42B;stroke:#6CB42B;stroke-width:0.3;stroke-miterlimit:10; font-family:'Youth'; font-size:22px; letter-spacing:-1;">수원시</text>
</svg>
