<svg xmlns="http://www.w3.org/2000/svg" xmlns:xlink="http://www.w3.org/1999/xlink" preserveAspectRatio="xMidYMid" width="14" height="10" viewBox="0 0 14 10">
  <defs>
    <style>
      .cls-1 {
        fill: #444;
        fill-rule: evenodd;
      }
    </style>
  </defs>
  <path d="M13.297,10.000 L0.703,10.000 C0.703,9.611 0.388,9.297 -0.000,9.297 L-0.000,8.703 C0.388,8.703 0.703,8.388 0.703,8.000 L13.297,8.000 C13.297,8.388 13.612,8.703 14.000,8.703 L14.000,9.297 C13.612,9.297 13.297,9.611 13.297,10.000 ZM13.297,6.000 L0.703,6.000 C0.703,5.612 0.388,5.297 -0.000,5.297 L-0.000,4.703 C0.388,4.703 0.703,4.388 0.703,4.000 L13.297,4.000 C13.297,4.388 13.612,4.703 14.000,4.703 L14.000,5.297 C13.612,5.297 13.297,5.612 13.297,6.000 ZM13.297,2.000 L0.703,2.000 C0.703,1.612 0.388,1.297 -0.000,1.297 L-0.000,0.703 C0.388,0.703 0.703,0.388 0.703,-0.000 L13.297,-0.000 C13.297,0.388 13.612,0.703 14.000,0.703 L14.000,1.297 C13.612,1.297 13.297,1.612 13.297,2.000 Z" class="cls-1"/>
</svg>
