<svg xmlns="http://www.w3.org/2000/svg" xmlns:xlink="http://www.w3.org/1999/xlink" preserveAspectRatio="xMidYMid" width="20" height="20" viewBox="0 0 20 20">
  <defs>
    <style>
      .cls-1 {
        fill: #5bac12;
        fill-rule: evenodd;
      }
    </style>
  </defs>
  <path d="M10.002,20.010 C4.482,20.010 0.008,15.529 0.008,10.002 C0.008,4.474 4.482,-0.007 10.002,-0.007 C15.521,-0.007 19.995,4.474 19.995,10.002 C19.995,15.529 15.521,20.010 10.002,20.010 ZM10.002,1.555 C5.351,1.555 1.568,5.344 1.568,10.002 C1.568,14.659 5.351,18.448 10.002,18.448 C14.652,18.448 18.435,14.659 18.435,10.002 C18.435,5.344 14.652,1.555 10.002,1.555 ZM10.002,15.357 C7.663,15.357 5.600,14.191 4.350,12.411 C5.943,13.558 7.890,14.241 10.002,14.241 C12.113,14.241 14.061,13.558 15.654,12.411 C14.404,14.191 12.340,15.357 10.002,15.357 ZM13.122,10.002 C12.261,10.002 11.562,9.302 11.562,8.439 C11.562,7.576 12.261,6.877 13.122,6.877 C13.982,6.877 14.682,7.576 14.682,8.439 C14.682,9.302 13.982,10.002 13.122,10.002 ZM6.882,10.002 C6.021,10.002 5.322,9.302 5.322,8.439 C5.322,7.576 6.021,6.877 6.882,6.877 C7.742,6.877 8.442,7.576 8.442,8.439 C8.442,9.302 7.742,10.002 6.882,10.002 Z" class="cls-1"/>
</svg>
