<svg xmlns="http://www.w3.org/2000/svg" xmlns:xlink="http://www.w3.org/1999/xlink" preserveAspectRatio="xMidYMid" width="35" height="35" viewBox="0 0 35 35">
  <defs>
    <style>
      .cls-1 {
        fill: #fff;
        fill-rule: evenodd;
      }
    </style>
  </defs>
  <path d="M26.923,35.000 L25.541,34.408 L25.541,34.408 L17.500,30.962 L9.423,35.000 L-0.000,30.962 L-0.000,-0.000 L9.423,4.038 L12.886,2.307 C12.251,3.377 11.843,4.592 11.731,5.895 L10.627,6.447 C10.249,6.636 9.836,6.731 9.423,6.731 C9.063,6.731 8.701,6.658 8.362,6.512 L2.692,4.083 L2.692,16.106 C4.337,16.155 7.176,16.599 9.423,18.846 C13.214,19.058 12.461,22.685 14.808,24.006 C16.197,24.788 16.769,23.939 17.500,23.939 C20.411,23.939 24.094,25.065 25.221,31.341 L26.836,32.033 L32.308,29.297 L32.308,4.357 L28.668,6.177 C28.618,5.223 28.414,4.309 28.073,3.463 L35.000,-0.000 L35.000,30.962 L26.923,35.000 ZM19.363,21.394 C19.363,16.581 13.714,10.201 13.714,6.623 C13.714,3.046 16.614,0.145 20.192,0.145 C23.771,0.145 26.671,3.046 26.671,6.623 C26.671,9.909 21.022,16.598 21.022,21.394 L19.363,21.394 ZM23.040,6.623 C23.040,5.051 21.765,3.776 20.192,3.776 C18.620,3.776 17.345,5.051 17.345,6.623 C17.345,8.195 18.620,9.470 20.192,9.470 C21.765,9.470 23.040,8.195 23.040,6.623 Z" class="cls-1"/>
</svg>
