<svg xmlns="http://www.w3.org/2000/svg" xmlns:xlink="http://www.w3.org/1999/xlink" preserveAspectRatio="xMidYMid" width="41" height="44" viewBox="0 0 41 44">
  <defs>
    <style>
      .cls-1 {
        fill: #8897aa;
        fill-rule: evenodd;
      }
    </style>
  </defs>
  <path d="M28.981,23.718 C28.981,25.589 27.423,27.106 25.503,27.106 C23.582,27.106 22.025,25.589 22.025,23.718 C22.025,21.846 23.582,20.329 25.503,20.329 C27.423,20.329 28.981,21.846 28.981,23.718 ZM8.113,23.718 C8.113,21.846 9.670,20.329 11.591,20.329 C13.511,20.329 15.069,21.846 15.069,23.718 C15.069,25.589 13.511,27.106 11.591,27.106 C9.670,27.106 8.113,25.589 8.113,23.718 ZM37.445,30.248 C36.537,34.707 33.380,39.253 33.224,39.475 C33.140,39.594 33.028,39.693 32.897,39.761 C32.776,39.824 30.207,41.131 24.735,41.477 C23.909,42.959 22.009,43.998 19.793,43.998 C16.816,43.998 14.405,42.130 14.405,39.825 C14.405,37.521 16.816,35.652 19.793,35.652 C22.679,35.652 25.015,37.416 25.152,39.626 C29.015,39.319 31.201,38.524 31.829,38.256 C32.402,37.396 34.634,33.908 35.496,30.494 L33.780,30.494 C33.088,30.969 32.360,31.330 31.658,31.502 C31.148,33.280 30.235,34.921 28.940,36.390 C28.523,36.865 27.791,36.920 27.305,36.512 C26.819,36.105 26.763,35.392 27.181,34.919 C28.406,33.529 29.215,31.961 29.586,30.260 C29.699,29.738 30.172,29.365 30.720,29.365 C31.206,29.365 31.838,29.087 32.459,28.657 L32.459,22.024 L32.459,21.459 C31.843,21.459 31.336,20.990 31.301,20.392 C31.250,19.505 31.136,18.591 30.951,17.681 C24.825,13.991 16.168,19.841 13.330,11.672 C11.072,18.151 8.888,16.032 6.203,17.393 C5.980,18.398 5.850,19.412 5.792,20.393 C5.757,20.991 5.249,21.459 4.635,21.459 C3.334,21.459 2.316,23.076 2.316,25.140 C2.316,27.265 5.491,29.358 6.374,29.358 C6.922,29.358 7.394,29.732 7.508,30.254 C8.194,33.414 10.289,35.537 11.927,36.762 C12.435,37.142 12.530,37.851 12.140,38.346 C11.912,38.635 11.568,38.787 11.220,38.787 C10.973,38.787 10.725,38.711 10.514,38.553 C7.951,36.635 6.204,34.196 5.425,31.460 C3.202,30.803 -0.003,28.152 -0.003,25.140 C-0.003,23.248 0.627,21.626 1.638,20.554 C-0.406,6.076 8.683,-0.000 18.547,-0.000 C27.544,-0.000 35.664,5.089 35.658,16.941 L35.937,16.941 C38.817,16.941 40.991,19.216 40.991,22.024 L40.991,25.412 C40.991,27.697 39.537,29.609 37.445,30.248 Z" class="cls-1"/>
</svg>
