<svg xmlns="http://www.w3.org/2000/svg" xmlns:xlink="http://www.w3.org/1999/xlink" preserveAspectRatio="xMidYMid" width="20" height="20" viewBox="0 0 20 20">
  <defs>
    <style>
      .cls-1 {
        fill: #2460ce;
        fill-rule: evenodd;
      }
    </style>
  </defs>
  <path d="M10.003,20.011 C4.483,20.011 0.009,15.530 0.009,10.003 C0.009,4.475 4.483,-0.006 10.003,-0.006 C15.522,-0.006 19.996,4.475 19.996,10.003 C19.996,15.530 15.522,20.011 10.003,20.011 ZM10.003,1.556 C5.353,1.556 1.569,5.345 1.569,10.003 C1.569,14.660 5.353,18.449 10.003,18.449 C14.653,18.449 18.437,14.660 18.437,10.003 C18.437,5.345 14.653,1.556 10.003,1.556 ZM13.123,8.440 C12.262,8.440 11.563,8.990 11.563,8.440 C11.563,7.891 12.262,6.878 13.123,6.878 C13.983,6.878 15.463,7.952 15.463,8.440 C15.463,8.928 13.983,8.440 13.123,8.440 ZM10.003,16.909 C6.462,16.909 4.666,14.085 4.666,11.565 C4.666,11.565 6.383,12.470 10.003,12.470 C13.622,12.470 15.339,11.565 15.339,11.565 C15.339,14.085 13.543,16.909 10.003,16.909 ZM6.883,8.440 C6.022,8.440 4.543,8.928 4.543,8.440 C4.543,7.952 6.022,6.878 6.883,6.878 C7.744,6.878 8.443,7.891 8.443,8.440 C8.443,8.990 7.744,8.440 6.883,8.440 Z" class="cls-1"/>
</svg>
