<svg xmlns="http://www.w3.org/2000/svg" xmlns:xlink="http://www.w3.org/1999/xlink" preserveAspectRatio="xMidYMid" width="24" height="18.875" viewBox="0 0 24 18.875">
  <defs>
    <style>
      .cls-1 {
        fill: #8897aa;
        fill-rule: evenodd;
      }
    </style>
  </defs>
  <path d="M14.163,0.926 C12.712,0.314 11.134,0.008 9.428,0.008 C7.723,0.008 6.145,0.314 4.694,0.926 C3.243,1.537 2.098,2.370 1.259,3.423 C0.419,4.477 -0.000,5.624 -0.000,6.865 C-0.000,7.928 0.317,8.928 0.951,9.865 C1.585,10.803 2.455,11.593 3.562,12.236 C3.473,12.450 3.382,12.647 3.288,12.825 C3.194,13.004 3.082,13.176 2.953,13.341 C2.823,13.506 2.723,13.635 2.652,13.729 C2.580,13.823 2.464,13.955 2.303,14.124 C2.143,14.294 2.040,14.405 1.995,14.459 C1.986,14.468 1.969,14.488 1.942,14.519 C1.915,14.551 1.895,14.573 1.882,14.586 C1.868,14.600 1.850,14.622 1.828,14.653 C1.806,14.685 1.790,14.709 1.781,14.727 C1.772,14.745 1.761,14.767 1.748,14.794 C1.734,14.821 1.725,14.847 1.721,14.874 C1.716,14.901 1.714,14.930 1.714,14.961 C1.714,14.993 1.719,15.022 1.728,15.048 C1.745,15.164 1.797,15.258 1.882,15.330 C1.966,15.401 2.058,15.437 2.156,15.437 L2.196,15.437 C2.643,15.374 3.027,15.303 3.348,15.222 C4.723,14.865 5.964,14.294 7.071,13.508 C7.875,13.651 8.660,13.722 9.428,13.722 C11.134,13.722 12.712,13.417 14.163,12.805 C15.614,12.194 16.759,11.361 17.598,10.307 C18.437,9.254 18.857,8.106 18.857,6.865 C18.857,5.624 18.437,4.477 17.598,3.423 C16.759,2.370 15.614,1.537 14.163,0.926 ZM22.995,7.213 C22.326,6.258 21.415,5.464 20.263,4.830 C20.469,5.499 20.571,6.178 20.571,6.865 C20.571,8.062 20.272,9.196 19.674,10.267 C19.076,11.338 18.219,12.285 17.103,13.106 C16.067,13.856 14.888,14.432 13.567,14.834 C12.245,15.236 10.866,15.437 9.428,15.437 C9.161,15.437 8.768,15.419 8.250,15.383 C10.044,16.562 12.152,17.151 14.571,17.151 C15.339,17.151 16.125,17.080 16.928,16.937 C18.035,17.722 19.277,18.294 20.652,18.651 C20.973,18.731 21.357,18.803 21.803,18.865 C21.911,18.874 22.009,18.843 22.098,18.771 C22.187,18.700 22.245,18.602 22.272,18.477 C22.281,18.450 22.286,18.421 22.286,18.390 C22.286,18.358 22.283,18.330 22.279,18.303 C22.274,18.276 22.265,18.249 22.252,18.222 C22.239,18.196 22.227,18.173 22.219,18.155 C22.210,18.137 22.194,18.113 22.172,18.082 C22.149,18.050 22.132,18.028 22.118,18.015 C22.105,18.001 22.085,17.979 22.058,17.948 C22.031,17.916 22.013,17.896 22.004,17.888 C21.960,17.834 21.857,17.722 21.696,17.553 C21.536,17.383 21.419,17.251 21.348,17.158 C21.277,17.064 21.176,16.935 21.047,16.769 C20.917,16.604 20.806,16.432 20.712,16.254 C20.618,16.075 20.527,15.879 20.437,15.664 C21.544,15.022 22.415,14.234 23.049,13.300 C23.683,12.368 24.000,11.365 24.000,10.294 C24.000,9.196 23.665,8.169 22.995,7.213 Z" class="cls-1"/>
</svg>
