<svg xmlns="http://www.w3.org/2000/svg" xmlns:xlink="http://www.w3.org/1999/xlink" preserveAspectRatio="xMidYMid" width="17.47" height="17.5" viewBox="0 0 17.47 17.5">
  <defs>
    <style>
      .cls-1 {
        fill: #fff;
        fill-rule: evenodd;
      }
    </style>
  </defs>
  <path d="M12.494,11.002 L11.700,11.002 L11.424,10.728 C12.399,9.591 12.991,8.118 12.991,6.503 C12.991,2.913 10.081,0.002 6.492,0.002 C2.902,0.002 -0.008,2.913 -0.008,6.503 C-0.008,10.092 2.902,13.002 6.492,13.002 C8.106,13.002 9.580,12.410 10.717,11.436 L10.993,11.711 L10.993,12.503 L15.991,17.494 L17.482,16.002 L12.494,11.002 ZM6.492,11.002 C4.006,11.002 1.992,8.988 1.992,6.503 C1.992,4.017 4.006,2.003 6.492,2.003 C8.977,2.003 10.991,4.017 10.991,6.503 C10.991,8.988 8.977,11.002 6.492,11.002 Z" class="cls-1"/>
</svg>
