<svg xmlns="http://www.w3.org/2000/svg" xmlns:xlink="http://www.w3.org/1999/xlink" preserveAspectRatio="xMidYMid" width="22.312" height="19.032" viewBox="0 0 22.312 19.032">
  <defs>
    <style>
      .cls-1 {
        fill: #8897aa;
        fill-rule: evenodd;
      }
    </style>
  </defs>
  <path d="M10.045,1.629 C9.875,1.460 9.674,1.375 9.442,1.375 C9.210,1.375 9.009,1.460 8.839,1.629 L4.379,6.089 L0.870,6.089 C0.638,6.089 0.437,6.174 0.268,6.343 C0.098,6.513 0.013,6.714 0.013,6.946 L0.013,12.089 C0.013,12.321 0.098,12.522 0.268,12.692 C0.437,12.861 0.638,12.946 0.870,12.946 L4.379,12.946 L8.839,17.406 C9.009,17.576 9.210,17.660 9.442,17.660 C9.674,17.660 9.875,17.576 10.045,17.406 C10.214,17.236 10.299,17.036 10.299,16.803 L10.299,2.232 C10.299,2.000 10.214,1.799 10.045,1.629 ZM13.366,6.370 C13.277,6.326 13.165,6.303 13.031,6.303 C12.799,6.303 12.598,6.386 12.428,6.551 C12.259,6.716 12.174,6.919 12.174,7.160 C12.174,7.348 12.228,7.507 12.335,7.636 C12.442,7.765 12.571,7.877 12.723,7.971 C12.875,8.064 13.027,8.167 13.178,8.279 C13.330,8.390 13.460,8.549 13.567,8.754 C13.674,8.960 13.728,9.214 13.728,9.518 C13.728,9.821 13.674,10.076 13.567,10.281 C13.460,10.486 13.330,10.645 13.178,10.756 C13.027,10.868 12.875,10.971 12.723,11.064 C12.571,11.158 12.442,11.270 12.335,11.399 C12.228,11.529 12.174,11.687 12.174,11.875 C12.174,12.116 12.259,12.319 12.428,12.484 C12.598,12.649 12.799,12.732 13.031,12.732 C13.165,12.732 13.277,12.710 13.366,12.665 C13.991,12.415 14.493,11.997 14.873,11.413 C15.252,10.828 15.442,10.196 15.442,9.518 C15.442,8.839 15.252,8.205 14.873,7.616 C14.493,7.026 13.991,6.611 13.366,6.370 L13.366,6.370 ZM14.719,3.210 C14.602,3.165 14.486,3.143 14.370,3.143 C14.138,3.143 13.937,3.228 13.768,3.397 C13.598,3.567 13.513,3.768 13.513,4.000 C13.513,4.348 13.687,4.611 14.036,4.790 C14.536,5.049 14.875,5.245 15.053,5.379 C15.714,5.861 16.230,6.466 16.600,7.194 C16.971,7.922 17.156,8.696 17.156,9.518 C17.156,10.339 16.971,11.114 16.600,11.841 C16.230,12.569 15.714,13.174 15.053,13.656 C14.875,13.790 14.536,13.986 14.036,14.245 C13.687,14.424 13.513,14.687 13.513,15.035 C13.513,15.268 13.598,15.469 13.768,15.638 C13.937,15.808 14.143,15.893 14.384,15.893 C14.491,15.893 14.602,15.870 14.719,15.826 C15.969,15.299 16.973,14.457 17.732,13.301 C18.491,12.145 18.870,10.884 18.870,9.518 C18.870,8.152 18.491,6.890 17.732,5.734 C16.973,4.578 15.969,3.736 14.719,3.210 L14.719,3.210 ZM16.071,0.062 C15.955,0.018 15.839,-0.005 15.723,-0.005 C15.491,-0.005 15.290,0.080 15.120,0.250 C14.951,0.419 14.866,0.620 14.866,0.852 C14.866,1.174 15.040,1.437 15.388,1.643 C15.451,1.678 15.551,1.725 15.690,1.783 C15.828,1.841 15.928,1.888 15.991,1.924 C16.402,2.147 16.768,2.375 17.089,2.607 C18.187,3.419 19.045,4.433 19.661,5.647 C20.277,6.861 20.585,8.152 20.585,9.518 C20.585,10.884 20.277,12.174 19.661,13.388 C19.045,14.602 18.187,15.616 17.089,16.428 C16.768,16.661 16.402,16.888 15.991,17.111 C15.928,17.147 15.828,17.194 15.690,17.252 C15.551,17.310 15.451,17.357 15.388,17.393 C15.040,17.598 14.866,17.861 14.866,18.183 C14.866,18.415 14.951,18.616 15.120,18.785 C15.290,18.955 15.491,19.040 15.723,19.040 C15.839,19.040 15.955,19.018 16.071,18.973 C17.955,18.160 19.464,16.895 20.598,15.176 C21.732,13.457 22.299,11.571 22.299,9.518 C22.299,7.464 21.732,5.578 20.598,3.859 C19.464,2.140 17.955,0.875 16.071,0.062 L16.071,0.062 Z" class="cls-1"/>
</svg>
