<svg xmlns="http://www.w3.org/2000/svg" xmlns:xlink="http://www.w3.org/1999/xlink" preserveAspectRatio="xMidYMid" width="32.969" height="38.969" viewBox="0 0 32.969 38.969">
  <defs>
    <style>
      .cls-1 {
        fill: #fff;
        fill-rule: evenodd;
      }
    </style>
  </defs>
  <path d="M31.713,8.794 L29.938,8.794 L29.938,31.683 C29.938,35.406 28.142,37.205 26.636,38.059 C25.060,38.951 23.519,38.978 23.344,38.978 L23.343,38.978 L10.409,38.978 C10.406,38.978 10.399,38.978 10.389,38.978 C10.097,38.978 7.130,38.925 5.043,36.880 C3.723,35.586 3.054,33.824 3.054,31.641 L3.054,8.794 L1.279,8.794 C0.578,8.794 0.010,8.231 0.010,7.536 C0.010,6.842 0.578,6.279 1.279,6.279 L4.322,6.279 C5.023,6.279 5.590,6.842 5.590,7.536 L5.590,31.641 C5.590,33.119 6.001,34.276 6.812,35.077 C8.198,36.449 10.369,36.463 10.400,36.463 L23.344,36.463 C23.752,36.457 27.402,36.275 27.402,31.683 L27.402,7.536 C27.402,6.842 27.969,6.279 28.670,6.279 L31.713,6.279 C32.414,6.279 32.982,6.842 32.982,7.536 C32.982,8.231 32.414,8.794 31.713,8.794 ZM16.320,16.590 C13.497,16.517 11.275,14.191 11.350,11.394 C11.422,8.602 15.301,2.370 16.803,-0.010 C19.550,4.598 21.817,9.196 21.550,11.667 C21.251,14.441 19.131,16.664 16.320,16.590 ZM7.366,27.659 L18.018,27.659 C18.578,27.659 19.032,28.109 19.032,28.665 C19.032,29.221 18.578,29.671 18.018,29.671 L7.366,29.671 C6.805,29.671 6.351,29.221 6.351,28.665 C6.351,28.109 6.805,27.659 7.366,27.659 ZM19.032,24.137 C19.032,24.694 18.578,25.144 18.018,25.144 L7.366,25.144 C6.805,25.144 6.351,24.694 6.351,24.137 C6.351,23.581 6.805,23.131 7.366,23.131 L18.018,23.131 C18.578,23.131 19.032,23.581 19.032,24.137 Z" class="cls-1"/>
</svg>
